<svg width="198" height="261" viewBox="0 0 198 261" fill="none" xmlns="http://www.w3.org/2000/svg">
<rect x="2.37573" y="2.8916" width="193.369" height="193.369" rx="44" fill="#8482FF" fill-opacity="0.23" stroke="#8482FF" stroke-width="4"/>
<path d="M12.7785 259.291H15.054V256.134H23.3956V259.279H25.6712V254.197H24.2138V243.043H15.8466L15.5015 248.578C15.2905 252.107 14.5427 253.494 13.6542 254.197H12.7785V259.291ZM16.4155 254.197C17.1123 253.053 17.6172 251.257 17.777 248.578L17.9816 245.031H21.9383V254.197H16.4155ZM31.7836 256.326C34.66 256.326 36.4881 254.299 36.4881 251.263C36.4881 248.22 34.66 246.188 31.7836 246.188C28.9072 246.188 27.0791 248.22 27.0791 251.263C27.0791 254.299 28.9072 256.326 31.7836 256.326ZM31.7964 254.472C30.2048 254.472 29.4249 253.053 29.4249 251.257C29.4249 249.46 30.2048 248.022 31.7964 248.022C33.3624 248.022 34.1423 249.46 34.1423 251.257C34.1423 253.053 33.3624 254.472 31.7964 254.472ZM44.1027 253.443L41.2646 246.316H38.4521V256.134H40.6829V249.518L43.2973 256.134H44.9145L47.6183 249.448V256.134H49.8299V246.316H47.0174L44.1027 253.443ZM54.9883 256.332C56.5288 256.332 57.4493 255.61 57.8711 254.785H57.9478V256.134H60.1723V249.563C60.1723 246.968 58.0565 246.188 56.1836 246.188C54.119 246.188 52.5338 247.108 52.0224 248.898L54.1829 249.205C54.413 248.534 55.065 247.958 56.1964 247.958C57.2703 247.958 57.8584 248.508 57.8584 249.473V249.512C57.8584 250.176 57.1616 250.208 55.4294 250.394C53.5245 250.598 51.7028 251.167 51.7028 253.379C51.7028 255.309 53.1155 256.332 54.9883 256.332ZM55.5892 254.632C54.624 254.632 53.9336 254.191 53.9336 253.34C53.9336 252.452 54.7071 252.081 55.7426 251.934C56.3498 251.851 57.5643 251.698 57.8647 251.455V252.612C57.8647 253.705 56.9826 254.632 55.5892 254.632ZM62.499 246.316V256.134H75.3662V246.316H73.1353V254.229H70.048V246.316H67.8172V254.229H64.7298V246.316H62.499ZM79.9349 246.316H77.7041V256.134H79.9349V252.164H83.7381V256.134H85.9626V246.316H83.7381V250.266H79.9349V246.316ZM90.5345 253.002V246.316H88.3037V256.134H90.6879L94.6062 249.441V256.134H96.8434V246.316H94.4656L90.5345 253.002ZM103.566 256.326C105.855 256.326 107.427 255.207 107.836 253.5L105.676 253.257C105.362 254.088 104.595 254.523 103.598 254.523C102.102 254.523 101.112 253.539 101.093 251.858H107.932V251.148C107.932 247.703 105.861 246.188 103.445 246.188C100.632 246.188 98.7978 248.252 98.7978 251.282C98.7978 254.363 100.607 256.326 103.566 256.326ZM101.099 250.298C101.169 249.045 102.096 247.99 103.477 247.99C104.806 247.99 105.701 248.962 105.714 250.298H101.099ZM113.811 253.443C113.869 255.264 115.537 256.326 117.806 256.326C120.133 256.326 121.814 255.22 121.814 253.411C121.814 252.088 120.913 251.18 119.749 251.11V251.007C120.874 250.707 121.59 250.004 121.59 248.943C121.59 247.287 120.158 246.188 117.857 246.188C115.71 246.188 114.092 247.3 114.06 249.013H116.342C116.368 248.355 117.045 247.894 117.966 247.894C118.886 247.894 119.443 248.387 119.443 249.115C119.443 249.786 118.931 250.285 117.972 250.285H116.47V251.928H117.972C118.938 251.928 119.57 252.471 119.57 253.264C119.57 254.159 118.784 254.593 117.793 254.593C116.815 254.593 116.151 254.171 116.106 253.443H113.811ZM126.461 256.332C128.001 256.332 128.922 255.61 129.344 254.785H129.42V256.134H131.645V249.563C131.645 246.968 129.529 246.188 127.656 246.188C125.592 246.188 124.006 247.108 123.495 248.898L125.656 249.205C125.886 248.534 126.538 247.958 127.669 247.958C128.743 247.958 129.331 248.508 129.331 249.473V249.512C129.331 250.176 128.634 250.208 126.902 250.394C124.997 250.598 123.175 251.167 123.175 253.379C123.175 255.309 124.588 256.332 126.461 256.332ZM127.062 254.632C126.097 254.632 125.406 254.191 125.406 253.34C125.406 252.452 126.18 252.081 127.215 251.934C127.822 251.851 129.037 251.698 129.337 251.455V252.612C129.337 253.705 128.455 254.632 127.062 254.632ZM133.102 258.985H135.378V256.134H141.802V258.985H144.039V254.229H142.518V246.316H135.423L135.141 249.755C134.956 251.953 134.713 253.583 133.882 254.229H133.102V258.985ZM136.26 254.229C136.88 253.315 137.11 251.832 137.276 249.755L137.43 248.182H140.306V254.229H136.26ZM148.592 256.332C150.132 256.332 151.053 255.61 151.475 254.785H151.551V256.134H153.776V249.563C153.776 246.968 151.66 246.188 149.787 246.188C147.723 246.188 146.137 247.108 145.626 248.898L147.786 249.205C148.017 248.534 148.669 247.958 149.8 247.958C150.874 247.958 151.462 248.508 151.462 249.473V249.512C151.462 250.176 150.765 250.208 149.033 250.394C147.128 250.598 145.306 251.167 145.306 253.379C145.306 255.309 146.719 256.332 148.592 256.332ZM149.193 254.632C148.227 254.632 147.537 254.191 147.537 253.34C147.537 252.452 148.311 252.081 149.346 251.934C149.953 251.851 151.168 251.698 151.468 251.455V252.612C151.468 253.705 150.586 254.632 149.193 254.632ZM158.333 246.316H156.102V256.134H158.333V252.164H162.137V256.134H164.361V246.316H162.137V250.266H158.333V246.316ZM168.933 253.002V246.316H166.702V256.134H169.086L173.005 249.441V256.134H175.242V246.316H172.864L168.933 253.002ZM183.422 256.134H185.589V246.316H181.326C178.922 246.316 177.433 247.549 177.439 249.435C177.433 250.675 178.11 251.615 179.28 252.094L177.081 256.134H179.357L181.37 252.439H183.422V256.134ZM183.422 250.752H181.249C180.232 250.752 179.67 250.221 179.676 249.486C179.67 248.751 180.264 248.195 181.326 248.195H183.422V250.752Z" fill="white"/>
<g clip-path="url(#clip0)" filter="url(#filter0_d)">
<path d="M153.722 34.2821L63.73 29.6603C59.3912 29.4375 55.6934 32.774 55.4706 37.1128L48.9363 164.343C48.7135 168.682 52.05 172.38 56.3888 172.603L146.381 177.224C150.72 177.447 154.418 174.111 154.64 169.772L161.175 42.5416C161.398 38.2028 158.061 34.5049 153.722 34.2821Z" fill="url(#paint0_linear)"/>
<path d="M153.722 34.282L141.805 33.6699C146.143 33.8928 149.48 37.5906 149.257 41.9294L142.723 169.16C142.5 173.498 138.802 176.835 134.463 176.612L146.381 177.224C150.72 177.447 154.418 174.11 154.641 169.772L161.175 42.5414C161.398 38.2026 158.061 34.5048 153.722 34.282Z" fill="url(#paint1_linear)"/>
<path d="M108.215 166.31L44.9298 163.06C40.591 162.837 37.2545 159.139 37.4773 154.8L44.0116 27.5699C44.2344 23.2311 47.9322 19.8945 52.271 20.1173L142.263 24.7391C146.602 24.962 149.939 28.6598 149.716 32.9986L144.553 133.522L108.215 166.31Z" fill="url(#paint2_linear)"/>
<path d="M142.263 24.7395L130.346 24.1274C134.685 24.3503 138.021 28.0481 137.798 32.3869L132.636 132.91L109.463 131.72C105.641 131.524 102.383 134.463 102.187 138.285L100.767 165.928L108.215 166.31L144.554 133.522L149.716 32.999C149.939 28.6601 146.602 24.9623 142.263 24.7395V24.7395Z" fill="url(#paint3_linear)"/>
<path d="M108.215 166.31L109.635 138.668C109.831 134.846 113.089 131.906 116.911 132.102L144.553 133.522C143.573 152.611 127.304 167.29 108.215 166.31Z" fill="url(#paint4_linear)"/>
<path d="M88.8346 37.4231C88.2387 35.1201 85.3811 33.8695 82.402 33.7165C79.4232 33.5635 76.4522 34.5144 75.6235 36.7446L61.5494 75.6296C61.4714 75.8851 61.3932 76.1408 61.3832 76.3353C61.2602 78.7316 64.8618 80.6695 67.6464 80.8125C69.2655 80.8957 70.5872 80.4444 71.0457 79.104L73.6633 71.122L87.3277 71.8237L89.1138 80.0319C89.4325 81.4119 90.701 81.9966 92.3201 82.0797C95.1047 82.2227 98.8859 80.664 99.009 78.2677C99.019 78.0735 98.9677 77.8111 98.9161 77.5487L88.8346 37.4231ZM76.135 63.4576L81.7537 46.3449L85.5898 63.9432L76.135 63.4576Z" fill="url(#paint5_linear)"/>
<path d="M125.555 55.7363L119.338 55.4171L119.657 49.2001C119.737 47.6459 118.197 46.0086 115.737 45.8822C113.405 45.7625 111.512 47.2238 111.433 48.7777L111.113 54.9947L104.831 54.672C103.018 54.5789 101.695 56.329 101.575 58.6604C101.448 61.1213 102.596 62.8036 104.409 62.8967L110.691 63.2193L110.368 69.5009C110.275 71.3142 112.025 72.638 114.357 72.7578C116.817 72.8842 118.499 71.7365 118.593 69.9233L118.915 63.6417L125.132 63.961C126.686 64.0408 128.324 62.5013 128.45 60.0406C128.57 57.7092 127.109 55.8162 125.555 55.7363Z" fill="url(#paint6_linear)"/>
<path d="M132.142 94.0092L55.2436 90.0599C54.2791 90.0104 53.4569 90.7522 53.4074 91.7168L53.0433 98.806C52.9937 99.7705 53.7356 100.593 54.7001 100.642L131.598 104.592C132.563 104.641 133.385 103.899 133.435 102.935L133.799 95.8455C133.848 94.8809 133.106 94.0588 132.142 94.0092Z" fill="url(#paint7_linear)"/>
<path d="M130.976 116.696L54.0781 112.746C53.1135 112.697 52.2914 113.439 52.2418 114.403L51.8778 121.492C51.8282 122.457 52.5701 123.279 53.5346 123.329L130.433 127.278C131.397 127.328 132.22 126.586 132.269 125.621L132.633 118.532C132.683 117.567 131.941 116.745 130.976 116.696Z" fill="url(#paint8_linear)"/>
<path d="M86.9195 137.179L52.913 135.432C51.9485 135.383 51.1263 136.125 51.0768 137.089L50.7127 144.179C50.6632 145.143 51.405 145.965 52.3696 146.015L86.376 147.761C87.3405 147.811 88.1627 147.069 88.2122 146.104L88.5763 139.015C88.6258 138.051 87.884 137.229 86.9195 137.179Z" fill="url(#paint9_linear)"/>
</g>
<defs>
<filter id="filter0_d" x="-1.51025" y="18.8345" width="201.673" height="204.673" filterUnits="userSpaceOnUse" color-interpolation-filters="sRGB">
<feFlood flood-opacity="0" result="BackgroundImageFix"/>
<feColorMatrix in="SourceAlpha" type="matrix" values="0 0 0 0 0 0 0 0 0 0 0 0 0 0 0 0 0 0 127 0"/>
<feOffset dy="24"/>
<feGaussianBlur stdDeviation="10.5"/>
<feColorMatrix type="matrix" values="0 0 0 0 0 0 0 0 0 0 0 0 0 0 0 0 0 0 0.09 0"/>
<feBlend mode="normal" in2="BackgroundImageFix" result="effect1_dropShadow"/>
<feBlend mode="normal" in="SourceGraphic" in2="effect1_dropShadow" result="shape"/>
</filter>
<linearGradient id="paint0_linear" x1="44.8602" y1="100.351" x2="167.269" y2="106.637" gradientUnits="userSpaceOnUse">
<stop stop-color="#7ACAA6"/>
<stop offset="0.5725" stop-color="#09A76D"/>
<stop offset="1" stop-color="#026841"/>
</linearGradient>
<linearGradient id="paint1_linear" x1="26.2428" y1="99.3945" x2="121.829" y2="104.304" gradientUnits="userSpaceOnUse">
<stop stop-color="#7ACAA6"/>
<stop offset="0.5725" stop-color="#09A76D"/>
<stop offset="1" stop-color="#026841"/>
</linearGradient>
<linearGradient id="paint2_linear" x1="33.4012" y1="90.8078" x2="155.81" y2="97.0945" gradientUnits="userSpaceOnUse">
<stop stop-color="#F9F3F1"/>
<stop offset="0.5725" stop-color="#EFE2DD"/>
<stop offset="1" stop-color="#CDBFBA"/>
</linearGradient>
<linearGradient id="paint3_linear" x1="53.5574" y1="91.8433" x2="127.051" y2="95.6178" gradientUnits="userSpaceOnUse">
<stop stop-color="#F9F3F1"/>
<stop offset="0.5725" stop-color="#EFE2DD"/>
<stop offset="1" stop-color="#CDBFBA"/>
</linearGradient>
<linearGradient id="paint4_linear" x1="100.298" y1="148.576" x2="150.968" y2="151.179" gradientUnits="userSpaceOnUse">
<stop stop-color="#F9F3F1"/>
<stop offset="0.5725" stop-color="#EFE2DD"/>
<stop offset="1" stop-color="#CDBFBA"/>
</linearGradient>
<linearGradient id="paint5_linear" x1="58.1161" y1="56.3961" x2="135.397" y2="60.3651" gradientUnits="userSpaceOnUse">
<stop stop-color="#FE646F"/>
<stop offset="0.5725" stop-color="#FB2B3A"/>
<stop offset="1" stop-color="#C41926"/>
</linearGradient>
<linearGradient id="paint6_linear" x1="58.1161" y1="56.3962" x2="135.397" y2="60.3652" gradientUnits="userSpaceOnUse">
<stop stop-color="#FE646F"/>
<stop offset="0.5725" stop-color="#FB2B3A"/>
<stop offset="1" stop-color="#C41926"/>
</linearGradient>
<linearGradient id="paint7_linear" x1="55.7872" y1="95.3929" x2="133.06" y2="99.3615" gradientUnits="userSpaceOnUse">
<stop stop-color="#537983"/>
<stop offset="1" stop-color="#3E5959"/>
</linearGradient>
<linearGradient id="paint8_linear" x1="54.6217" y1="118.079" x2="131.894" y2="122.048" gradientUnits="userSpaceOnUse">
<stop stop-color="#537983"/>
<stop offset="1" stop-color="#3E5959"/>
</linearGradient>
<linearGradient id="paint9_linear" x1="53.4566" y1="140.765" x2="130.729" y2="144.734" gradientUnits="userSpaceOnUse">
<stop stop-color="#537983"/>
<stop offset="1" stop-color="#3E5959"/>
</linearGradient>
<clipPath id="clip0">
<rect width="152.073" height="152.073" fill="white" transform="translate(27.2896 18.8345) rotate(2.94)"/>
</clipPath>
</defs>
</svg>
