<svg width="198" height="261" fill="none" xmlns="http://www.w3.org/2000/svg"><rect x="2.37573" y="2.8916" width="193.369" height="193.369" rx="44" fill="#8482FF" fill-opacity=".23" stroke="#8482FF" stroke-width="4"/><path d="M12.7785 259.291h2.2755v-3.157h8.3416v3.145h2.2756v-5.082h-1.4574v-11.154h-8.3672l-.3451 5.535c-.211 3.529-.9588 4.916-1.8473 5.619h-.8757v5.094zm3.637-5.094c.6968-1.144 1.2017-2.94 1.3615-5.619l.2046-3.547h3.9567v9.166h-5.5228zm15.3681 2.129c2.8764 0 4.7045-2.027 4.7045-5.063 0-3.043-1.8281-5.075-4.7045-5.075-2.8764 0-4.7045 2.032-4.7045 5.075 0 3.036 1.8281 5.063 4.7045 5.063zm.0128-1.854c-1.5916 0-2.3715-1.419-2.3715-3.215 0-1.797.7799-3.235 2.3715-3.235 1.566 0 2.3459 1.438 2.3459 3.235 0 1.796-.7799 3.215-2.3459 3.215zm12.3063-1.029l-2.8381-7.127h-2.8125v9.818h2.2308v-6.616l2.6144 6.616h1.6172l2.7038-6.686v6.686h2.2116v-9.818h-2.8125l-2.9147 7.127zm10.8856 2.889c1.5405 0 2.461-.722 2.8828-1.547h.0767v1.349h2.2245v-6.571c0-2.595-2.1158-3.375-3.9887-3.375-2.0646 0-3.6498.92-4.1612 2.71l2.1605.307c.2301-.671.8821-1.247 2.0135-1.247 1.0739 0 1.662.55 1.662 1.515v.039c0 .664-.6968.696-2.429.882-1.9049.204-3.7266.773-3.7266 2.985 0 1.93 1.4127 2.953 3.2855 2.953zm.6009-1.7c-.9652 0-1.6556-.441-1.6556-1.292 0-.888.7735-1.259 1.809-1.406.6072-.083 1.8217-.236 2.1221-.479v1.157c0 1.093-.8821 2.02-2.2755 2.02zm6.9098-8.316v9.818h12.8672v-9.818h-2.2309v7.913H70.048v-7.913h-2.2308v7.913h-3.0874v-7.913H62.499zm17.4359 0h-2.2308v9.818h2.2308v-3.97h3.8032v3.97h2.2245v-9.818h-2.2245v3.95h-3.8032v-3.95zm10.5996 6.686v-6.686h-2.2308v9.818h2.3842l3.9183-6.693v6.693h2.2372v-9.818h-2.3778l-3.9311 6.686zm13.0315 3.324c2.289 0 3.861-1.119 4.27-2.826l-2.16-.243c-.314.831-1.081 1.266-2.078 1.266-1.496 0-2.486-.984-2.505-2.665h6.839v-.71c0-3.445-2.071-4.96-4.487-4.96-2.813 0-4.6472 2.064-4.6472 5.094 0 3.081 1.8092 5.044 4.7682 5.044zm-2.467-6.028c.07-1.253.997-2.308 2.378-2.308 1.329 0 2.224.972 2.237 2.308h-4.615zm12.712 3.145c.058 1.821 1.726 2.883 3.995 2.883 2.327 0 4.008-1.106 4.008-2.915 0-1.323-.901-2.231-2.065-2.301v-.103c1.125-.3 1.841-1.003 1.841-2.064 0-1.656-1.432-2.755-3.733-2.755-2.147 0-3.765 1.112-3.797 2.825h2.282c.026-.658.703-1.119 1.624-1.119.92 0 1.477.493 1.477 1.221 0 .671-.512 1.17-1.471 1.17h-1.502v1.643h1.502c.966 0 1.598.543 1.598 1.336 0 .895-.786 1.329-1.777 1.329-.978 0-1.642-.422-1.687-1.15h-2.295zm12.65 2.889c1.54 0 2.461-.722 2.883-1.547h.076v1.349h2.225v-6.571c0-2.595-2.116-3.375-3.989-3.375-2.064 0-3.65.92-4.161 2.71l2.161.307c.23-.671.882-1.247 2.013-1.247 1.074 0 1.662.55 1.662 1.515v.039c0 .664-.697.696-2.429.882-1.905.204-3.727.773-3.727 2.985 0 1.93 1.413 2.953 3.286 2.953zm.601-1.7c-.965 0-1.656-.441-1.656-1.292 0-.888.774-1.259 1.809-1.406.607-.083 1.822-.236 2.122-.479v1.157c0 1.093-.882 2.02-2.275 2.02zm6.04 4.353h2.276v-2.851h6.424v2.851h2.237v-4.756h-1.521v-7.913h-7.095l-.282 3.439c-.185 2.198-.428 3.828-1.259 4.474h-.78v4.756zm3.158-4.756c.62-.914.85-2.397 1.016-4.474l.154-1.573h2.876v6.047h-4.046zm12.332 2.103c1.54 0 2.461-.722 2.883-1.547h.076v1.349h2.225v-6.571c0-2.595-2.116-3.375-3.989-3.375-2.064 0-3.65.92-4.161 2.71l2.16.307c.231-.671.883-1.247 2.014-1.247 1.074 0 1.662.55 1.662 1.515v.039c0 .664-.697.696-2.429.882-1.905.204-3.727.773-3.727 2.985 0 1.93 1.413 2.953 3.286 2.953zm.601-1.7c-.966 0-1.656-.441-1.656-1.292 0-.888.774-1.259 1.809-1.406.607-.083 1.822-.236 2.122-.479v1.157c0 1.093-.882 2.02-2.275 2.02zm9.14-8.316h-2.231v9.818h2.231v-3.97h3.804v3.97h2.224v-9.818h-2.224v3.95h-3.804v-3.95zm10.6 6.686v-6.686h-2.231v9.818h2.384l3.919-6.693v6.693h2.237v-9.818h-2.378l-3.931 6.686zm14.489 3.132h2.167v-9.818h-4.263c-2.404 0-3.893 1.233-3.887 3.119-.006 1.24.671 2.18 1.841 2.659l-2.199 4.04h2.276l2.013-3.695h2.052v3.695zm0-5.382h-2.173c-1.017 0-1.579-.531-1.573-1.266-.006-.735.588-1.291 1.65-1.291h2.096v2.557z" fill="#fff"/><g clip-path="url(#clip0)" filter="url(#filter0_d)"><path d="M153.722 34.2821L63.73 29.6603c-4.3388-.2228-8.0366 3.1137-8.2594 7.4525L48.9363 164.343c-.2228 4.339 3.1137 8.037 7.4525 8.26l89.9922 4.621c4.339.223 8.037-3.113 8.259-7.452l6.535-127.2304c.223-4.3388-3.114-8.0367-7.453-8.2595z" fill="url(#paint0_linear)"/><path d="M153.722 34.282l-11.917-.6121c4.338.2229 7.675 3.9207 7.452 8.2595L142.723 169.16c-.223 4.338-3.921 7.675-8.26 7.452l11.918.612c4.339.223 8.037-3.114 8.26-7.452l6.534-127.2306c.223-4.3388-3.114-8.0366-7.453-8.2594z" fill="url(#paint1_linear)"/><path d="M108.215 166.31l-63.2852-3.25c-4.3388-.223-7.6753-3.921-7.4525-8.26l6.5343-127.2301c.2228-4.3388 3.9206-7.6754 8.2594-7.4526l89.992 4.6218c4.339.2229 7.676 3.9207 7.453 8.2595l-5.163 100.5234-36.338 32.788z" fill="url(#paint2_linear)"/><path d="M142.263 24.7395l-11.917-.6121c4.339.2229 7.675 3.9207 7.452 8.2595L132.636 132.91l-23.173-1.19c-3.822-.196-7.08 2.743-7.276 6.565l-1.42 27.643 7.448.382 36.339-32.788 5.162-100.523c.223-4.3389-3.114-8.0367-7.453-8.2595z" fill="url(#paint3_linear)"/><path d="M108.215 166.31l1.42-27.642c.196-3.822 3.454-6.762 7.276-6.566l27.642 1.42c-.98 19.089-17.249 33.768-36.338 32.788z" fill="url(#paint4_linear)"/><path d="M88.8346 37.4231c-.5959-2.303-3.4535-3.5536-6.4326-3.7066-2.9788-.153-5.9498.7979-6.7785 3.0281l-14.0741 38.885c-.078.2555-.1562.5112-.1662.7057-.123 2.3963 3.4786 4.3342 6.2632 4.4772 1.6191.0832 2.9408-.3681 3.3993-1.7085l2.6176-7.982 13.6644.7017 1.7861 8.2082c.3187 1.38 1.5872 1.9647 3.2063 2.0478 2.7846.143 6.5658-1.4157 6.6889-3.812.01-.1942-.0413-.4566-.0929-.719L88.8346 37.4231zM76.135 63.4576l5.6187-17.1127 3.8361 17.5983-9.4548-.4856z" fill="url(#paint5_linear)"/><path d="M125.555 55.7363l-6.217-.3192.319-6.217c.08-1.5542-1.46-3.1915-3.92-3.3179-2.332-.1197-4.225 1.3416-4.304 2.8955l-.32 6.217-6.282-.3227c-1.813-.0931-3.136 1.657-3.256 3.9884-.127 2.4609 1.021 4.1432 2.834 4.2363l6.282.3226-.323 6.2816c-.093 1.8133 1.657 3.1371 3.989 3.2569 2.46.1264 4.142-1.0213 4.236-2.8345l.322-6.2816 6.217.3193c1.554.0798 3.192-1.4597 3.318-3.9204.12-2.3314-1.341-4.2244-2.895-4.3043z" fill="url(#paint6_linear)"/><path d="M132.142 94.0092l-76.8984-3.9493c-.9645-.0495-1.7867.6923-1.8362 1.6569l-.3641 7.0892c-.0496.9645.6923 1.787 1.6568 1.836l76.8979 3.95c.965.049 1.787-.693 1.837-1.657l.364-7.0895c.049-.9646-.693-1.7867-1.657-1.8363z" fill="url(#paint7_linear)"/><path d="M130.976 116.696l-76.8979-3.95c-.9646-.049-1.7867.693-1.8363 1.657l-.364 7.089c-.0496.965.6923 1.787 1.6568 1.837l76.8984 3.949c.964.05 1.787-.692 1.836-1.657l.364-7.089c.05-.965-.692-1.787-1.657-1.836z" fill="url(#paint8_linear)"/><path d="M86.9195 137.179l-34.0065-1.747c-.9645-.049-1.7867.693-1.8362 1.657l-.3641 7.09c-.0495.964.6923 1.786 1.6569 1.836l34.0064 1.746c.9645.05 1.7867-.692 1.8362-1.657l.3641-7.089c.0495-.964-.6923-1.786-1.6568-1.836z" fill="url(#paint9_linear)"/></g><defs><linearGradient id="paint0_linear" x1="44.8602" y1="100.351" x2="167.269" y2="106.637" gradientUnits="userSpaceOnUse"><stop stop-color="#7ACAA6"/><stop offset=".5725" stop-color="#09A76D"/><stop offset="1" stop-color="#026841"/></linearGradient><linearGradient id="paint1_linear" x1="26.2428" y1="99.3945" x2="121.829" y2="104.304" gradientUnits="userSpaceOnUse"><stop stop-color="#7ACAA6"/><stop offset=".5725" stop-color="#09A76D"/><stop offset="1" stop-color="#026841"/></linearGradient><linearGradient id="paint2_linear" x1="33.4012" y1="90.8078" x2="155.81" y2="97.0945" gradientUnits="userSpaceOnUse"><stop stop-color="#F9F3F1"/><stop offset=".5725" stop-color="#EFE2DD"/><stop offset="1" stop-color="#CDBFBA"/></linearGradient><linearGradient id="paint3_linear" x1="53.5574" y1="91.8433" x2="127.051" y2="95.6178" gradientUnits="userSpaceOnUse"><stop stop-color="#F9F3F1"/><stop offset=".5725" stop-color="#EFE2DD"/><stop offset="1" stop-color="#CDBFBA"/></linearGradient><linearGradient id="paint4_linear" x1="100.298" y1="148.576" x2="150.968" y2="151.179" gradientUnits="userSpaceOnUse"><stop stop-color="#F9F3F1"/><stop offset=".5725" stop-color="#EFE2DD"/><stop offset="1" stop-color="#CDBFBA"/></linearGradient><linearGradient id="paint5_linear" x1="58.1161" y1="56.3961" x2="135.397" y2="60.3651" gradientUnits="userSpaceOnUse"><stop stop-color="#FE646F"/><stop offset=".5725" stop-color="#FB2B3A"/><stop offset="1" stop-color="#C41926"/></linearGradient><linearGradient id="paint6_linear" x1="58.1161" y1="56.3962" x2="135.397" y2="60.3652" gradientUnits="userSpaceOnUse"><stop stop-color="#FE646F"/><stop offset=".5725" stop-color="#FB2B3A"/><stop offset="1" stop-color="#C41926"/></linearGradient><linearGradient id="paint7_linear" x1="55.7872" y1="95.3929" x2="133.06" y2="99.3615" gradientUnits="userSpaceOnUse"><stop stop-color="#537983"/><stop offset="1" stop-color="#3E5959"/></linearGradient><linearGradient id="paint8_linear" x1="54.6217" y1="118.079" x2="131.894" y2="122.048" gradientUnits="userSpaceOnUse"><stop stop-color="#537983"/><stop offset="1" stop-color="#3E5959"/></linearGradient><linearGradient id="paint9_linear" x1="53.4566" y1="140.765" x2="130.729" y2="144.734" gradientUnits="userSpaceOnUse"><stop stop-color="#537983"/><stop offset="1" stop-color="#3E5959"/></linearGradient><clipPath id="clip0"><path fill="#fff" transform="rotate(2.94 -353.32818263 541.1301124)" d="M0 0h152.073v152.073H0z"/></clipPath><filter id="filter0_d" x="-1.51025" y="18.8345" width="201.673" height="204.673" filterUnits="userSpaceOnUse" color-interpolation-filters="sRGB"><feFlood flood-opacity="0" result="BackgroundImageFix"/><feColorMatrix in="SourceAlpha" values="0 0 0 0 0 0 0 0 0 0 0 0 0 0 0 0 0 0 127 0"/><feOffset dy="24"/><feGaussianBlur stdDeviation="10.5"/><feColorMatrix values="0 0 0 0 0 0 0 0 0 0 0 0 0 0 0 0 0 0 0.09 0"/><feBlend in2="BackgroundImageFix" result="effect1_dropShadow"/><feBlend in="SourceGraphic" in2="effect1_dropShadow" result="shape"/></filter></defs></svg>