<svg width="80" height="80" viewBox="0 0 80 80" fill="none" xmlns="http://www.w3.org/2000/svg">
<path d="M60.8937 37.6562V37.8563H61.0938H77.6562C78.8402 37.8563 79.8 38.8161 79.8 40V77.6562C79.8 78.8402 78.8402 79.8 77.6562 79.8H2.34375C1.15983 79.8 0.2 78.8402 0.2 77.6562V40C0.2 38.8161 1.15983 37.8563 2.34375 37.8563H18.9062H19.1063V37.6562V2.34375C19.1063 1.15983 20.0661 0.2 21.25 0.2H58.75C59.9339 0.2 60.8937 1.15983 60.8937 2.34375V37.6562ZM23.5938 4.4875H23.3937V4.6875V37.6562V37.8563H23.5938H56.4062H56.6063V37.6562V4.6875V4.4875H56.4062H23.5938ZM4.6875 42.1437H4.4875V42.3438V75.3125V75.5125H4.6875H37.6562H37.8563V75.3125V42.3438V42.1437H37.6562H4.6875ZM75.3125 75.5125H75.5125V75.3125V42.3438V42.1437H75.3125H42.3438H42.1437V42.3438V75.3125V75.5125H42.3438H75.3125Z" fill="#8482FF" stroke="white" stroke-width="0.4"/>
<path d="M45.7063 28.0813L45.7616 28.1918L47.4575 31.5837C47.7773 32.2232 48.2529 32.5709 48.7613 32.7051C49.2746 32.8407 49.836 32.7622 50.3231 32.5201C50.8101 32.278 51.2105 31.8784 51.4101 31.3875C51.6078 30.9013 51.6148 30.3111 51.2924 29.6662L41.9174 10.9162L42.0963 10.8267L41.9174 10.9162C41.1247 9.33049 38.8631 9.35513 38.0825 10.9162L28.7075 29.6662M45.7063 28.0813L28.7075 29.6662M45.7063 28.0813H45.5827M45.7063 28.0813H45.5827M28.7075 29.6662C28.3856 30.3101 28.3921 30.9013 28.5893 31.3891C28.7885 31.8816 29.1882 32.283 29.6744 32.5264C30.1606 32.7698 30.7213 32.849 31.2347 32.713C31.7431 32.5782 32.22 32.2286 32.5424 31.5837L32.7213 31.6731M28.7075 29.6662L32.7213 31.6731M32.7213 31.6731L32.5424 31.5837L34.2385 28.1918L34.2938 28.0813H34.4174H45.5827M32.7213 31.6731L45.5827 28.0813M36.5823 23.5043L36.4376 23.7938H36.7612H43.239H43.5626L43.4179 23.5043L40.179 17.0264L40.0001 16.6686L39.8212 17.0264L36.5823 23.5043Z" fill="#8482FF" stroke="white" stroke-width="0.4"/>
<path d="M28.68 58.6165L28.5603 58.75L28.68 58.8835C29.7643 60.0934 30.425 61.6894 30.425 63.4375C30.425 67.2041 27.3603 70.2687 23.5938 70.2687H14.2188C13.0348 70.2687 12.075 69.3089 12.075 68.125V49.375C12.075 48.1911 13.0348 47.2313 14.2188 47.2313H23.5938C27.3603 47.2313 30.425 50.2959 30.425 54.0625C30.425 55.8106 29.7645 57.4066 28.68 58.6165ZM16.5625 51.5188H16.3625V51.7188V56.4062V56.6062H16.5625H23.5938C24.9966 56.6062 26.1375 55.4653 26.1375 54.0625C26.1375 52.6597 24.9966 51.5188 23.5938 51.5188H16.5625ZM16.3625 65.7812V65.9813H16.5625H23.5938C24.9966 65.9813 26.1375 64.8403 26.1375 63.4375C26.1375 62.0347 24.9966 60.8938 23.5938 60.8938H16.5625H16.3625V61.0938V65.7812Z" fill="#8482FF" stroke="white" stroke-width="0.4"/>
<path d="M63.8633 53.6367L63.8633 53.6367C62.4977 52.2712 60.6812 51.5188 58.75 51.5188C54.7625 51.5188 51.5187 54.7625 51.5187 58.75C51.5187 62.7375 54.7625 65.9813 58.75 65.9813C60.6812 65.9813 62.4977 65.2288 63.8633 63.8633L63.7219 63.7219L63.8633 63.8633C64.3732 63.3535 64.9362 63.1726 65.4611 63.2056C65.9911 63.2388 66.4979 63.4913 66.8822 63.876C67.2665 64.2607 67.5187 64.7679 67.5518 65.2981C67.5847 65.8232 67.404 66.386 66.895 66.895C64.719 69.0709 61.8271 70.2687 58.75 70.2687C52.3987 70.2687 47.2313 65.1013 47.2313 58.75C47.2313 52.3987 52.3987 47.2313 58.75 47.2313C61.8271 47.2313 64.719 48.4291 66.895 50.605L67.0364 50.4636L66.895 50.605C67.4048 51.1148 67.5856 51.6778 67.5527 52.2027C67.5194 52.7327 67.2669 53.2396 66.8823 53.6239C66.4976 54.0082 65.9904 54.2604 65.4602 54.2936C64.9351 54.3265 64.3723 54.1457 63.8633 53.6367Z" fill="#8482FF" stroke="white" stroke-width="0.4"/>
</svg>
