<svg width="80" height="80" fill="none" xmlns="http://www.w3.org/2000/svg"><path d="M60.8937 37.6562v.2001h16.7625c1.184 0 2.1438.9598 2.1438 2.1437v37.6562c0 1.184-.9598 2.1438-2.1438 2.1438H2.34375C1.15983 79.8.2 78.8402.2 77.6562V40c0-1.1839.95983-2.1437 2.14375-2.1437H19.1063V2.34375C19.1063 1.15983 20.0661.2 21.25.2h37.5c1.1839 0 2.1437.95983 2.1437 2.14375V37.6562zM23.5938 4.4875h-.2001v33.3688H56.6063V4.4875H23.5938zM4.6875 42.1437h-.2v33.3688h33.3688V42.1437H4.6875zm70.625 33.3688h.2V42.1437H42.1437v33.3688h33.1688z" fill="#8482FF" stroke="#fff" stroke-width=".4"/><path d="M45.7063 28.0813l.0553.1105 1.6959 3.3919c.3198.6395.7954.9872 1.3038 1.1214.5133.1356 1.0747.0571 1.5618-.185.487-.2421.8874-.6417 1.087-1.1326.1977-.4862.2047-1.0764-.1177-1.7213l-9.375-18.75.1789-.0895-.1789.0895c-.7927-1.58571-3.0543-1.56107-3.8349 0l-9.375 18.75m16.9988-1.5849l-16.9988 1.5849m16.9988-1.5849h-.1236m.1236 0h-.1236m-16.8752 1.5849c-.3219.6439-.3154 1.2351-.1182 1.7229.1992.4925.5989.8939 1.0851 1.1373.4862.2434 1.0469.3226 1.5603.1866.5084-.1348.9853-.4844 1.3077-1.1293l.1789.0894m-4.0138-2.0069l4.0138 2.0069m0 0l-.1789-.0894 1.6961-3.3919.0553-.1105h11.2889m-12.8614 3.5918l12.8614-3.5918m-9.0004-4.577l-.1447.2895h7.125l-.1447-.2895-3.2389-6.4779-.1789-.3578-.1789.3578-3.2389 6.4779zM28.68 58.6165l-.1197.1335.1197.1335c1.0843 1.2099 1.745 2.8059 1.745 4.554 0 3.7666-3.0647 6.8312-6.8312 6.8312h-9.375c-1.184 0-2.1438-.9598-2.1438-2.1437v-18.75c0-1.1839.9598-2.1437 2.1438-2.1437h9.375c3.7665 0 6.8312 3.0646 6.8312 6.8312 0 1.7481-.6605 3.3441-1.745 4.554zm-12.1175-7.0977h-.2V56.6062h7.2313c1.4028 0 2.5437-1.1409 2.5437-2.5437 0-1.4028-1.1409-2.5437-2.5437-2.5437h-7.0313zm-.2 14.2624v.2001h7.2313c1.4028 0 2.5437-1.141 2.5437-2.5438s-1.1409-2.5437-2.5437-2.5437h-7.2313v4.8874zM63.8633 53.6367h0c-1.3656-1.3655-3.1821-2.1179-5.1133-2.1179-3.9875 0-7.2313 3.2437-7.2313 7.2312 0 3.9875 3.2438 7.2313 7.2313 7.2313 1.9312 0 3.7477-.7525 5.1133-2.118l-.1414-.1414.1414.1414c.5099-.5098 1.0729-.6907 1.5978-.6577.53.0332 1.0368.2857 1.4211.6704.3843.3847.6365.8919.6696 1.4221.0329.5251-.1478 1.0879-.6568 1.5969-2.176 2.1759-5.0679 3.3737-8.145 3.3737-6.3513 0-11.5187-5.1674-11.5187-11.5187 0-6.3513 5.1674-11.5187 11.5187-11.5187 3.0771 0 5.969 1.1978 8.145 3.3737l.1414-.1414-.1414.1414c.5098.5098.6906 1.0728.6577 1.5977-.0333.53-.2858 1.0369-.6704 1.4212-.3847.3843-.8919.6365-1.4221.6697-.5251.0329-1.0879-.1479-1.5969-.6569z" fill="#8482FF" stroke="#fff" stroke-width=".4"/></svg>