<svg width="187" height="187" viewBox="0 0 187 187" fill="none" xmlns="http://www.w3.org/2000/svg">
<g clip-path="url(#clip0)">
<path d="M160.739 122.783L126.147 132.052L97.6089 25.5454C95.962 19.399 99.6094 13.0814 105.756 11.4345L118.09 8.12965C124.236 6.48273 130.554 10.1302 132.201 16.2766L160.739 122.783L160.739 122.783Z" fill="url(#paint0_linear)"/>
<path d="M118.09 8.12873L106.563 11.2173C112.71 9.57036 119.027 13.2178 120.674 19.3642L149.212 125.87L160.739 122.782L132.201 16.2756C130.554 10.1292 124.236 6.48181 118.09 8.12873V8.12873Z" fill="url(#paint1_linear)"/>
<path d="M83.7847 143.401L49.1926 152.67L20.6543 46.164C19.0074 40.0177 22.6551 33.7 28.8013 32.0532L41.1352 28.7483C47.2816 27.1014 53.5992 30.7488 55.2461 36.8952L83.7844 143.401L83.7847 143.401Z" fill="url(#paint2_linear)"/>
<path d="M41.1355 28.7482L29.6089 31.8368C35.7553 30.1899 42.0728 33.8373 43.7197 39.9837L45.6892 47.3337C33.6942 56.8496 27.8194 72.9043 32.0346 88.6358L49.1926 152.67L72.258 146.49L83.7847 143.401L56.4211 41.2791L55.2464 36.8951C53.5995 30.7487 47.2819 27.1013 41.1355 28.7482V28.7482Z" fill="url(#paint3_linear)"/>
<path d="M81.1787 48.95C74.5101 50.7369 67.6312 46.7651 65.8444 40.0965C64.0575 33.4279 68.0287 26.5488 74.6975 24.7619C81.3664 22.975 88.2452 26.9465 90.0321 33.6151C91.8189 40.2837 87.8473 47.1632 81.1787 48.95ZM76.6269 31.9625C73.9287 32.6855 72.3219 35.4686 73.0448 38.1668C73.7678 40.865 76.5511 42.4722 79.2492 41.7492C81.9474 41.0262 83.5545 38.2427 82.8315 35.5445C82.1086 32.8463 79.3251 31.2395 76.6269 31.9625Z" fill="url(#paint4_linear)"/>
<path d="M159.06 150.474L64.4934 175.813L40.5247 86.3609C34.8623 65.2284 47.4032 43.5069 68.5357 37.8444L86.5745 33.0109C107.707 27.3485 129.429 39.8895 135.091 61.0219L159.06 150.474Z" fill="url(#paint5_linear)"/>
<path d="M86.5745 33.0106L75.0479 36.0991C96.1803 30.4367 117.902 42.9777 123.564 64.1101L147.533 153.563L159.06 150.474L135.091 61.0219C129.429 39.8891 107.707 27.3481 86.5745 33.0106Z" fill="url(#paint6_linear)"/>
<path d="M74.7886 169.114L44.3626 177.267C40.4872 178.305 36.504 176.005 35.4656 172.13L29.5828 150.175C27.5016 142.408 32.1112 134.424 39.8783 132.343L63.2573 126.079L74.7886 169.114Z" fill="url(#paint7_linear)"/>
<path d="M63.2571 126.078L52.2371 129.031C46.3254 130.615 41.8399 135.523 40.946 141.577C40.3869 145.365 40.5758 149.327 41.6299 153.261L46.7079 172.212C47.0976 173.667 47.7393 174.986 48.5703 176.139L74.7884 169.114L63.2571 126.078Z" fill="url(#paint8_linear)"/>
<path d="M146.794 149.82L177.22 141.667C181.095 140.629 183.395 136.646 182.357 132.77L176.474 110.816C174.393 103.048 166.409 98.439 158.642 100.52L135.263 106.785L146.794 149.82Z" fill="url(#paint9_linear)"/>
<path d="M158.642 100.52L151.438 102.45C159.206 100.369 167.189 104.979 169.27 112.746L175.153 134.701C176.192 138.576 173.892 142.559 170.017 143.598L177.22 141.667C181.096 140.629 183.395 136.646 182.357 132.77L176.474 110.815C174.393 103.048 166.409 98.4388 158.642 100.52Z" fill="url(#paint10_linear)"/>
<path d="M156.934 155.158L68.6758 178.806C62.2448 180.529 55.6347 176.713 53.9115 170.282L48.8335 151.331C44.7023 135.913 53.852 120.065 69.2698 115.934L124.983 101.006C140.401 96.8744 156.248 106.024 160.38 121.442L165.458 140.394C167.181 146.824 163.365 153.434 156.934 155.158Z" fill="url(#paint11_linear)"/>
<path d="M124.983 101.006L113.456 104.094C128.874 99.963 144.722 109.113 148.853 124.531L153.931 143.482C155.655 149.913 151.838 156.523 145.407 158.246L156.934 155.158C163.365 153.435 167.181 146.824 165.458 140.394L160.38 121.442C156.249 106.024 140.401 96.8744 124.983 101.006Z" fill="url(#paint12_linear)"/>
<path d="M133.628 123.151L72.8558 139.435C70.8673 139.967 68.8237 138.788 68.2909 136.799C67.758 134.811 68.9379 132.767 70.9264 132.234L131.699 115.95C133.688 115.417 135.731 116.597 136.264 118.586C136.797 120.574 135.617 122.618 133.628 123.151Z" fill="url(#paint13_linear)"/>
<path d="M110.13 85.3195L74.2899 94.9229C72.3014 95.4557 70.2578 94.2758 69.7249 92.2873C69.1921 90.2988 70.372 88.2551 72.3605 87.7223L108.201 78.119C110.189 77.5862 112.233 78.7661 112.766 80.7546C113.299 82.7427 112.118 84.7867 110.13 85.3195Z" fill="url(#paint14_linear)"/>
<path d="M70.9195 151.616C72.8879 152.752 75.2296 152.93 77.3869 152.076C78.6199 151.587 79.7027 150.763 80.5051 149.707C83.2567 146.085 82.14 140.985 78.3278 138.784L74.9059 136.808C73.2526 135.854 71.1382 136.42 70.1838 138.074L68.2082 141.496C66.1654 145.033 67.3818 149.573 70.9195 151.616Z" fill="url(#paint15_linear)"/>
<path d="M80.5048 149.708C80.1887 150.123 79.8277 150.502 79.4326 150.84C79.531 149.858 79.4581 148.843 79.1876 147.833C77.988 143.356 73.3865 140.7 68.9098 141.899C68.5336 142 68.1715 142.127 67.8222 142.274C67.9357 142.011 68.0607 141.75 68.2075 141.496L70.1831 138.074C71.1376 136.421 73.252 135.854 74.9052 136.809L78.3271 138.784C82.1397 140.985 83.2562 146.085 80.5048 149.708Z" fill="url(#paint16_linear)"/>
<path d="M47.2282 78.8087C45.9916 78.7746 44.9655 79.7493 44.9324 80.9841C44.8458 84.1887 45.2223 87.3808 46.0507 90.4721C46.3704 91.6654 47.5964 92.3732 48.7896 92.0535C49.9829 91.7337 50.6907 90.5078 50.371 89.3145C49.6543 86.6399 49.3288 83.8775 49.4035 81.1045C49.437 79.87 48.463 78.8421 47.2282 78.8087Z" fill="url(#paint17_linear)"/>
<path d="M53.0704 59.0731C51.1121 61.6161 49.4706 64.3344 48.192 67.1525C47.6814 68.2772 48.1796 69.6029 49.3043 70.1134C49.7948 70.3358 50.3235 70.3667 50.8062 70.2373C51.4301 70.0702 51.977 69.6353 52.2652 69.0012C53.4022 66.4955 54.8657 64.0736 56.6146 61.8022C57.3679 60.8233 57.1855 59.4192 56.207 58.6657C55.2284 57.9123 53.8239 58.0948 53.0704 59.0731Z" fill="url(#paint18_linear)"/>
<path d="M71.3957 44.8003C68.5303 46.0885 65.7932 47.6385 63.26 49.407C62.247 50.114 61.9995 51.508 62.7067 52.5206C63.2604 53.3141 64.2356 53.6378 65.1192 53.401C65.3638 53.3355 65.6011 53.2268 65.8206 53.0738C68.1252 51.4648 70.618 50.0538 73.2299 48.8795C74.3564 48.373 74.859 47.0492 74.3524 45.9226C73.8463 44.7963 72.5227 44.2946 71.3957 44.8003Z" fill="url(#paint19_linear)"/>
<path d="M107.93 42.669C106.761 42.2727 105.491 42.8997 105.095 44.0693C104.698 45.2391 105.326 46.5089 106.495 46.9049C109.212 47.8254 111.783 49.0224 114.137 50.4627C114.681 50.796 115.312 50.8684 115.883 50.7153C116.418 50.5721 116.9 50.2314 117.212 49.7225C117.856 48.669 117.525 47.2924 116.471 46.6477C113.835 45.0343 110.961 43.6956 107.93 42.669Z" fill="url(#paint20_linear)"/>
<path d="M131.496 64.5971C130.409 61.6077 128.889 58.7776 126.979 56.1853C126.246 55.1913 124.845 54.9797 123.851 55.7122C122.857 56.4452 122.645 57.8452 123.378 58.8395C125.035 61.0868 126.352 63.5382 127.292 66.1252C127.691 67.2236 128.862 67.8191 129.97 67.5221C130.033 67.5053 130.096 67.4858 130.158 67.4632C131.319 67.0407 131.918 65.7581 131.496 64.5971Z" fill="url(#paint21_linear)"/>
<path d="M94.1131 40.2257C91.0262 40.1372 87.8895 40.3387 84.7897 40.8245C83.5674 41.0177 82.7353 42.16 82.9265 43.3803C83.1178 44.6002 84.2619 45.4343 85.4823 45.2435C88.3112 44.8 91.1721 44.616 93.9852 44.6963C94.2083 44.7029 94.424 44.6763 94.6288 44.6214C95.5588 44.3722 96.2554 43.5364 96.2845 42.525C96.3198 41.2903 95.3476 40.2611 94.1131 40.2257Z" fill="url(#paint22_linear)"/>
<path d="M110.101 43.4668C112.566 45.4426 114.803 47.7203 116.752 50.2603C116.928 50.1112 117.084 49.9306 117.211 49.7238C117.857 48.6678 117.526 47.2933 116.472 46.6463C114.472 45.4257 112.337 44.3586 110.101 43.4668Z" fill="url(#paint23_linear)"/>
<path d="M131.496 64.5966C130.409 61.6072 128.889 58.7771 126.979 56.1848C126.246 55.1908 124.845 54.9792 123.851 55.7117C122.857 56.4448 122.645 57.8447 123.378 58.839C125.035 61.0864 126.352 63.5378 127.292 66.1247C127.691 67.2232 128.862 67.8186 129.97 67.5217C130.033 67.5048 130.096 67.4853 130.158 67.4627C131.319 67.0403 131.918 65.7576 131.496 64.5966Z" fill="url(#paint24_linear)"/>
</g>
<defs>
<linearGradient id="paint0_linear" x1="98.9987" y1="76.2856" x2="162.402" y2="59.2968" gradientUnits="userSpaceOnUse">
<stop stop-color="#FFE177"/>
<stop offset="0.5725" stop-color="#FEB137"/>
<stop offset="1" stop-color="#FE646F"/>
</linearGradient>
<linearGradient id="paint1_linear" x1="75.6687" y1="82.536" x2="155.176" y2="61.2321" gradientUnits="userSpaceOnUse">
<stop stop-color="#FFE177"/>
<stop offset="0.5725" stop-color="#FEB137"/>
<stop offset="1" stop-color="#FE646F"/>
</linearGradient>
<linearGradient id="paint2_linear" x1="28.721" y1="95.1152" x2="68.5723" y2="84.437" gradientUnits="userSpaceOnUse">
<stop stop-color="#FFE177"/>
<stop offset="0.5725" stop-color="#FEB137"/>
<stop offset="1" stop-color="#FE646F"/>
</linearGradient>
<linearGradient id="paint3_linear" x1="-11.6021" y1="105.92" x2="78.3357" y2="81.821" gradientUnits="userSpaceOnUse">
<stop stop-color="#FFE177"/>
<stop offset="0.5725" stop-color="#FEB137"/>
<stop offset="1" stop-color="#FE646F"/>
</linearGradient>
<linearGradient id="paint4_linear" x1="65.8441" y1="40.0966" x2="90.0322" y2="33.6154" gradientUnits="userSpaceOnUse">
<stop stop-color="#FDB4BA"/>
<stop offset="0.5725" stop-color="#BD80E1"/>
<stop offset="1" stop-color="#9857BD"/>
</linearGradient>
<linearGradient id="paint5_linear" x1="38.0752" y1="114.449" x2="156.427" y2="82.7369" gradientUnits="userSpaceOnUse">
<stop stop-color="#FFE177"/>
<stop offset="0.5725" stop-color="#FEB137"/>
<stop offset="1" stop-color="#FE646F"/>
</linearGradient>
<linearGradient id="paint6_linear" x1="40.3947" y1="113.827" x2="142.529" y2="86.4607" gradientUnits="userSpaceOnUse">
<stop stop-color="#FFE177"/>
<stop offset="0.5725" stop-color="#FEB137"/>
<stop offset="1" stop-color="#FE646F"/>
</linearGradient>
<linearGradient id="paint7_linear" x1="31.1541" y1="157.743" x2="83.128" y2="143.817" gradientUnits="userSpaceOnUse">
<stop stop-color="#FDB4BA"/>
<stop offset="0.5725" stop-color="#BD80E1"/>
<stop offset="1" stop-color="#9857BD"/>
</linearGradient>
<linearGradient id="paint8_linear" x1="22.9392" y1="159.944" x2="70.246" y2="147.269" gradientUnits="userSpaceOnUse">
<stop stop-color="#FDB4BA"/>
<stop offset="0.5725" stop-color="#BD80E1"/>
<stop offset="1" stop-color="#9857BD"/>
</linearGradient>
<linearGradient id="paint9_linear" x1="140.74" y1="128.379" x2="181.433" y2="117.476" gradientUnits="userSpaceOnUse">
<stop stop-color="#FDB4BA"/>
<stop offset="0.5725" stop-color="#BD80E1"/>
<stop offset="1" stop-color="#9857BD"/>
</linearGradient>
<linearGradient id="paint10_linear" x1="124.899" y1="132.624" x2="179.353" y2="118.033" gradientUnits="userSpaceOnUse">
<stop stop-color="#FDB4BA"/>
<stop offset="0.5725" stop-color="#BD80E1"/>
<stop offset="1" stop-color="#9857BD"/>
</linearGradient>
<linearGradient id="paint11_linear" x1="43.7825" y1="154.12" x2="177.213" y2="118.367" gradientUnits="userSpaceOnUse">
<stop stop-color="#FDB4BA"/>
<stop offset="0.5725" stop-color="#BD80E1"/>
<stop offset="1" stop-color="#9857BD"/>
</linearGradient>
<linearGradient id="paint12_linear" x1="64.5191" y1="148.564" x2="149.758" y2="125.724" gradientUnits="userSpaceOnUse">
<stop stop-color="#FDB4BA"/>
<stop offset="0.5725" stop-color="#BD80E1"/>
<stop offset="1" stop-color="#9857BD"/>
</linearGradient>
<linearGradient id="paint13_linear" x1="68.2909" y1="136.799" x2="136.264" y2="118.586" gradientUnits="userSpaceOnUse">
<stop stop-color="#F9F3F1"/>
<stop offset="0.5725" stop-color="#EFE2DD"/>
<stop offset="1" stop-color="#CDBFBA"/>
</linearGradient>
<linearGradient id="paint14_linear" x1="69.7249" y1="92.2873" x2="112.766" y2="80.7545" gradientUnits="userSpaceOnUse">
<stop stop-color="#537983"/>
<stop offset="1" stop-color="#3E5959"/>
</linearGradient>
<linearGradient id="paint15_linear" x1="66.0967" y1="146.637" x2="83.325" y2="142.021" gradientUnits="userSpaceOnUse">
<stop stop-color="#FFE177"/>
<stop offset="0.5725" stop-color="#FEB137"/>
<stop offset="1" stop-color="#FE646F"/>
</linearGradient>
<linearGradient id="paint16_linear" x1="57.4216" y1="148.591" x2="84.2687" y2="141.397" gradientUnits="userSpaceOnUse">
<stop stop-color="#FFE177"/>
<stop offset="0.5725" stop-color="#FEB137"/>
<stop offset="1" stop-color="#FE646F"/>
</linearGradient>
<linearGradient id="paint17_linear" x1="43.6134" y1="86.5604" x2="126.194" y2="64.433" gradientUnits="userSpaceOnUse">
<stop stop-color="#537983"/>
<stop offset="1" stop-color="#3E5959"/>
</linearGradient>
<linearGradient id="paint18_linear" x1="38.6351" y1="67.9818" x2="121.216" y2="45.8544" gradientUnits="userSpaceOnUse">
<stop stop-color="#537983"/>
<stop offset="1" stop-color="#3E5959"/>
</linearGradient>
<linearGradient id="paint19_linear" x1="35.8954" y1="57.7571" x2="118.476" y2="35.6297" gradientUnits="userSpaceOnUse">
<stop stop-color="#537983"/>
<stop offset="1" stop-color="#3E5959"/>
</linearGradient>
<linearGradient id="paint20_linear" x1="38.1724" y1="66.2547" x2="120.753" y2="44.1273" gradientUnits="userSpaceOnUse">
<stop stop-color="#537983"/>
<stop offset="1" stop-color="#3E5959"/>
</linearGradient>
<linearGradient id="paint21_linear" x1="42.9374" y1="84.0375" x2="125.518" y2="61.9101" gradientUnits="userSpaceOnUse">
<stop stop-color="#537983"/>
<stop offset="1" stop-color="#3E5959"/>
</linearGradient>
<linearGradient id="paint22_linear" x1="35.7402" y1="57.1774" x2="118.321" y2="35.05" gradientUnits="userSpaceOnUse">
<stop stop-color="#537983"/>
<stop offset="1" stop-color="#3E5959"/>
</linearGradient>
<linearGradient id="paint23_linear" x1="80.694" y1="55.6342" x2="112.982" y2="46.9827" gradientUnits="userSpaceOnUse">
<stop stop-color="#537983"/>
<stop offset="1" stop-color="#384949"/>
</linearGradient>
<linearGradient id="paint24_linear" x1="90.749" y1="71.2259" x2="126.122" y2="61.7478" gradientUnits="userSpaceOnUse">
<stop stop-color="#537983"/>
<stop offset="1" stop-color="#384949"/>
</linearGradient>
<clipPath id="clip0">
<rect width="152.073" height="152.073" fill="white" transform="translate(0 39.7705) rotate(-15)"/>
</clipPath>
</defs>
</svg>
