<svg width="187" height="187" fill="none" xmlns="http://www.w3.org/2000/svg"><g clip-path="url(#clip0)"><path d="M160.739 122.783l-34.592 9.269L97.6089 25.5454c-1.6469-6.1464 2.0005-12.464 8.1471-14.1109l12.334-3.30485c6.146-1.64692 12.464 2.00055 14.111 8.14695l28.538 106.5064z" fill="url(#paint0_linear)"/><path d="M118.09 8.12873l-11.527 3.08857c6.147-1.64694 12.464 2.0005 14.111 8.1469L149.212 125.87l11.527-3.088-28.538-106.5064c-1.647-6.1464-7.965-9.79379-14.111-8.14687z" fill="url(#paint1_linear)"/><path d="M83.7847 143.401l-34.5921 9.269L20.6543 46.164c-1.6469-6.1463 2.0008-12.464 8.147-14.1108l12.3339-3.3049c6.1464-1.6469 12.464 2.0005 14.1109 8.1469L83.7844 143.401h.0003z" fill="url(#paint2_linear)"/><path d="M41.1355 28.7482l-11.5266 3.0886c6.1464-1.6469 12.4639 2.0005 14.1108 8.1469l1.9695 7.35c-11.995 9.5159-17.8698 25.5706-13.6546 41.3021l17.158 64.0342 23.0654-6.18 11.5267-3.089L56.4211 41.2791l-1.1747-4.384c-1.6469-6.1464-7.9645-9.7938-14.1109-8.1469z" fill="url(#paint3_linear)"/><path d="M81.1787 48.95c-6.6686 1.7869-13.5475-2.1849-15.3343-8.8535-1.7869-6.6686 2.1843-13.5477 8.8531-15.3346 6.6689-1.7869 13.5477 2.1846 15.3346 8.8532 1.7868 6.6686-2.1848 13.5481-8.8534 15.3349zm-4.5518-16.9875c-2.6982.723-4.305 3.5061-3.5821 6.2043.723 2.6982 3.5063 4.3054 6.2044 3.5824 2.6982-.723 4.3053-3.5065 3.5823-6.2047-.7229-2.6982-3.5064-4.305-6.2046-3.582z" fill="url(#paint4_linear)"/><path d="M159.06 150.474l-94.5666 25.339-23.9687-89.4521c-5.6624-21.1325 6.8785-42.854 28.011-48.5165l18.0388-4.8335c21.1325-5.6624 42.8545 6.8786 48.5165 28.011l23.969 89.4521z" fill="url(#paint5_linear)"/><path d="M86.5745 33.0106l-11.5266 3.0885c21.1324-5.6624 42.8541 6.8786 48.5161 28.011l23.969 89.4529 11.527-3.089-23.969-89.4521c-5.662-21.1328-27.384-33.6738-48.5165-28.0113z" fill="url(#paint6_linear)"/><path d="M74.7886 169.114l-30.426 8.153c-3.8754 1.038-7.8586-1.262-8.897-5.137l-5.8828-21.955c-2.0812-7.767 2.5284-15.751 10.2955-17.832l23.379-6.264 11.5313 43.035z" fill="url(#paint7_linear)"/><path d="M63.2571 126.078l-11.02 2.953c-5.9117 1.584-10.3972 6.492-11.2911 12.546-.5591 3.788-.3702 7.75.6839 11.684l5.078 18.951c.3897 1.455 1.0314 2.774 1.8624 3.927l26.2181-7.025-11.5313-43.036z" fill="url(#paint8_linear)"/><path d="M146.794 149.82l30.426-8.153c3.875-1.038 6.175-5.021 5.137-8.897l-5.883-21.954c-2.081-7.768-10.065-12.377-17.832-10.296l-23.379 6.265 11.531 43.035z" fill="url(#paint9_linear)"/><path d="M158.642 100.52l-7.204 1.93c7.768-2.081 15.751 2.529 17.832 10.296l5.883 21.955c1.039 3.875-1.261 7.858-5.136 8.897l7.203-1.931c3.876-1.038 6.175-5.021 5.137-8.897l-5.883-21.955c-2.081-7.767-10.065-12.3762-17.832-10.295z" fill="url(#paint10_linear)"/><path d="M156.934 155.158l-88.2582 23.648c-6.431 1.723-13.0411-2.093-14.7643-8.524l-5.078-18.951c-4.1312-15.418 5.0185-31.266 20.4363-35.397l55.7132-14.928c15.418-4.1316 31.265 5.018 35.397 20.436l5.078 18.952c1.723 6.43-2.093 13.04-8.524 14.764z" fill="url(#paint11_linear)"/><path d="M124.983 101.006l-11.527 3.088c15.418-4.131 31.266 5.019 35.397 20.437l5.078 18.951c1.724 6.431-2.093 13.041-8.524 14.764l11.527-3.088c6.431-1.723 10.247-8.334 8.524-14.764l-5.078-18.952c-4.131-15.418-19.979-24.5676-35.397-20.436z" fill="url(#paint12_linear)"/><path d="M133.628 123.151l-60.7722 16.284c-1.9885.532-4.0321-.647-4.5649-2.636-.5329-1.988.647-4.032 2.6355-4.565l60.7726-16.284c1.989-.533 4.032.647 4.565 2.636.533 1.988-.647 4.032-2.636 4.565z" fill="url(#paint13_linear)"/><path d="M110.13 85.3195l-35.8401 9.6034c-1.9885.5328-4.0321-.6471-4.565-2.6356-.5328-1.9885.6471-4.0322 2.6356-4.565l35.8405-9.6033c1.988-.5328 4.032.6471 4.565 2.6356.533 1.9881-.648 4.0321-2.636 4.5649z" fill="url(#paint14_linear)"/><path d="M70.9195 151.616c1.9684 1.136 4.3101 1.314 6.4674.46 1.233-.489 2.3158-1.313 3.1182-2.369 2.7516-3.622 1.6349-8.722-2.1773-10.923l-3.4219-1.976c-1.6533-.954-3.7677-.388-4.7221 1.266l-1.9756 3.422c-2.0428 3.537-.8264 8.077 2.7113 10.12z" fill="url(#paint15_linear)"/><path d="M80.5048 149.708c-.3161.415-.6771.794-1.0722 1.132.0984-.982.0255-1.997-.245-3.007-1.1996-4.477-5.8011-7.133-10.2778-5.934-.3762.101-.7383.228-1.0876.375.1135-.263.2385-.524.3853-.778l1.9756-3.422c.9545-1.653 3.0689-2.22 4.7221-1.265l3.4219 1.975c3.8126 2.201 4.9291 7.301 2.1777 10.924z" fill="url(#paint16_linear)"/><path d="M47.2282 78.8087c-1.2366-.0341-2.2627.9406-2.2958 2.1754-.0866 3.2046.2899 6.3967 1.1183 9.488.3197 1.1933 1.5457 1.9011 2.7389 1.5814 1.1933-.3198 1.9011-1.5457 1.5814-2.739-.7167-2.6746-1.0422-5.437-.9675-8.21.0335-1.2345-.9405-2.2624-2.1753-2.2958z" fill="url(#paint17_linear)"/><path d="M53.0704 59.0731c-1.9583 2.543-3.5998 5.2613-4.8784 8.0794-.5106 1.1247-.0124 2.4504 1.1123 2.9609.4905.2224 1.0192.2533 1.5019.1239.6239-.1671 1.1708-.602 1.459-1.2361 1.137-2.5057 2.6005-4.9276 4.3494-7.199.7533-.9789.5709-2.383-.4076-3.1365-.9786-.7534-2.3831-.5709-3.1366.4074z" fill="url(#paint18_linear)"/><path d="M71.3957 44.8003c-2.8654 1.2882-5.6025 2.8382-8.1357 4.6067-1.013.707-1.2605 2.101-.5533 3.1136.5537.7935 1.5289 1.1172 2.4125.8804.2446-.0655.4819-.1742.7014-.3272 2.3046-1.609 4.7974-3.02 7.4093-4.1943 1.1265-.5065 1.6291-1.8303 1.1225-2.9569-.5061-1.1263-1.8297-1.628-2.9567-1.1223z" fill="url(#paint19_linear)"/><path d="M107.93 42.669c-1.169-.3963-2.439.2307-2.835 1.4003-.397 1.1698.231 2.4396 1.4 2.8356 2.717.9205 5.288 2.1175 7.642 3.5578.544.3333 1.175.4057 1.746.2526.535-.1432 1.017-.4839 1.329-.9928.644-1.0535.313-2.4301-.741-3.0748-2.636-1.6134-5.51-2.9521-8.541-3.9787z" fill="url(#paint20_linear)"/><path d="M131.496 64.5971c-1.087-2.9894-2.607-5.8195-4.517-8.4118-.733-.994-2.134-1.2056-3.128-.4731-.994.733-1.206 2.133-.473 3.1273 1.657 2.2473 2.974 4.6987 3.914 7.2857.399 1.0984 1.57 1.6939 2.678 1.3969.063-.0168.126-.0363.188-.0589 1.161-.4225 1.76-1.7051 1.338-2.8661z" fill="url(#paint21_linear)"/><path d="M94.1131 40.2257c-3.0869-.0885-6.2236.113-9.3234.5988-1.2223.1932-2.0544 1.3355-1.8632 2.5558.1913 1.2199 1.3354 2.054 2.5558 1.8632 2.8289-.4435 5.6898-.6275 8.5029-.5472.2231.0066.4388-.02.6436-.0749.93-.2492 1.6266-1.085 1.6557-2.0964.0353-1.2347-.9369-2.2639-2.1714-2.2993z" fill="url(#paint22_linear)"/><path d="M110.101 43.4668c2.465 1.9758 4.702 4.2535 6.651 6.7935.176-.1491.332-.3297.459-.5365.646-1.056.315-2.4305-.739-3.0775-2-1.2206-4.135-2.2877-6.371-3.1795z" fill="url(#paint23_linear)"/><path d="M131.496 64.5966c-1.087-2.9894-2.607-5.8195-4.517-8.4118-.733-.994-2.134-1.2056-3.128-.4731-.994.7331-1.206 2.133-.473 3.1273 1.657 2.2474 2.974 4.6988 3.914 7.2857.399 1.0985 1.57 1.6939 2.678 1.397.063-.0169.126-.0364.188-.059 1.161-.4224 1.76-1.7051 1.338-2.8661z" fill="url(#paint24_linear)"/></g><defs><linearGradient id="paint0_linear" x1="98.9987" y1="76.2856" x2="162.402" y2="59.2968" gradientUnits="userSpaceOnUse"><stop stop-color="#FFE177"/><stop offset=".5725" stop-color="#FEB137"/><stop offset="1" stop-color="#FE646F"/></linearGradient><linearGradient id="paint1_linear" x1="75.6687" y1="82.536" x2="155.176" y2="61.2321" gradientUnits="userSpaceOnUse"><stop stop-color="#FFE177"/><stop offset=".5725" stop-color="#FEB137"/><stop offset="1" stop-color="#FE646F"/></linearGradient><linearGradient id="paint2_linear" x1="28.721" y1="95.1152" x2="68.5723" y2="84.437" gradientUnits="userSpaceOnUse"><stop stop-color="#FFE177"/><stop offset=".5725" stop-color="#FEB137"/><stop offset="1" stop-color="#FE646F"/></linearGradient><linearGradient id="paint3_linear" x1="-11.6021" y1="105.92" x2="78.3357" y2="81.821" gradientUnits="userSpaceOnUse"><stop stop-color="#FFE177"/><stop offset=".5725" stop-color="#FEB137"/><stop offset="1" stop-color="#FE646F"/></linearGradient><linearGradient id="paint4_linear" x1="65.8441" y1="40.0966" x2="90.0322" y2="33.6154" gradientUnits="userSpaceOnUse"><stop stop-color="#FDB4BA"/><stop offset=".5725" stop-color="#BD80E1"/><stop offset="1" stop-color="#9857BD"/></linearGradient><linearGradient id="paint5_linear" x1="38.0752" y1="114.449" x2="156.427" y2="82.7369" gradientUnits="userSpaceOnUse"><stop stop-color="#FFE177"/><stop offset=".5725" stop-color="#FEB137"/><stop offset="1" stop-color="#FE646F"/></linearGradient><linearGradient id="paint6_linear" x1="40.3947" y1="113.827" x2="142.529" y2="86.4607" gradientUnits="userSpaceOnUse"><stop stop-color="#FFE177"/><stop offset=".5725" stop-color="#FEB137"/><stop offset="1" stop-color="#FE646F"/></linearGradient><linearGradient id="paint7_linear" x1="31.1541" y1="157.743" x2="83.128" y2="143.817" gradientUnits="userSpaceOnUse"><stop stop-color="#FDB4BA"/><stop offset=".5725" stop-color="#BD80E1"/><stop offset="1" stop-color="#9857BD"/></linearGradient><linearGradient id="paint8_linear" x1="22.9392" y1="159.944" x2="70.246" y2="147.269" gradientUnits="userSpaceOnUse"><stop stop-color="#FDB4BA"/><stop offset=".5725" stop-color="#BD80E1"/><stop offset="1" stop-color="#9857BD"/></linearGradient><linearGradient id="paint9_linear" x1="140.74" y1="128.379" x2="181.433" y2="117.476" gradientUnits="userSpaceOnUse"><stop stop-color="#FDB4BA"/><stop offset=".5725" stop-color="#BD80E1"/><stop offset="1" stop-color="#9857BD"/></linearGradient><linearGradient id="paint10_linear" x1="124.899" y1="132.624" x2="179.353" y2="118.033" gradientUnits="userSpaceOnUse"><stop stop-color="#FDB4BA"/><stop offset=".5725" stop-color="#BD80E1"/><stop offset="1" stop-color="#9857BD"/></linearGradient><linearGradient id="paint11_linear" x1="43.7825" y1="154.12" x2="177.213" y2="118.367" gradientUnits="userSpaceOnUse"><stop stop-color="#FDB4BA"/><stop offset=".5725" stop-color="#BD80E1"/><stop offset="1" stop-color="#9857BD"/></linearGradient><linearGradient id="paint12_linear" x1="64.5191" y1="148.564" x2="149.758" y2="125.724" gradientUnits="userSpaceOnUse"><stop stop-color="#FDB4BA"/><stop offset=".5725" stop-color="#BD80E1"/><stop offset="1" stop-color="#9857BD"/></linearGradient><linearGradient id="paint13_linear" x1="68.2909" y1="136.799" x2="136.264" y2="118.586" gradientUnits="userSpaceOnUse"><stop stop-color="#F9F3F1"/><stop offset=".5725" stop-color="#EFE2DD"/><stop offset="1" stop-color="#CDBFBA"/></linearGradient><linearGradient id="paint14_linear" x1="69.7249" y1="92.2873" x2="112.766" y2="80.7545" gradientUnits="userSpaceOnUse"><stop stop-color="#537983"/><stop offset="1" stop-color="#3E5959"/></linearGradient><linearGradient id="paint15_linear" x1="66.0967" y1="146.637" x2="83.325" y2="142.021" gradientUnits="userSpaceOnUse"><stop stop-color="#FFE177"/><stop offset=".5725" stop-color="#FEB137"/><stop offset="1" stop-color="#FE646F"/></linearGradient><linearGradient id="paint16_linear" x1="57.4216" y1="148.591" x2="84.2687" y2="141.397" gradientUnits="userSpaceOnUse"><stop stop-color="#FFE177"/><stop offset=".5725" stop-color="#FEB137"/><stop offset="1" stop-color="#FE646F"/></linearGradient><linearGradient id="paint17_linear" x1="43.6134" y1="86.5604" x2="126.194" y2="64.433" gradientUnits="userSpaceOnUse"><stop stop-color="#537983"/><stop offset="1" stop-color="#3E5959"/></linearGradient><linearGradient id="paint18_linear" x1="38.6351" y1="67.9818" x2="121.216" y2="45.8544" gradientUnits="userSpaceOnUse"><stop stop-color="#537983"/><stop offset="1" stop-color="#3E5959"/></linearGradient><linearGradient id="paint19_linear" x1="35.8954" y1="57.7571" x2="118.476" y2="35.6297" gradientUnits="userSpaceOnUse"><stop stop-color="#537983"/><stop offset="1" stop-color="#3E5959"/></linearGradient><linearGradient id="paint20_linear" x1="38.1724" y1="66.2547" x2="120.753" y2="44.1273" gradientUnits="userSpaceOnUse"><stop stop-color="#537983"/><stop offset="1" stop-color="#3E5959"/></linearGradient><linearGradient id="paint21_linear" x1="42.9374" y1="84.0375" x2="125.518" y2="61.9101" gradientUnits="userSpaceOnUse"><stop stop-color="#537983"/><stop offset="1" stop-color="#3E5959"/></linearGradient><linearGradient id="paint22_linear" x1="35.7402" y1="57.1774" x2="118.321" y2="35.05" gradientUnits="userSpaceOnUse"><stop stop-color="#537983"/><stop offset="1" stop-color="#3E5959"/></linearGradient><linearGradient id="paint23_linear" x1="80.694" y1="55.6342" x2="112.982" y2="46.9827" gradientUnits="userSpaceOnUse"><stop stop-color="#537983"/><stop offset="1" stop-color="#384949"/></linearGradient><linearGradient id="paint24_linear" x1="90.749" y1="71.2259" x2="126.122" y2="61.7478" gradientUnits="userSpaceOnUse"><stop stop-color="#537983"/><stop offset="1" stop-color="#384949"/></linearGradient><clipPath id="clip0"><path fill="#fff" transform="rotate(-15 151.04346947 19.88525)" d="M0 0h152.073v152.073H0z"/></clipPath></defs></svg>