<svg width="34" height="27" viewBox="0 0 34 27" fill="none" xmlns="http://www.w3.org/2000/svg">
<path d="M26.2852 15.8466L27.8705 7.12782C27.9212 6.84861 27.91 6.56165 27.8377 6.28724C27.7653 6.01283 27.6336 5.75767 27.4517 5.53979C27.2699 5.32191 27.0424 5.14664 26.7854 5.02636C26.5283 4.90609 26.248 4.84375 25.9642 4.84375H5.65229L5.06087 1.59093C4.97988 1.14442 4.74466 0.74053 4.39626 0.449761C4.04786 0.158991 3.60841 -0.000190771 3.15461 1.7158e-07H0.96875C0.711821 1.7158e-07 0.465416 0.102065 0.28374 0.28374C0.102064 0.465416 0 0.711822 0 0.96875C0 1.22568 0.102064 1.47208 0.28374 1.65376C0.465416 1.83544 0.711821 1.9375 0.96875 1.9375H3.15449L6.38806 19.7216C6.41697 19.8789 6.46525 20.032 6.5318 20.1775C6.04812 20.5862 5.68859 21.1222 5.49394 21.7247C5.29929 22.3273 5.2773 22.9723 5.43047 23.5867C5.58364 24.2011 5.90584 24.7603 6.36056 25.201C6.81528 25.6417 7.38434 25.9461 8.00326 26.08C8.62217 26.2138 9.26619 26.1715 9.86234 25.9581C10.4585 25.7446 10.9829 25.3684 11.3762 24.8722C11.7695 24.3759 12.0159 23.7794 12.0876 23.1503C12.1592 22.5211 12.0532 21.8845 11.7816 21.3125H20.1872C19.8724 21.9763 19.7817 22.7243 19.9288 23.444C20.0759 24.1638 20.4527 24.8163 21.0027 25.3033C21.5527 25.7904 22.2459 26.0856 22.9782 26.1446C23.7104 26.2036 24.442 26.0231 25.0628 25.6304C25.6837 25.2377 26.1601 24.6539 26.4205 23.967C26.6809 23.2801 26.7112 22.5272 26.5067 21.8216C26.3022 21.116 25.8741 20.4959 25.2867 20.0547C24.6994 19.6134 23.9846 19.3749 23.25 19.375H8.29432L7.94193 17.4375H24.379C24.8328 17.4377 25.2722 17.2785 25.6206 16.9877C25.969 16.697 26.2042 16.2931 26.2852 15.8466ZM10.1719 22.7656C10.1719 23.053 10.0867 23.334 9.92698 23.5729C9.76731 23.8119 9.54036 23.9982 9.27484 24.1081C9.00931 24.2181 8.71714 24.2469 8.43526 24.1908C8.15338 24.1348 7.89446 23.9964 7.69124 23.7931C7.48801 23.5899 7.34962 23.331 7.29355 23.0491C7.23748 22.7672 7.26625 22.4751 7.37624 22.2095C7.48622 21.944 7.67247 21.7171 7.91144 21.5574C8.1504 21.3977 8.43135 21.3125 8.71875 21.3125C9.10401 21.3129 9.47338 21.4661 9.7458 21.7386C10.0182 22.011 10.1715 22.3804 10.1719 22.7656ZM24.7031 22.7656C24.7031 23.053 24.6179 23.334 24.4582 23.5729C24.2986 23.8119 24.0716 23.9982 23.8061 24.1081C23.5406 24.2181 23.2484 24.2469 22.9665 24.1908C22.6846 24.1348 22.4257 23.9964 22.2225 23.7931C22.0193 23.5899 21.8809 23.331 21.8248 23.0491C21.7687 22.7672 21.7975 22.4751 21.9075 22.2095C22.0175 21.944 22.2037 21.7171 22.4427 21.5574C22.6817 21.3977 22.9626 21.3125 23.25 21.3125C23.6353 21.3129 24.0046 21.4661 24.2771 21.7386C24.5495 22.011 24.7027 22.3804 24.7031 22.7656ZM6.00455 6.78125H25.9642L24.3791 15.5H7.58967L6.00455 6.78125Z" fill="#3E416D"/>
<rect x="15" y="0.0625" width="19" height="11" rx="5.5" fill="#8482FF"/>
<path d="M25.1457 2.71539H24.0517L22.4742 3.72882V4.78254L23.9587 3.83419H23.9959V9.0625H25.1457V2.71539Z" fill="white"/>
</svg>
