<svg width="34" height="27" fill="none" xmlns="http://www.w3.org/2000/svg"><path d="M26.2852 15.8466l1.5853-8.71878c.0507-.27921.0395-.56617-.0328-.84058-.0724-.27441-.2041-.52957-.386-.74745-.1818-.21788-.4093-.39315-.6663-.51343-.2571-.12027-.5374-.18261-.8212-.18261H5.65229l-.59142-3.25282c-.08099-.44651-.31621-.8504-.66461-1.141169-.3484-.29077-.78785-.44995177-1.24165-.44976083H.96875C.711821 1.7e-7.465416.102065.28374.28374.102064.465416 0 .711822 0 .96875c0 .25693.102064.50333.28374.68501.181676.18168.428081.28374.68501.28374h2.18574l3.23357 17.7841c.02891.1573.07719.3104.14374.4559-.48368.4087-.84321.9447-1.03786 1.5472-.19465.6026-.21664 1.2476-.06347 1.862.15317.6144.47537 1.1736.93009 1.6143.45472.4407 1.02378.7451 1.6427.879.61891.1338 1.26293.0915 1.85908-.1219.59616-.2135 1.12056-.5897 1.51386-1.0859.3933-.4963.6397-1.0928.7114-1.7219.0716-.6292-.0344-1.2658-.306-1.8378h8.4056c-.3148.6638-.4055 1.4118-.2584 2.1315.1471.7198.5239 1.3723 1.0739 1.8593.55.4871 1.2432.7823 1.9755.8413.7322.059 1.4638-.1215 2.0846-.5142.6209-.3927 1.0973-.9765 1.3577-1.6634.2604-.6869.2907-1.4398.0862-2.1454-.2045-.7056-.6326-1.3257-1.22-1.7669-.5873-.4413-1.3021-.6798-2.0367-.6797H8.29432l-.35239-1.9375H24.379c.4538.0002.8932-.159 1.2416-.4498.3484-.2907.5836-.6946.6646-1.1411zm-16.1133 6.919c0 .2874-.0852.5684-.24492.8073-.15967.239-.38662.4253-.65214.5352-.26553.11-.5577.1388-.83958.0827-.28188-.056-.5408-.1944-.74402-.3977-.20323-.2032-.34162-.4621-.39769-.744-.05607-.2819-.0273-.574.08269-.8396.10998-.2655.29623-.4924.5352-.6521.23896-.1597.51991-.2449.80731-.2449.38526.0004.75463.1536 1.02705.4261.2724.2724.4257.6418.4261 1.027zm14.5312 0c0 .2874-.0852.5684-.2449.8073-.1596.239-.3866.4253-.6521.5352-.2655.11-.5577.1388-.8396.0827-.2819-.056-.5408-.1944-.744-.3977-.2032-.2032-.3416-.4621-.3977-.744-.0561-.2819-.0273-.574.0827-.8396.11-.2655.2962-.4924.5352-.6521s.5199-.2449.8073-.2449c.3853.0004.7546.1536 1.0271.4261.2724.2724.4256.6418.426 1.027zM6.00455 6.78125H25.9642L24.3791 15.5H7.58967L6.00455 6.78125z" fill="#3E416D"/><rect x="15" y=".0625" width="19" height="11" rx="5.5" fill="#8482FF"/><path d="M25.1457 2.71539h-1.094l-1.5775 1.01343v1.05372l1.4845-.94835h.0372V9.0625h1.1498V2.71539z" fill="#fff"/></svg>