<svg width="20" height="20" viewBox="0 0 20 20" fill="none" xmlns="http://www.w3.org/2000/svg">
<path d="M10.2255 0C4.92684 0 0.616455 4.31039 0.616455 9.60901C0.616455 14.9076 4.92684 19.218 10.2255 19.218C15.5241 19.218 19.8345 14.9076 19.8345 9.60901C19.8345 4.31039 15.5241 0 10.2255 0ZM14.7954 14.5792C14.6392 14.7353 14.4342 14.8139 14.2293 14.8139C14.0243 14.8139 13.8192 14.7353 13.6632 14.5792L9.65936 10.5755C9.50877 10.4258 9.42476 10.2223 9.42476 10.0094V4.8045C9.42476 4.36171 9.7834 4.0038 10.2255 4.0038C10.6675 4.0038 11.0262 4.36171 11.0262 4.8045V9.67792L14.7954 13.447C15.1084 13.7602 15.1084 14.2662 14.7954 14.5792Z" fill="white"/>
</svg>
