<svg width="20" height="20" fill="none" xmlns="http://www.w3.org/2000/svg"><path d="M10.2255 0C4.92684 0 .616455 4.31039.616455 9.60901c0 5.29859 4.310385 9.60899 9.609045 9.60899 5.2986 0 9.609-4.3104 9.609-9.60899C19.8345 4.31039 15.5241 0 10.2255 0zm4.5699 14.5792c-.1562.1561-.3612.2347-.5661.2347-.205 0-.4101-.0786-.5661-.2347l-4.00384-4.0037c-.15059-.1497-.2346-.3532-.2346-.5661V4.8045c0-.44279.35864-.8007.80074-.8007.442 0 .8007.35791.8007.8007v4.87342l3.7692 3.76908c.313.3132.313.8192 0 1.1322z" fill="#fff"/></svg>