<svg width="247" height="274" viewBox="0 0 247 274" fill="none" xmlns="http://www.w3.org/2000/svg">
<rect x="27.1306" y="15.8916" width="193.369" height="193.369" rx="44" stroke="#8482FF" stroke-width="4"/>
<rect x="27.1306" y="15.8916" width="193.369" height="193.369" rx="44" fill="#8482FF" fill-opacity="0.23" stroke="#8482FF" stroke-width="4"/>
<path d="M102.893 256.043H92.4609V269.134H94.8132V258.012H100.54V269.134H102.893V256.043ZM105.627 272.816H107.941V267.587H108.037C108.401 268.303 109.162 269.306 110.849 269.306C113.163 269.306 114.895 267.472 114.895 264.237C114.895 260.965 113.112 259.188 110.843 259.188C109.111 259.188 108.388 260.23 108.037 260.939H107.902V259.316H105.627V272.816ZM107.896 264.225C107.896 262.32 108.714 261.086 110.204 261.086C111.744 261.086 112.537 262.397 112.537 264.225C112.537 266.066 111.731 267.408 110.204 267.408C108.727 267.408 107.896 266.13 107.896 264.225ZM121.16 269.326C124.036 269.326 125.864 267.299 125.864 264.263C125.864 261.22 124.036 259.188 121.16 259.188C118.283 259.188 116.455 261.22 116.455 264.263C116.455 267.299 118.283 269.326 121.16 269.326ZM121.172 267.472C119.581 267.472 118.801 266.053 118.801 264.257C118.801 262.46 119.581 261.022 121.172 261.022C122.738 261.022 123.518 262.46 123.518 264.257C123.518 266.053 122.738 267.472 121.172 267.472ZM132.175 269.326C134.463 269.326 136.035 268.207 136.445 266.5L134.284 266.257C133.971 267.088 133.204 267.523 132.207 267.523C130.711 267.523 129.72 266.539 129.701 264.858H136.54V264.148C136.54 260.703 134.469 259.188 132.053 259.188C129.241 259.188 127.406 261.252 127.406 264.282C127.406 267.363 129.215 269.326 132.175 269.326ZM129.707 263.298C129.778 262.045 130.705 260.99 132.085 260.99C133.415 260.99 134.31 261.962 134.322 263.298H129.707ZM138.498 269.134H140.812V265.433H141.943L144.634 269.134H147.434L143.759 264.135L147.396 259.316H144.609L141.656 263.279H140.812V259.316H138.498V269.134ZM148.209 261.214H151.386V269.134H153.623V261.214H156.8V259.316H148.209V261.214Z" fill="white"/>
<g clip-path="url(#clip0)" filter="url(#filter0_d)">
<path d="M185.832 191.594L30.6454 150.012C25.8926 148.739 23.0722 143.853 24.3457 139.101L50.927 39.8976C52.2006 35.1448 57.0857 32.3243 61.8385 33.5979L217.025 75.18C221.778 76.4535 224.599 81.3387 223.325 86.0915L196.744 185.294C195.47 190.047 190.585 192.868 185.832 191.594Z" fill="url(#paint0_linear)"/>
<path d="M75.6305 149.306L75.0133 149.141L76.1582 144.868C76.7561 142.636 75.4321 140.343 73.2007 139.745L48.7022 133.181C46.4708 132.583 44.1776 133.907 43.5797 136.138L42.4348 140.411L41.8176 140.246C40.3596 139.855 38.8606 140.72 38.4699 142.179L36.1833 150.712C36.1153 150.966 36.0877 151.221 36.0921 151.471L74.9761 161.89C75.1054 161.676 75.2086 161.442 75.2767 161.187L77.5633 152.654C77.954 151.196 77.0886 149.697 75.6305 149.306Z" fill="url(#paint1_linear)"/>
<path d="M94.6631 67.8906L86.2352 53.2929C85.2464 51.5803 85.8332 49.3904 87.5458 48.4016C89.2584 47.4129 91.4483 47.9997 92.4371 49.7123L100.865 64.3099C101.854 66.0225 101.267 68.2124 99.5544 69.2012C97.8418 70.19 95.6519 69.6032 94.6631 67.8906Z" fill="url(#paint2_linear)"/>
<path d="M204.671 86.7692L190.974 83.0991C193.824 83.8626 195.512 86.7877 194.749 89.6369L173.769 167.936C173.005 170.785 170.08 172.474 167.231 171.711L180.928 175.381C183.777 176.144 186.702 174.455 187.466 171.606L208.446 93.307C209.209 90.4578 207.52 87.5326 204.671 86.7692Z" fill="url(#paint3_linear)"/>
<path d="M219.168 73.7083L60.7186 31.2518C55.8352 29.9433 50.817 32.8406 49.5085 37.7239L22.0302 140.274C20.7217 145.158 23.619 150.176 28.5024 151.484L186.952 193.941C191.835 195.249 196.854 192.352 198.162 187.469L225.64 84.9184C226.949 80.035 224.052 75.0167 219.168 73.7083ZM187.466 171.606C186.702 174.456 183.777 176.144 180.928 175.381L42.9993 138.423C40.1501 137.66 38.4613 134.735 39.2247 131.885L60.205 53.5861C60.9684 50.7369 63.8935 49.0481 66.7427 49.8115L204.671 86.7694C207.521 87.5328 209.209 90.458 208.446 93.3072L187.466 171.606Z" fill="url(#paint4_linear)"/>
<path d="M75.2767 161.188L77.5633 152.654C77.954 151.196 77.0886 149.697 75.6305 149.306L75.0134 149.141L75.5482 147.145L42.9994 138.423C42.9894 138.42 42.9801 138.417 42.9701 138.414L42.4348 140.411L41.8177 140.246C40.3596 139.855 38.8606 140.721 38.47 142.179L36.1833 150.713C35.7926 152.171 36.658 153.67 38.1161 154.06L71.9293 163.121C73.3871 163.511 74.886 162.646 75.2767 161.188Z" fill="url(#paint5_linear)"/>
<path d="M219.168 73.7083L205.347 70.0049C210.23 71.3134 213.128 76.3316 211.819 81.215L184.341 183.765C183.032 188.649 178.014 191.546 173.131 190.237L186.952 193.941C191.835 195.249 196.854 192.352 198.162 187.469L225.64 84.9184C226.949 80.035 224.051 75.0167 219.168 73.7083Z" fill="url(#paint6_linear)"/>
<path d="M39.2246 131.885L60.2049 53.5859C60.9683 50.7367 63.8934 49.0479 66.7426 49.8113L58.1049 47.4968C55.2557 46.7334 52.3306 48.4222 51.5671 51.2714L30.5869 129.571C29.8235 132.42 31.5123 135.345 34.3615 136.109L42.9992 138.423C40.15 137.66 38.4612 134.734 39.2246 131.885Z" fill="url(#paint7_linear)"/>
<path d="M96.0921 79.4439C95.9703 76.594 92.9327 74.4117 89.4778 73.4859C86.0232 72.5602 82.3011 72.931 80.7707 75.3385L54.5256 117.409C54.3702 117.689 54.2144 117.969 54.154 118.195C53.4094 120.974 57.1471 124.149 60.3765 125.014C62.2542 125.517 63.9171 125.319 64.7905 123.862L69.8596 115.158L85.7067 119.404L85.7447 129.477C85.7728 131.175 87.1137 132.178 88.9914 132.681C92.2208 133.547 97.0452 132.666 97.7898 129.887C97.8502 129.662 97.8557 129.341 97.861 129.021L96.0921 79.4439ZM74.6779 106.79L85.5536 88.1311L85.6429 109.728L74.6779 106.79Z" fill="url(#paint8_linear)"/>
<path d="M137.968 113.928C142.411 113.267 145.881 109.931 147.511 103.847C150.369 93.1822 143.583 88.4663 136.072 86.4539L120.676 82.3284C118.122 81.6442 115.247 82.1615 114.603 84.5648L101.804 132.331C101.301 134.209 102.811 136.384 105.965 137.229L122.638 141.697C131.125 143.971 138.881 141.461 142.061 129.594L142.484 128.018C144.496 120.507 142.086 116.883 137.968 113.928ZM124.473 94.2935L132.359 96.4065C135.213 97.1713 135.936 100.182 135.231 102.811C134.547 105.365 132.416 107.611 129.562 106.846L121.676 104.733L124.473 94.2935ZM130.606 125.479C129.318 130.285 126.502 131.785 122.747 130.779L115.236 128.766L119.261 113.745L126.772 115.758C130.527 116.764 132.297 119.17 130.928 124.277L130.606 125.479Z" fill="url(#paint9_linear)"/>
<path d="M179.735 134.698C176.731 133.893 173.976 133.96 173.006 136.679C171.996 139.547 170.393 144.028 164.385 142.418C160.029 141.251 158.194 138.184 159.563 133.076L164.895 113.174C166.264 108.067 169.387 106.327 173.667 107.474C180.051 109.185 178.989 114.052 178.54 116.025C177.966 118.769 180.298 120.279 183.453 121.124C187.433 122.191 189.592 121.643 190.8 117.136C193.355 107.598 186.693 100.018 175.953 97.1398C166.115 94.5036 156.641 97.1167 153.179 110.034L147.846 129.937C144.385 142.855 151.283 149.855 161.122 152.491C171.862 155.369 181.502 151.835 184.179 141.846C185.387 137.339 183.791 135.785 179.735 134.698Z" fill="url(#paint10_linear)"/>
<path d="M182.408 135.694L178.464 150.414C181.154 148.48 183.166 145.626 184.179 141.846C185.07 138.52 184.432 136.803 182.408 135.694Z" fill="url(#paint11_linear)"/>
<path d="M186.189 121.586C188.485 121.642 189.905 120.478 190.8 117.136C191.768 113.526 191.413 110.197 190.017 107.297L186.189 121.586Z" fill="url(#paint12_linear)"/>
<path d="M92.4371 49.7123C91.4483 47.9997 89.2584 47.4129 87.5458 48.4016C85.8332 49.3904 85.2464 51.5803 86.2352 53.2929L87.4247 55.3532L97.2073 57.9745L92.4371 49.7123Z" fill="url(#paint13_linear)"/>
<path d="M99.0479 65.3589L90.6199 50.7612C89.6312 49.0486 90.2179 46.8587 91.9305 45.8699C93.6432 44.8811 95.8331 45.4679 96.8218 47.1805L105.25 61.7782C106.239 63.4908 105.652 65.6807 103.939 66.6695C102.227 67.6582 100.037 67.0715 99.0479 65.3589Z" fill="url(#paint14_linear)"/>
<path d="M81.6216 159.029L49.0431 150.299L52.2173 138.453C52.8152 136.222 55.1084 134.898 57.3398 135.496L81.8384 142.06C84.0697 142.658 85.3937 144.951 84.7958 147.182L81.6216 159.029Z" fill="url(#paint15_linear)"/>
<path d="M81.8384 142.06L73.2007 139.746C75.432 140.343 76.7561 142.637 76.1582 144.868L72.9839 156.715L81.6216 159.029L84.7959 147.183C85.3938 144.951 84.0698 142.658 81.8384 142.06Z" fill="url(#paint16_linear)"/>
<path d="M75.7553 152.169C75.3646 153.627 73.8657 154.493 72.4076 154.102L59.4861 150.639C58.028 150.249 57.1626 148.75 57.5533 147.292C57.9439 145.834 57.0785 144.335 55.6205 143.944L50.4549 142.56C48.9969 142.169 47.4979 143.035 47.1072 144.493L44.8206 153.027C44.4299 154.485 45.2953 155.984 46.7534 156.374L80.5666 165.435C82.0247 165.825 83.5236 164.96 83.9143 163.502L86.2009 154.968C86.5916 153.51 85.7262 152.011 84.2681 151.62L79.103 150.236C77.6449 149.846 76.146 150.711 75.7553 152.169Z" fill="url(#paint17_linear)"/>
<path d="M84.2681 151.62L79.1029 150.236C78.4374 150.058 77.7645 150.144 77.1915 150.425C77.6147 151.057 77.7755 151.861 77.5632 152.653L75.2766 161.187C74.8859 162.645 73.3869 163.511 71.9288 163.12L80.5666 165.434C82.0247 165.825 83.5236 164.96 83.9143 163.502L86.2009 154.968C86.5916 153.51 85.7262 152.011 84.2681 151.62Z" fill="url(#paint18_linear)"/>
</g>
<defs>
<filter id="filter0_d" x="-8.82788" y="0.933105" width="265.326" height="268.326" filterUnits="userSpaceOnUse" color-interpolation-filters="sRGB">
<feFlood flood-opacity="0" result="BackgroundImageFix"/>
<feColorMatrix in="SourceAlpha" type="matrix" values="0 0 0 0 0 0 0 0 0 0 0 0 0 0 0 0 0 0 127 0"/>
<feOffset dy="24"/>
<feGaussianBlur stdDeviation="10.5"/>
<feColorMatrix type="matrix" values="0 0 0 0 0 0 0 0 0 0 0 0 0 0 0 0 0 0 0.09 0"/>
<feBlend mode="normal" in2="BackgroundImageFix" result="effect1_dropShadow"/>
<feBlend mode="normal" in="SourceGraphic" in2="effect1_dropShadow" result="shape"/>
</filter>
<linearGradient id="paint0_linear" x1="-43.4503" y1="67.772" x2="159.295" y2="122.098" gradientUnits="userSpaceOnUse">
<stop stop-color="#7ACAA6"/>
<stop offset="0.5725" stop-color="#09A76D"/>
<stop offset="1" stop-color="#026841"/>
</linearGradient>
<linearGradient id="paint1_linear" x1="15.4564" y1="135.107" x2="59.3402" y2="146.866" gradientUnits="userSpaceOnUse">
<stop stop-color="#7ACAA6"/>
<stop offset="0.5725" stop-color="#09A76D"/>
<stop offset="1" stop-color="#026841"/>
</linearGradient>
<linearGradient id="paint2_linear" x1="30.2667" y1="41.8449" x2="116.541" y2="64.9621" gradientUnits="userSpaceOnUse">
<stop stop-color="#7ACAA6"/>
<stop offset="0.5725" stop-color="#09A76D"/>
<stop offset="1" stop-color="#026841"/>
</linearGradient>
<linearGradient id="paint3_linear" x1="162.515" y1="122.96" x2="201.839" y2="133.497" gradientUnits="userSpaceOnUse">
<stop stop-color="#026841"/>
<stop offset="1" stop-color="#384949"/>
</linearGradient>
<linearGradient id="paint4_linear" x1="33.2151" y1="88.3147" x2="240.223" y2="143.782" gradientUnits="userSpaceOnUse">
<stop stop-color="#FFE177"/>
<stop offset="0.5725" stop-color="#FEB137"/>
<stop offset="1" stop-color="#FE646F"/>
</linearGradient>
<linearGradient id="paint5_linear" x1="19.8802" y1="140.7" x2="83.1524" y2="157.654" gradientUnits="userSpaceOnUse">
<stop stop-color="#FFE177"/>
<stop offset="0.5725" stop-color="#FEB137"/>
<stop offset="1" stop-color="#FE646F"/>
</linearGradient>
<linearGradient id="paint6_linear" x1="127.289" y1="113.522" x2="206.139" y2="134.65" gradientUnits="userSpaceOnUse">
<stop stop-color="#FFE177"/>
<stop offset="0.5725" stop-color="#FEB137"/>
<stop offset="1" stop-color="#FE646F"/>
</linearGradient>
<linearGradient id="paint7_linear" x1="33.0064" y1="88.2585" x2="61.1526" y2="95.8003" gradientUnits="userSpaceOnUse">
<stop stop-color="#FFE177"/>
<stop offset="0.5725" stop-color="#FEB137"/>
<stop offset="1" stop-color="#FE646F"/>
</linearGradient>
<linearGradient id="paint8_linear" x1="69.9435" y1="97.9146" x2="198.382" y2="132.33" gradientUnits="userSpaceOnUse">
<stop stop-color="#F9F3F1"/>
<stop offset="0.5725" stop-color="#EFE2DD"/>
<stop offset="1" stop-color="#CDBFBA"/>
</linearGradient>
<linearGradient id="paint9_linear" x1="69.883" y1="98.14" x2="198.321" y2="132.555" gradientUnits="userSpaceOnUse">
<stop stop-color="#F9F3F1"/>
<stop offset="0.5725" stop-color="#EFE2DD"/>
<stop offset="1" stop-color="#CDBFBA"/>
</linearGradient>
<linearGradient id="paint10_linear" x1="69.8226" y1="98.3647" x2="198.261" y2="132.78" gradientUnits="userSpaceOnUse">
<stop stop-color="#F9F3F1"/>
<stop offset="0.5725" stop-color="#EFE2DD"/>
<stop offset="1" stop-color="#CDBFBA"/>
</linearGradient>
<linearGradient id="paint11_linear" x1="131.869" y1="130.041" x2="153.753" y2="135.904" gradientUnits="userSpaceOnUse">
<stop stop-color="#F9F3F1"/>
<stop offset="0.5725" stop-color="#EFE2DD"/>
<stop offset="1" stop-color="#CDBFBA"/>
</linearGradient>
<linearGradient id="paint12_linear" x1="139.536" y1="101.428" x2="161.42" y2="107.292" gradientUnits="userSpaceOnUse">
<stop stop-color="#F9F3F1"/>
<stop offset="0.5725" stop-color="#EFE2DD"/>
<stop offset="1" stop-color="#CDBFBA"/>
</linearGradient>
<linearGradient id="paint13_linear" x1="70.5798" y1="46.805" x2="103.426" y2="55.606" gradientUnits="userSpaceOnUse">
<stop stop-color="#FFE177"/>
<stop offset="0.5725" stop-color="#FEB137"/>
<stop offset="1" stop-color="#FE646F"/>
</linearGradient>
<linearGradient id="paint14_linear" x1="77.6439" y1="50.8329" x2="116.463" y2="61.2344" gradientUnits="userSpaceOnUse">
<stop stop-color="#F9F3F1"/>
<stop offset="0.5725" stop-color="#EFE2DD"/>
<stop offset="1" stop-color="#CDBFBA"/>
</linearGradient>
<linearGradient id="paint15_linear" x1="51.0903" y1="142.335" x2="84.2894" y2="151.23" gradientUnits="userSpaceOnUse">
<stop stop-color="#FFDCBD"/>
<stop offset="0.0028" stop-color="#FFDCBD"/>
<stop offset="1" stop-color="#FFA9B1"/>
</linearGradient>
<linearGradient id="paint16_linear" x1="57.3067" y1="144" x2="86.2283" y2="151.75" gradientUnits="userSpaceOnUse">
<stop stop-color="#FFC2B5"/>
<stop offset="1" stop-color="#FF89A8"/>
</linearGradient>
<linearGradient id="paint17_linear" x1="44.6509" y1="148.408" x2="105.919" y2="164.825" gradientUnits="userSpaceOnUse">
<stop stop-color="#FE646F"/>
<stop offset="0.5725" stop-color="#FB2B3A"/>
<stop offset="1" stop-color="#C41926"/>
</linearGradient>
<linearGradient id="paint18_linear" x1="40.3339" y1="147.251" x2="85.8429" y2="159.445" gradientUnits="userSpaceOnUse">
<stop stop-color="#FE646F"/>
<stop offset="0.5725" stop-color="#FB2B3A"/>
<stop offset="1" stop-color="#C41926"/>
</linearGradient>
<clipPath id="clip0">
<rect width="182.345" height="182.345" fill="white" transform="translate(59.3665 0.933105) rotate(15)"/>
</clipPath>
</defs>
</svg>
