<svg width="247" height="274" fill="none" xmlns="http://www.w3.org/2000/svg"><rect x="27.1306" y="15.8916" width="193.369" height="193.369" rx="44" stroke="#8482FF" stroke-width="4"/><rect x="27.1306" y="15.8916" width="193.369" height="193.369" rx="44" fill="#8482FF" fill-opacity=".23" stroke="#8482FF" stroke-width="4"/><path d="M102.893 256.043H92.4609v13.091h2.3523v-11.122h5.7268v11.122h2.353v-13.091zm2.734 16.773h2.314v-5.229h.096c.364.716 1.125 1.719 2.812 1.719 2.314 0 4.046-1.834 4.046-5.069 0-3.272-1.783-5.049-4.052-5.049-1.732 0-2.455 1.042-2.806 1.751h-.135v-1.623h-2.275v13.5zm2.269-8.591c0-1.905.818-3.139 2.308-3.139 1.54 0 2.333 1.311 2.333 3.139 0 1.841-.806 3.183-2.333 3.183-1.477 0-2.308-1.278-2.308-3.183zm13.264 5.101c2.876 0 4.704-2.027 4.704-5.063 0-3.043-1.828-5.075-4.704-5.075-2.877 0-4.705 2.032-4.705 5.075 0 3.036 1.828 5.063 4.705 5.063zm.012-1.854c-1.591 0-2.371-1.419-2.371-3.215 0-1.797.78-3.235 2.371-3.235 1.566 0 2.346 1.438 2.346 3.235 0 1.796-.78 3.215-2.346 3.215zm11.003 1.854c2.288 0 3.86-1.119 4.27-2.826l-2.161-.243c-.313.831-1.08 1.266-2.077 1.266-1.496 0-2.487-.984-2.506-2.665h6.839v-.71c0-3.445-2.071-4.96-4.487-4.96-2.812 0-4.647 2.064-4.647 5.094 0 3.081 1.809 5.044 4.769 5.044zm-2.468-6.028c.071-1.253.998-2.308 2.378-2.308 1.33 0 2.225.972 2.237 2.308h-4.615zm8.791 5.836h2.314v-3.701h1.131l2.691 3.701h2.8l-3.675-4.999 3.637-4.819h-2.787l-2.953 3.963h-.844v-3.963h-2.314v9.818zm9.711-7.92h3.177v7.92h2.237v-7.92h3.177v-1.898h-8.591v1.898z" fill="#fff"/><g clip-path="url(#clip0)" filter="url(#filter0_d)"><path d="M185.832 191.594L30.6454 150.012c-4.7528-1.273-7.5732-6.159-6.2997-10.911L50.927 39.8976c1.2736-4.7528 6.1587-7.5733 10.9115-6.2997L217.025 75.18c4.753 1.2735 7.574 6.1587 6.3 10.9115l-26.581 99.2025c-1.274 4.753-6.159 7.574-10.912 6.3z" fill="url(#paint0_linear)"/><path d="M75.6305 149.306l-.6172-.165 1.1449-4.273c.5979-2.232-.7261-4.525-2.9575-5.123l-24.4985-6.564c-2.2314-.598-4.5246.726-5.1225 2.957l-1.1449 4.273-.6172-.165c-1.458-.391-2.957.474-3.3477 1.933l-2.2866 8.533c-.068.254-.0956.509-.0912.759l38.884 10.419c.1293-.214.2325-.448.3006-.703l2.2866-8.533c.3907-1.458-.4747-2.957-1.9328-3.348z" fill="url(#paint1_linear)"/><path d="M94.6631 67.8906l-8.4279-14.5977c-.9888-1.7126-.402-3.9025 1.3106-4.8913 1.7126-.9887 3.9025-.4019 4.8913 1.3107l8.4279 14.5976c.989 1.7126.402 3.9025-1.3106 4.8913-1.7126.9888-3.9025.402-4.8913-1.3106z" fill="url(#paint2_linear)"/><path d="M204.671 86.7692l-13.697-3.6701c2.85.7635 4.538 3.6886 3.775 6.5378l-20.98 78.2991c-.764 2.849-3.689 4.538-6.538 3.775l13.697 3.67c2.849.763 5.774-.926 6.538-3.775l20.98-78.299c.763-2.8492-.926-5.7744-3.775-6.5378z" fill="url(#paint3_linear)"/><path d="M219.168 73.7083L60.7186 31.2518c-4.8834-1.3085-9.9016 1.5888-11.2101 6.4721L22.0302 140.274c-1.3085 4.884 1.5888 9.902 6.4722 11.21l158.4496 42.457c4.883 1.308 9.902-1.589 11.21-6.472L225.64 84.9184c1.309-4.8834-1.588-9.9017-6.472-11.2101zm-31.702 97.8977c-.764 2.85-3.689 4.538-6.538 3.775L42.9993 138.423c-2.8492-.763-4.538-3.688-3.7746-6.538L60.205 53.5861c.7634-2.8492 3.6885-4.538 6.5377-3.7746L204.671 86.7694c2.85.7634 4.538 3.6886 3.775 6.5378l-20.98 78.2988z" fill="url(#paint4_linear)"/><path d="M75.2767 161.188l2.2866-8.534c.3907-1.458-.4747-2.957-1.9328-3.348l-.6171-.165.5348-1.996-32.5488-8.722c-.01-.003-.0193-.006-.0293-.009l-.5353 1.997-.6171-.165c-1.4581-.391-2.9571.475-3.3477 1.933l-2.2867 8.534c-.3907 1.458.4747 2.957 1.9328 3.347l33.8132 9.061c1.4578.39 2.9567-.475 3.3474-1.933z" fill="url(#paint5_linear)"/><path d="M219.168 73.7083l-13.821-3.7034c4.883 1.3085 7.781 6.3267 6.472 11.2101l-27.478 102.55c-1.309 4.884-6.327 7.781-11.21 6.472l13.821 3.704c4.883 1.308 9.902-1.589 11.21-6.472L225.64 84.9184c1.309-4.8834-1.589-9.9017-6.472-11.2101z" fill="url(#paint6_linear)"/><path d="M39.2246 131.885l20.9803-78.2991c.7634-2.8492 3.6885-4.538 6.5377-3.7746l-8.6377-2.3145c-2.8492-.7634-5.7743.9254-6.5378 3.7746L30.5869 129.571c-.7634 2.849.9254 5.774 3.7746 6.538l8.6377 2.314c-2.8492-.763-4.538-3.689-3.7746-6.538z" fill="url(#paint7_linear)"/><path d="M96.0921 79.4439c-.1218-2.8499-3.1594-5.0322-6.6143-5.958-3.4546-.9257-7.1767-.5549-8.7071 1.8526L54.5256 117.409c-.1554.28-.3112.56-.3716.786-.7446 2.779 2.9931 5.954 6.2225 6.819 1.8777.503 3.5406.305 4.414-1.152l5.0691-8.704 15.8471 4.246.038 10.073c.0281 1.698 1.369 2.701 3.2467 3.204 3.2294.866 8.0538-.015 8.7984-2.794.0604-.225.0659-.546.0712-.866l-1.7689-49.5771zM74.6779 106.79l10.8757-18.6589.0893 21.5969-10.965-2.938z" fill="url(#paint8_linear)"/><path d="M137.968 113.928c4.443-.661 7.913-3.997 9.543-10.081 2.858-10.6648-3.928-15.3807-11.439-17.3931l-15.396-4.1255c-2.554-.6842-5.429-.1669-6.073 2.2364l-12.799 47.7662c-.503 1.878 1.007 4.053 4.161 4.898l16.673 4.468c8.487 2.274 16.243-.236 19.423-12.103l.423-1.576c2.012-7.511-.398-11.135-4.516-14.09zm-13.495-19.6345l7.886 2.113c2.854.7648 3.577 3.7755 2.872 6.4045-.684 2.554-2.815 4.8-5.669 4.035l-7.886-2.113 2.797-10.4395zm6.133 31.1855c-1.288 4.806-4.104 6.306-7.859 5.3l-7.511-2.013 4.025-15.021 7.511 2.013c3.755 1.006 5.525 3.412 4.156 8.519l-.322 1.202z" fill="url(#paint9_linear)"/><path d="M179.735 134.698c-3.004-.805-5.759-.738-6.729 1.981-1.01 2.868-2.613 7.349-8.621 5.739-4.356-1.167-6.191-4.234-4.822-9.342l5.332-19.902c1.369-5.107 4.492-6.847 8.772-5.7 6.384 1.711 5.322 6.578 4.873 8.551-.574 2.744 1.758 4.254 4.913 5.099 3.98 1.067 6.139.519 7.347-3.988 2.555-9.538-4.107-17.118-14.847-19.9962-9.838-2.6362-19.312-.0231-22.774 12.8942l-5.333 19.903c-3.461 12.918 3.437 19.918 13.276 22.554 10.74 2.878 20.38-.656 23.057-10.645 1.208-4.507-.388-6.061-4.444-7.148z" fill="url(#paint10_linear)"/><path d="M182.408 135.694l-3.944 14.72c2.69-1.934 4.702-4.788 5.715-8.568.891-3.326.253-5.043-1.771-6.152z" fill="url(#paint11_linear)"/><path d="M186.189 121.586c2.296.056 3.716-1.108 4.611-4.45.968-3.61.613-6.939-.783-9.839l-3.828 14.289z" fill="url(#paint12_linear)"/><path d="M92.4371 49.7123c-.9888-1.7126-3.1787-2.2994-4.8913-1.3107-1.7126.9888-2.2994 3.1787-1.3106 4.8913l1.1895 2.0603 9.7826 2.6213-4.7702-8.2622z" fill="url(#paint13_linear)"/><path d="M99.0479 65.3589l-8.428-14.5977c-.9887-1.7126-.402-3.9025 1.3106-4.8913 1.7127-.9888 3.9026-.402 4.8913 1.3106l8.4282 14.5977c.989 1.7126.402 3.9025-1.311 4.8913-1.712.9887-3.902.402-4.8911-1.3106z" fill="url(#paint14_linear)"/><path d="M81.6216 159.029l-32.5785-8.73 3.1742-11.846c.5979-2.231 2.8911-3.555 5.1225-2.957l24.4986 6.564c2.2313.598 3.5553 2.891 2.9574 5.122l-3.1742 11.847z" fill="url(#paint15_linear)"/><path d="M81.8384 142.06l-8.6377-2.314c2.2313.597 3.5554 2.891 2.9575 5.122l-3.1743 11.847 8.6377 2.314 3.1743-11.846c.5979-2.232-.7261-4.525-2.9575-5.123z" fill="url(#paint16_linear)"/><path d="M75.7553 152.169c-.3907 1.458-1.8896 2.324-3.3477 1.933l-12.9215-3.463c-1.4581-.39-2.3235-1.889-1.9328-3.347.3906-1.458-.4748-2.957-1.9328-3.348l-5.1656-1.384c-1.458-.391-2.957.475-3.3477 1.933l-2.2866 8.534c-.3907 1.458.4747 2.957 1.9328 3.347l33.8132 9.061c1.4581.39 2.957-.475 3.3477-1.933l2.2866-8.534c.3907-1.458-.4747-2.957-1.9328-3.348l-5.1651-1.384c-1.4581-.39-2.957.475-3.3477 1.933z" fill="url(#paint17_linear)"/><path d="M84.2681 151.62l-5.1652-1.384c-.6655-.178-1.3384-.092-1.9114.189.4232.632.584 1.436.3717 2.228l-2.2866 8.534c-.3907 1.458-1.8897 2.324-3.3478 1.933l8.6378 2.314c1.4581.391 2.957-.474 3.3477-1.932l2.2866-8.534c.3907-1.458-.4747-2.957-1.9328-3.348z" fill="url(#paint18_linear)"/></g><defs><linearGradient id="paint0_linear" x1="-43.4503" y1="67.772" x2="159.295" y2="122.098" gradientUnits="userSpaceOnUse"><stop stop-color="#7ACAA6"/><stop offset=".5725" stop-color="#09A76D"/><stop offset="1" stop-color="#026841"/></linearGradient><linearGradient id="paint1_linear" x1="15.4564" y1="135.107" x2="59.3402" y2="146.866" gradientUnits="userSpaceOnUse"><stop stop-color="#7ACAA6"/><stop offset=".5725" stop-color="#09A76D"/><stop offset="1" stop-color="#026841"/></linearGradient><linearGradient id="paint2_linear" x1="30.2667" y1="41.8449" x2="116.541" y2="64.9621" gradientUnits="userSpaceOnUse"><stop stop-color="#7ACAA6"/><stop offset=".5725" stop-color="#09A76D"/><stop offset="1" stop-color="#026841"/></linearGradient><linearGradient id="paint3_linear" x1="162.515" y1="122.96" x2="201.839" y2="133.497" gradientUnits="userSpaceOnUse"><stop stop-color="#026841"/><stop offset="1" stop-color="#384949"/></linearGradient><linearGradient id="paint4_linear" x1="33.2151" y1="88.3147" x2="240.223" y2="143.782" gradientUnits="userSpaceOnUse"><stop stop-color="#FFE177"/><stop offset=".5725" stop-color="#FEB137"/><stop offset="1" stop-color="#FE646F"/></linearGradient><linearGradient id="paint5_linear" x1="19.8802" y1="140.7" x2="83.1524" y2="157.654" gradientUnits="userSpaceOnUse"><stop stop-color="#FFE177"/><stop offset=".5725" stop-color="#FEB137"/><stop offset="1" stop-color="#FE646F"/></linearGradient><linearGradient id="paint6_linear" x1="127.289" y1="113.522" x2="206.139" y2="134.65" gradientUnits="userSpaceOnUse"><stop stop-color="#FFE177"/><stop offset=".5725" stop-color="#FEB137"/><stop offset="1" stop-color="#FE646F"/></linearGradient><linearGradient id="paint7_linear" x1="33.0064" y1="88.2585" x2="61.1526" y2="95.8003" gradientUnits="userSpaceOnUse"><stop stop-color="#FFE177"/><stop offset=".5725" stop-color="#FEB137"/><stop offset="1" stop-color="#FE646F"/></linearGradient><linearGradient id="paint8_linear" x1="69.9435" y1="97.9146" x2="198.382" y2="132.33" gradientUnits="userSpaceOnUse"><stop stop-color="#F9F3F1"/><stop offset=".5725" stop-color="#EFE2DD"/><stop offset="1" stop-color="#CDBFBA"/></linearGradient><linearGradient id="paint9_linear" x1="69.883" y1="98.14" x2="198.321" y2="132.555" gradientUnits="userSpaceOnUse"><stop stop-color="#F9F3F1"/><stop offset=".5725" stop-color="#EFE2DD"/><stop offset="1" stop-color="#CDBFBA"/></linearGradient><linearGradient id="paint10_linear" x1="69.8226" y1="98.3647" x2="198.261" y2="132.78" gradientUnits="userSpaceOnUse"><stop stop-color="#F9F3F1"/><stop offset=".5725" stop-color="#EFE2DD"/><stop offset="1" stop-color="#CDBFBA"/></linearGradient><linearGradient id="paint11_linear" x1="131.869" y1="130.041" x2="153.753" y2="135.904" gradientUnits="userSpaceOnUse"><stop stop-color="#F9F3F1"/><stop offset=".5725" stop-color="#EFE2DD"/><stop offset="1" stop-color="#CDBFBA"/></linearGradient><linearGradient id="paint12_linear" x1="139.536" y1="101.428" x2="161.42" y2="107.292" gradientUnits="userSpaceOnUse"><stop stop-color="#F9F3F1"/><stop offset=".5725" stop-color="#EFE2DD"/><stop offset="1" stop-color="#CDBFBA"/></linearGradient><linearGradient id="paint13_linear" x1="70.5798" y1="46.805" x2="103.426" y2="55.606" gradientUnits="userSpaceOnUse"><stop stop-color="#FFE177"/><stop offset=".5725" stop-color="#FEB137"/><stop offset="1" stop-color="#FE646F"/></linearGradient><linearGradient id="paint14_linear" x1="77.6439" y1="50.8329" x2="116.463" y2="61.2344" gradientUnits="userSpaceOnUse"><stop stop-color="#F9F3F1"/><stop offset=".5725" stop-color="#EFE2DD"/><stop offset="1" stop-color="#CDBFBA"/></linearGradient><linearGradient id="paint15_linear" x1="51.0903" y1="142.335" x2="84.2894" y2="151.23" gradientUnits="userSpaceOnUse"><stop stop-color="#FFDCBD"/><stop offset=".0028" stop-color="#FFDCBD"/><stop offset="1" stop-color="#FFA9B1"/></linearGradient><linearGradient id="paint16_linear" x1="57.3067" y1="144" x2="86.2283" y2="151.75" gradientUnits="userSpaceOnUse"><stop stop-color="#FFC2B5"/><stop offset="1" stop-color="#FF89A8"/></linearGradient><linearGradient id="paint17_linear" x1="44.6509" y1="148.408" x2="105.919" y2="164.825" gradientUnits="userSpaceOnUse"><stop stop-color="#FE646F"/><stop offset=".5725" stop-color="#FB2B3A"/><stop offset="1" stop-color="#C41926"/></linearGradient><linearGradient id="paint18_linear" x1="40.3339" y1="147.251" x2="85.8429" y2="159.445" gradientUnits="userSpaceOnUse"><stop stop-color="#FE646F"/><stop offset=".5725" stop-color="#FB2B3A"/><stop offset="1" stop-color="#C41926"/></linearGradient><clipPath id="clip0"><path fill="#fff" transform="rotate(15 26.13943193 225.93322077)" d="M0 0h182.345v182.345H0z"/></clipPath><filter id="filter0_d" x="-8.82788" y=".933105" width="265.326" height="268.326" filterUnits="userSpaceOnUse" color-interpolation-filters="sRGB"><feFlood flood-opacity="0" result="BackgroundImageFix"/><feColorMatrix in="SourceAlpha" values="0 0 0 0 0 0 0 0 0 0 0 0 0 0 0 0 0 0 127 0"/><feOffset dy="24"/><feGaussianBlur stdDeviation="10.5"/><feColorMatrix values="0 0 0 0 0 0 0 0 0 0 0 0 0 0 0 0 0 0 0.09 0"/><feBlend in2="BackgroundImageFix" result="effect1_dropShadow"/><feBlend in="SourceGraphic" in2="effect1_dropShadow" result="shape"/></filter></defs></svg>