<svg width="199" height="260" fill="none" xmlns="http://www.w3.org/2000/svg"><rect x="2.63086" y="2" width="193.369" height="193.369" rx="44" fill="#8482FF" fill-opacity=".23" stroke="#8482FF" stroke-width="4"/><path d="M65.8644 255.242h.6392c3.0618 0 3.9119-2.064 4.0973-6.366l.2045-4.775h4.0462v11.141h2.3203v-13.091h-8.5781l-.2173 5.99c-.1407 3.713-.6392 5.03-2.1414 5.113l-.3707.019v1.969zm18.1374.192c2.2884 0 3.8608-1.119 4.2699-2.825l-2.1605-.243c-.3132.831-1.0803 1.265-2.0774 1.265-1.4958 0-2.4865-.984-2.5057-2.665h6.8395v-.71c0-3.445-2.071-4.96-4.4872-4.96-2.8125 0-4.647 2.065-4.647 5.095 0 3.081 1.8089 5.043 4.7684 5.043zm-2.4673-6.028c.0703-1.253.9971-2.307 2.3778-2.307 1.3296 0 2.2245.971 2.2372 2.307h-4.615zm8.7907 5.836h2.3139v-3.701h1.1314l2.691 3.701h2.7997l-3.6754-4.998 3.6371-4.82h-2.787l-2.9531 3.963h-.8437v-3.963h-2.3139v9.818zm18.5388-9.818h-2.212v7.92h-3.848v-7.92h-2.231v9.818h7.53v3.158h2.263v-4.884h-1.502v-8.092zm5.629 6.686v-6.686h-2.23v9.818h2.384l3.918-6.692v6.692h2.237v-9.818h-2.377l-3.932 6.686zm10.916 0v-6.686h-2.23v9.818h2.384l3.918-6.692v6.692h2.237v-9.818h-2.377l-3.932 6.686z" fill="#fff"/><g clip-path="url(#clip0)" filter="url(#filter0_d)"><path d="M105.604 14.2726L42.1091 31.286c-4.3532 1.1664-6.9309 5.6617-5.7576 10.0406L70.758 169.733c1.1733 4.379 5.6533 6.983 10.0065 5.817l90.2905-24.193c4.353-1.167 6.931-5.662 5.757-10.041L149.628 39.8634l-44.024-25.5908z" fill="url(#paint0_linear)"/><path d="M171.054 151.357l-11.957 3.204c4.354-1.167 6.931-5.662 5.758-10.041l-22.991-85.8028c-1.198-4.4727-5.774-7.1326-10.221-5.9412l-15.198 4.0724c-3.835 1.0276-7.782-1.2666-8.815-5.1241l-9.4991-35.4494 7.4731-2.0023 44.024 25.5907 27.184 101.4527c1.173 4.379-1.404 8.874-5.758 10.041z" fill="url(#paint1_linear)"/><path d="M105.604 14.2725l7.475 27.8979c1.033 3.8575 4.98 6.1517 8.815 5.1242l27.734-7.4313c-5.162-19.2652-24.873-30.72255-44.024-25.5908z" fill="url(#paint2_linear)"/><path d="M108.117 136.868c3.117-6.483 4.017-14.085 2.004-21.598-4.447-16.5983-21.4294-26.4699-37.9302-22.0486-7.9196 2.1221-14.2874 7.1516-18.2788 13.6436l16.8456 62.868c1.1733 4.379 5.6533 6.984 10.0065 5.817l3.2294-.865 2.6522-4.625c1.9803-3.454 6.3762-4.632 9.8183-2.631l4.609 2.679 14.882-3.987-7.838-29.253z" fill="url(#paint3_linear)"/><path d="M88.9921 169.431l14.4149 8.379c3.353 1.95 7.365-1.142 6.359-4.9l-10.0904-37.656-45.2147 12.115 9.6513 36.019c1.0069 3.758 6.0273 4.429 7.9569 1.064l7.1049-12.39c1.9804-3.454 6.3763-4.631 9.8181-2.631z" fill="url(#paint4_linear)"/><path d="M99.6742 135.253l10.0908 37.658c1.006 3.757-3.007 6.848-6.36 4.899l-6.0918-3.541-4.3519-16.241c-2.966 2.16-6.3712 3.817-10.1239 4.823-9.032 2.42-18.2087.559-25.3933-4.348l-2.9837-11.135 45.2138-12.115z" fill="url(#paint5_linear)"/><path d="M54.4604 147.368l13.7228-3.677 8.6812 32.398-4.7978 8.363c-1.9293 3.364-6.9479 2.693-7.9546-1.064l-9.6516-36.02z" fill="url(#paint6_linear)"/><path d="M73.5929 163.88l-5.4097-20.189-13.7228 3.677 2.9837 11.135c4.7242 3.226 10.3098 5.135 16.1488 5.377z" fill="url(#paint7_linear)"/><path d="M99.6744 135.253l10.0906 37.658c1.007 3.757-3.007 6.848-6.36 4.899l-8.3333-4.844-9.12-34.036 13.7227-3.677z" fill="url(#paint8_linear)"/><path d="M92.9616 158.028l4.3518 16.241 6.0916 3.541c3.353 1.949 7.367-1.142 6.36-4.899l-10.0906-37.658-13.7227 3.677 5.4072 20.18c.5456-.347 1.0834-.704 1.6027-1.082z" fill="url(#paint9_linear)"/><path d="M80.825 155.333c16.5009-4.422 26.272-21.462 21.825-38.06-4.4481-16.599-21.4302-26.4706-37.9311-22.0492-16.5009 4.4214-26.2721 21.4612-21.8245 38.0602 4.4475 16.598 21.4296 26.47 37.9306 22.049z" fill="url(#paint10_linear)"/><path d="M64.7188 95.2241c-2.0478.5487-3.9915 1.2921-5.8176 2.2047 14.3824-.8677 27.8945 8.5092 31.7901 23.0482 3.8955 14.538-3.1176 29.416-16.0069 35.855 2.0376-.123 4.0927-.45 6.1405-.999 16.5008-4.422 26.2721-21.461 21.8241-38.06-4.4472-16.599-21.4294-26.4703-37.9302-22.0489z" fill="url(#paint11_linear)"/><path d="M77.603 143.309c9.8998-2.653 15.762-12.876 13.0937-22.834-2.6684-9.958-12.8568-15.881-22.7565-13.228-9.8997 2.652-15.762 12.876-13.0936 22.834 2.6683 9.958 12.8567 15.881 22.7564 13.228z" fill="url(#paint12_linear)"/><path d="M140.454 63.4291L63.3011 84.1022c-.9678.2593-1.9638-.3197-2.2247-1.2932l-1.9171-7.1547c-.2608-.9735.3123-1.9729 1.28-2.2322L137.592 52.749c.968-.2593 1.964.3197 2.225 1.2932l1.917 7.1547c.261.9735-.312 1.9729-1.28 2.2322z" fill="url(#paint13_linear)"/><path d="M100.356 49.6337L57.1663 61.2062c-.9677.2593-1.9638-.3197-2.2246-1.2932l-1.9171-7.1547c-.2609-.9735.3122-1.9729 1.28-2.2322l43.1892-11.5725c.9677-.2593 1.9638.3196 2.2246 1.2931l1.9176 7.1548c.26.9734-.313 1.9729-1.28 2.2322z" fill="url(#paint14_linear)"/><path d="M152.724 109.221l-36.824 9.867c-.968.259-1.964-.32-2.224-1.293l-1.918-7.155c-.26-.973.313-1.973 1.28-2.232l36.825-9.8671c.967-.2593 1.963.3197 2.224 1.2932l1.917 7.1549c.261.973-.312 1.973-1.28 2.232z" fill="url(#paint15_linear)"/><path d="M146.589 86.325l-36.824 9.867c-.968.2593-1.964-.3197-2.225-1.2931l-1.917-7.1548c-.261-.9734.312-1.9729 1.28-2.2322l36.824-9.867c.968-.2593 1.964.3197 2.225 1.2932l1.917 7.1547c.261.9735-.312 1.9729-1.28 2.2322z" fill="url(#paint16_linear)"/><path d="M158.859 132.117l-36.824 9.867c-.968.26-1.964-.319-2.225-1.293l-1.917-7.154c-.261-.974.312-1.973 1.28-2.233l36.824-9.867c.968-.259 1.964.32 2.225 1.294l1.917 7.154c.261.974-.312 1.973-1.28 2.232z" fill="url(#paint17_linear)"/></g><defs><linearGradient id="paint0_linear" x1="46.1872" y1="107.504" x2="169.002" y2="74.596" gradientUnits="userSpaceOnUse"><stop stop-color="#F9F3F1"/><stop offset=".5725" stop-color="#EFE2DD"/><stop offset="1" stop-color="#CDBFBA"/></linearGradient><linearGradient id="paint1_linear" x1="66.4098" y1="102.085" x2="140.146" y2="82.3277" gradientUnits="userSpaceOnUse"><stop stop-color="#F9F3F1"/><stop offset=".5725" stop-color="#EFE2DD"/><stop offset="1" stop-color="#CDBFBA"/></linearGradient><linearGradient id="paint2_linear" x1="101.443" y1="34.081" x2="152.281" y2="20.4591" gradientUnits="userSpaceOnUse"><stop stop-color="#F9F3F1"/><stop offset=".5725" stop-color="#EFE2DD"/><stop offset="1" stop-color="#CDBFBA"/></linearGradient><linearGradient id="paint3_linear" x1="30.7776" y1="146.631" x2="108.873" y2="125.706" gradientUnits="userSpaceOnUse"><stop stop-color="#F9F3F1"/><stop offset=".5725" stop-color="#EFE2DD"/><stop offset="1" stop-color="#CDBFBA"/></linearGradient><linearGradient id="paint4_linear" x1="75.8063" y1="164.094" x2="96.8248" y2="158.463" gradientUnits="userSpaceOnUse"><stop stop-color="#F9F3F1"/><stop offset=".5725" stop-color="#EFE2DD"/><stop offset="1" stop-color="#CDBFBA"/></linearGradient><linearGradient id="paint5_linear" x1="49.513" y1="171.138" x2="91.7222" y2="159.829" gradientUnits="userSpaceOnUse"><stop stop-color="#F9F3F1"/><stop offset=".5725" stop-color="#EFE2DD"/><stop offset="1" stop-color="#CDBFBA"/></linearGradient><linearGradient id="paint6_linear" x1="54.6715" y1="168.878" x2="75.962" y2="163.174" gradientUnits="userSpaceOnUse"><stop stop-color="#FE646F"/><stop offset=".5725" stop-color="#FB2B3A"/><stop offset="1" stop-color="#C41926"/></linearGradient><linearGradient id="paint7_linear" x1="47.0048" y1="160.185" x2="70.6974" y2="153.836" gradientUnits="userSpaceOnUse"><stop stop-color="#FE646F"/><stop offset=".5725" stop-color="#FB2B3A"/><stop offset="1" stop-color="#C41926"/></linearGradient><linearGradient id="paint8_linear" x1="83.3744" y1="162.065" x2="110.092" y2="154.906" gradientUnits="userSpaceOnUse"><stop stop-color="#6BD9E7"/><stop offset=".5725" stop-color="#26A6FE"/><stop offset="1" stop-color="#0172FB"/></linearGradient><linearGradient id="paint9_linear" x1="71.3239" y1="165.294" x2="102.731" y2="156.879" gradientUnits="userSpaceOnUse"><stop stop-color="#6BD9E7"/><stop offset=".5725" stop-color="#26A6FE"/><stop offset="1" stop-color="#0172FB"/></linearGradient><linearGradient id="paint10_linear" x1="42.7946" y1="133.311" x2="116.1" y2="113.669" gradientUnits="userSpaceOnUse"><stop stop-color="#FFE177"/><stop offset=".5725" stop-color="#FEB137"/><stop offset="1" stop-color="#FE646F"/></linearGradient><linearGradient id="paint11_linear" x1="32.7359" y1="136.006" x2="104.038" y2="116.901" gradientUnits="userSpaceOnUse"><stop stop-color="#FFE177"/><stop offset=".5725" stop-color="#FEB137"/><stop offset="1" stop-color="#FE646F"/></linearGradient><linearGradient id="paint12_linear" x1="42.5938" y1="133.364" x2="95.0887" y2="119.298" gradientUnits="userSpaceOnUse"><stop stop-color="#FFE177"/><stop offset=".5725" stop-color="#FEB137"/><stop offset="1" stop-color="#FE646F"/></linearGradient><linearGradient id="paint13_linear" x1="62.6882" y1="78.5429" x2="140.217" y2="57.7693" gradientUnits="userSpaceOnUse"><stop stop-color="#537983"/><stop offset="1" stop-color="#3E5959"/></linearGradient><linearGradient id="paint14_linear" x1="57.1731" y1="55.4809" x2="153.392" y2="29.6991" gradientUnits="userSpaceOnUse"><stop stop-color="#537983"/><stop offset="1" stop-color="#3E5959"/></linearGradient><linearGradient id="paint15_linear" x1="69.3443" y1="125.839" x2="152.447" y2="103.572" gradientUnits="userSpaceOnUse"><stop stop-color="#537983"/><stop offset="1" stop-color="#3E5959"/></linearGradient><linearGradient id="paint16_linear" x1="63.2091" y1="102.943" x2="146.312" y2="80.6759" gradientUnits="userSpaceOnUse"><stop stop-color="#537983"/><stop offset="1" stop-color="#3E5959"/></linearGradient><linearGradient id="paint17_linear" x1="75.4791" y1="148.736" x2="158.582" y2="126.468" gradientUnits="userSpaceOnUse"><stop stop-color="#537983"/><stop offset="1" stop-color="#3E5959"/></linearGradient><clipPath id="clip0"><path fill="#fff" transform="rotate(-15 160.31469042 10.96739465)" d="M0 0h157.751v158.684H0z"/></clipPath><filter id="filter0_d" x="-18.376" y="1.03711" width="235.446" height="239.106" filterUnits="userSpaceOnUse" color-interpolation-filters="sRGB"><feFlood flood-opacity="0" result="BackgroundImageFix"/><feColorMatrix in="SourceAlpha" values="0 0 0 0 0 0 0 0 0 0 0 0 0 0 0 0 0 0 127 0"/><feOffset dy="24"/><feGaussianBlur stdDeviation="10.5"/><feColorMatrix values="0 0 0 0 0 0 0 0 0 0 0 0 0 0 0 0 0 0 0.09 0"/><feBlend in2="BackgroundImageFix" result="effect1_dropShadow"/><feBlend in="SourceGraphic" in2="effect1_dropShadow" result="shape"/></filter></defs></svg>