<svg width="199" height="260" viewBox="0 0 199 260" fill="none" xmlns="http://www.w3.org/2000/svg">
<rect x="2.63086" y="2" width="193.369" height="193.369" rx="44" fill="#8482FF" fill-opacity="0.23" stroke="#8482FF" stroke-width="4"/>
<path d="M65.8644 255.242H66.5036C69.5654 255.242 70.4155 253.178 70.6009 248.876L70.8054 244.101H74.8516V255.242H77.1719V242.151H68.5938L68.3765 248.141C68.2358 251.854 67.7373 253.171 66.2351 253.254L65.8644 253.273V255.242ZM84.0018 255.434C86.2902 255.434 87.8626 254.315 88.2717 252.609L86.1112 252.366C85.798 253.197 85.0309 253.631 84.0338 253.631C82.538 253.631 81.5473 252.647 81.5281 250.966H88.3676V250.256C88.3676 246.811 86.2966 245.296 83.8804 245.296C81.0679 245.296 79.2334 247.361 79.2334 250.391C79.2334 253.472 81.0423 255.434 84.0018 255.434ZM81.5345 249.406C81.6048 248.153 82.5316 247.099 83.9123 247.099C85.2419 247.099 86.1368 248.07 86.1495 249.406H81.5345ZM90.3252 255.242H92.6391V251.541H93.7705L96.4615 255.242H99.2612L95.5858 250.244L99.2229 245.424H96.4359L93.4828 249.387H92.6391V245.424H90.3252V255.242ZM108.864 245.424H106.652V253.344H102.804V245.424H100.573V255.242H108.103V258.4H110.366V253.516H108.864V245.424ZM114.493 252.11V245.424H112.263V255.242H114.647L118.565 248.55V255.242H120.802V245.424H118.425L114.493 252.11ZM125.409 252.11V245.424H123.179V255.242H125.563L129.481 248.55V255.242H131.718V245.424H129.341L125.409 252.11Z" fill="white"/>
<g clip-path="url(#clip0)" filter="url(#filter0_d)">
<path d="M105.604 14.2726L42.1091 31.286C37.7559 32.4524 35.1782 36.9477 36.3515 41.3266L70.758 169.733C71.9313 174.112 76.4113 176.716 80.7645 175.55L171.055 151.357C175.408 150.19 177.986 145.695 176.812 141.316L149.628 39.8634L105.604 14.2726Z" fill="url(#paint0_linear)"/>
<path d="M171.054 151.357L159.097 154.561C163.451 153.394 166.028 148.899 164.855 144.52L141.864 58.7172C140.666 54.2445 136.09 51.5846 131.643 52.776L116.445 56.8484C112.61 57.876 108.663 55.5818 107.63 51.7243L98.1309 16.2749L105.604 14.2726L149.628 39.8633L176.812 141.316C177.985 145.695 175.408 150.19 171.054 151.357Z" fill="url(#paint1_linear)"/>
<path d="M105.604 14.2725L113.079 42.1704C114.112 46.0279 118.059 48.3221 121.894 47.2946L149.628 39.8633C144.466 20.5981 124.755 9.14075 105.604 14.2725Z" fill="url(#paint2_linear)"/>
<path d="M108.117 136.868C111.234 130.385 112.134 122.783 110.121 115.27C105.674 98.6717 88.6916 88.8001 72.1908 93.2214C64.2712 95.3435 57.9034 100.373 53.912 106.865L70.7576 169.733C71.9309 174.112 76.4109 176.717 80.7641 175.55L83.9935 174.685L86.6457 170.06C88.626 166.606 93.0219 165.428 96.464 167.429L101.073 170.108L115.955 166.121L108.117 136.868Z" fill="url(#paint3_linear)"/>
<path d="M88.9921 169.431L103.407 177.81C106.76 179.76 110.772 176.668 109.766 172.91L99.6756 135.254L54.4609 147.369L64.1122 183.388C65.1191 187.146 70.1395 187.817 72.0691 184.452L79.174 172.062C81.1544 168.608 85.5503 167.431 88.9921 169.431Z" fill="url(#paint4_linear)"/>
<path d="M99.6742 135.253L109.765 172.911C110.771 176.668 106.758 179.759 103.405 177.81L97.3132 174.269L92.9613 158.028C89.9953 160.188 86.5901 161.845 82.8374 162.851C73.8054 165.271 64.6287 163.41 57.4441 158.503L54.4604 147.368L99.6742 135.253Z" fill="url(#paint5_linear)"/>
<path d="M54.4604 147.368L68.1832 143.691L76.8644 176.089L72.0666 184.452C70.1373 187.816 65.1187 187.145 64.112 183.388L54.4604 147.368Z" fill="url(#paint6_linear)"/>
<path d="M73.5929 163.88L68.1832 143.691L54.4604 147.368L57.4441 158.503C62.1683 161.729 67.7539 163.638 73.5929 163.88Z" fill="url(#paint7_linear)"/>
<path d="M99.6744 135.253L109.765 172.911C110.772 176.668 106.758 179.759 103.405 177.81L95.0717 172.966L85.9517 138.93L99.6744 135.253Z" fill="url(#paint8_linear)"/>
<path d="M92.9616 158.028L97.3134 174.269L103.405 177.81C106.758 179.759 110.772 176.668 109.765 172.911L99.6744 135.253L85.9517 138.93L91.3589 159.11C91.9045 158.763 92.4423 158.406 92.9616 158.028Z" fill="url(#paint9_linear)"/>
<path d="M80.825 155.333C97.3259 150.911 107.097 133.871 102.65 117.273C98.2019 100.674 81.2198 90.8024 64.7189 95.2238C48.218 99.6452 38.4468 116.685 42.8944 133.284C47.3419 149.882 64.324 159.754 80.825 155.333Z" fill="url(#paint10_linear)"/>
<path d="M64.7188 95.2241C62.671 95.7728 60.7273 96.5162 58.9012 97.4288C73.2836 96.5611 86.7957 105.938 90.6913 120.477C94.5868 135.015 87.5737 149.893 74.6844 156.332C76.722 156.209 78.7771 155.882 80.8249 155.333C97.3257 150.911 107.097 133.872 102.649 117.273C98.2018 100.674 81.2196 90.8027 64.7188 95.2241Z" fill="url(#paint11_linear)"/>
<path d="M77.603 143.309C87.5028 140.656 93.365 130.433 90.6967 120.475C88.0283 110.517 77.8399 104.594 67.9402 107.247C58.0405 109.899 52.1782 120.123 54.8466 130.081C57.5149 140.039 67.7033 145.962 77.603 143.309Z" fill="url(#paint12_linear)"/>
<path d="M140.454 63.4291L63.3011 84.1022C62.3333 84.3615 61.3373 83.7825 61.0764 82.809L59.1593 75.6543C58.8985 74.6808 59.4716 73.6814 60.4393 73.4221L137.592 52.749C138.56 52.4897 139.556 53.0687 139.817 54.0422L141.734 61.1969C141.995 62.1704 141.422 63.1698 140.454 63.4291Z" fill="url(#paint13_linear)"/>
<path d="M100.356 49.6337L57.1663 61.2062C56.1986 61.4655 55.2025 60.8865 54.9417 59.913L53.0246 52.7583C52.7637 51.7848 53.3368 50.7854 54.3046 50.5261L97.4938 38.9536C98.4615 38.6943 99.4576 39.2732 99.7184 40.2467L101.636 47.4015C101.896 48.3749 101.323 49.3744 100.356 49.6337Z" fill="url(#paint14_linear)"/>
<path d="M152.724 109.221L115.9 119.088C114.932 119.347 113.936 118.768 113.676 117.795L111.758 110.64C111.498 109.667 112.071 108.667 113.038 108.408L149.863 98.5409C150.83 98.2816 151.826 98.8606 152.087 99.8341L154.004 106.989C154.265 107.962 153.692 108.962 152.724 109.221Z" fill="url(#paint15_linear)"/>
<path d="M146.589 86.325L109.765 96.192C108.797 96.4513 107.801 95.8723 107.54 94.8989L105.623 87.7441C105.362 86.7707 105.935 85.7712 106.903 85.5119L143.727 75.6449C144.695 75.3856 145.691 75.9646 145.952 76.9381L147.869 84.0928C148.13 85.0663 147.557 86.0657 146.589 86.325Z" fill="url(#paint16_linear)"/>
<path d="M158.859 132.117L122.035 141.984C121.067 142.244 120.071 141.665 119.81 140.691L117.893 133.537C117.632 132.563 118.205 131.564 119.173 131.304L155.997 121.437C156.965 121.178 157.961 121.757 158.222 122.731L160.139 129.885C160.4 130.859 159.827 131.858 158.859 132.117Z" fill="url(#paint17_linear)"/>
</g>
<defs>
<filter id="filter0_d" x="-18.376" y="1.03711" width="235.446" height="239.106" filterUnits="userSpaceOnUse" color-interpolation-filters="sRGB">
<feFlood flood-opacity="0" result="BackgroundImageFix"/>
<feColorMatrix in="SourceAlpha" type="matrix" values="0 0 0 0 0 0 0 0 0 0 0 0 0 0 0 0 0 0 127 0"/>
<feOffset dy="24"/>
<feGaussianBlur stdDeviation="10.5"/>
<feColorMatrix type="matrix" values="0 0 0 0 0 0 0 0 0 0 0 0 0 0 0 0 0 0 0.09 0"/>
<feBlend mode="normal" in2="BackgroundImageFix" result="effect1_dropShadow"/>
<feBlend mode="normal" in="SourceGraphic" in2="effect1_dropShadow" result="shape"/>
</filter>
<linearGradient id="paint0_linear" x1="46.1872" y1="107.504" x2="169.002" y2="74.596" gradientUnits="userSpaceOnUse">
<stop stop-color="#F9F3F1"/>
<stop offset="0.5725" stop-color="#EFE2DD"/>
<stop offset="1" stop-color="#CDBFBA"/>
</linearGradient>
<linearGradient id="paint1_linear" x1="66.4098" y1="102.085" x2="140.146" y2="82.3277" gradientUnits="userSpaceOnUse">
<stop stop-color="#F9F3F1"/>
<stop offset="0.5725" stop-color="#EFE2DD"/>
<stop offset="1" stop-color="#CDBFBA"/>
</linearGradient>
<linearGradient id="paint2_linear" x1="101.443" y1="34.081" x2="152.281" y2="20.4591" gradientUnits="userSpaceOnUse">
<stop stop-color="#F9F3F1"/>
<stop offset="0.5725" stop-color="#EFE2DD"/>
<stop offset="1" stop-color="#CDBFBA"/>
</linearGradient>
<linearGradient id="paint3_linear" x1="30.7776" y1="146.631" x2="108.873" y2="125.706" gradientUnits="userSpaceOnUse">
<stop stop-color="#F9F3F1"/>
<stop offset="0.5725" stop-color="#EFE2DD"/>
<stop offset="1" stop-color="#CDBFBA"/>
</linearGradient>
<linearGradient id="paint4_linear" x1="75.8063" y1="164.094" x2="96.8248" y2="158.463" gradientUnits="userSpaceOnUse">
<stop stop-color="#F9F3F1"/>
<stop offset="0.5725" stop-color="#EFE2DD"/>
<stop offset="1" stop-color="#CDBFBA"/>
</linearGradient>
<linearGradient id="paint5_linear" x1="49.513" y1="171.138" x2="91.7222" y2="159.829" gradientUnits="userSpaceOnUse">
<stop stop-color="#F9F3F1"/>
<stop offset="0.5725" stop-color="#EFE2DD"/>
<stop offset="1" stop-color="#CDBFBA"/>
</linearGradient>
<linearGradient id="paint6_linear" x1="54.6715" y1="168.878" x2="75.962" y2="163.174" gradientUnits="userSpaceOnUse">
<stop stop-color="#FE646F"/>
<stop offset="0.5725" stop-color="#FB2B3A"/>
<stop offset="1" stop-color="#C41926"/>
</linearGradient>
<linearGradient id="paint7_linear" x1="47.0048" y1="160.185" x2="70.6974" y2="153.836" gradientUnits="userSpaceOnUse">
<stop stop-color="#FE646F"/>
<stop offset="0.5725" stop-color="#FB2B3A"/>
<stop offset="1" stop-color="#C41926"/>
</linearGradient>
<linearGradient id="paint8_linear" x1="83.3744" y1="162.065" x2="110.092" y2="154.906" gradientUnits="userSpaceOnUse">
<stop stop-color="#6BD9E7"/>
<stop offset="0.5725" stop-color="#26A6FE"/>
<stop offset="1" stop-color="#0172FB"/>
</linearGradient>
<linearGradient id="paint9_linear" x1="71.3239" y1="165.294" x2="102.731" y2="156.879" gradientUnits="userSpaceOnUse">
<stop stop-color="#6BD9E7"/>
<stop offset="0.5725" stop-color="#26A6FE"/>
<stop offset="1" stop-color="#0172FB"/>
</linearGradient>
<linearGradient id="paint10_linear" x1="42.7946" y1="133.311" x2="116.1" y2="113.669" gradientUnits="userSpaceOnUse">
<stop stop-color="#FFE177"/>
<stop offset="0.5725" stop-color="#FEB137"/>
<stop offset="1" stop-color="#FE646F"/>
</linearGradient>
<linearGradient id="paint11_linear" x1="32.7359" y1="136.006" x2="104.038" y2="116.901" gradientUnits="userSpaceOnUse">
<stop stop-color="#FFE177"/>
<stop offset="0.5725" stop-color="#FEB137"/>
<stop offset="1" stop-color="#FE646F"/>
</linearGradient>
<linearGradient id="paint12_linear" x1="42.5938" y1="133.364" x2="95.0887" y2="119.298" gradientUnits="userSpaceOnUse">
<stop stop-color="#FFE177"/>
<stop offset="0.5725" stop-color="#FEB137"/>
<stop offset="1" stop-color="#FE646F"/>
</linearGradient>
<linearGradient id="paint13_linear" x1="62.6882" y1="78.5429" x2="140.217" y2="57.7693" gradientUnits="userSpaceOnUse">
<stop stop-color="#537983"/>
<stop offset="1" stop-color="#3E5959"/>
</linearGradient>
<linearGradient id="paint14_linear" x1="57.1731" y1="55.4809" x2="153.392" y2="29.6991" gradientUnits="userSpaceOnUse">
<stop stop-color="#537983"/>
<stop offset="1" stop-color="#3E5959"/>
</linearGradient>
<linearGradient id="paint15_linear" x1="69.3443" y1="125.839" x2="152.447" y2="103.572" gradientUnits="userSpaceOnUse">
<stop stop-color="#537983"/>
<stop offset="1" stop-color="#3E5959"/>
</linearGradient>
<linearGradient id="paint16_linear" x1="63.2091" y1="102.943" x2="146.312" y2="80.6759" gradientUnits="userSpaceOnUse">
<stop stop-color="#537983"/>
<stop offset="1" stop-color="#3E5959"/>
</linearGradient>
<linearGradient id="paint17_linear" x1="75.4791" y1="148.736" x2="158.582" y2="126.468" gradientUnits="userSpaceOnUse">
<stop stop-color="#537983"/>
<stop offset="1" stop-color="#3E5959"/>
</linearGradient>
<clipPath id="clip0">
<rect width="157.751" height="158.684" fill="white" transform="translate(2.62402 41.8662) rotate(-15)"/>
</clipPath>
</defs>
</svg>
