<svg width="83" height="79" fill="none" xmlns="http://www.w3.org/2000/svg"><path d="M11.0437 45.4213l.0001.0001 2.2738-2.2737c.6363-.6364 1.472-.9544 2.3069-.9547m-4.5808 3.2283l4.582-2.9783m-4.582 2.9783l-.0071.0076c-2.92662 3.1799 1.4372 7.5416 4.6156 4.6155l.0001.0001.0073-.0073 2.2734-2.2733m-6.8893-2.3426l6.7129 2.1654m-2.1321-5.3937h.0012v.25m-.0012-.25h-.0005l.0017.25m-.0012-.25c2.87-.0186 4.365 3.5242 2.3085 5.5709m-2.3073-5.3209c2.6469-.0176 4.0286 3.2551 2.1309 5.1437m.1764.1772l.0004-.0004-.1768-.1768m.1764.1772l-.1764-.1772m2.7851 4.3876l.0001-.0001c.6158-.6153 1.4356-.9547 2.3061-.9548l-2.3062.9549zm0 0l-2.275 2.2748.1768.1768m2.0982-2.4516l-2.0982 2.4516m0 0l-.1768-.1768m.1768.1768l-.1768-.1768m0 0c-.6155.6155-.9554 1.435-.9561 2.3055m.9561-2.3055l-.9561 2.3055m0 0c-.0349 1.7596 1.5054 3.2999 3.2643 3.2664 1.0283.0149 1.9324-.497 2.5805-1.2288l2.0005-2.0005c2.0496-2.0423.5847-5.5769-2.3075-5.5723l-5.5378 5.5352zM75.8584 7.60438l.0005.0005c9.1879 9.18792 9.1879 24.13862-.0003 33.32662l-2.4208 2.4207-.078.078.005.1102c.1989 4.3537-3.5143 8.2195-7.7874 8.2844l-.2424.0037-.0038.2424c-.0634 4.1173-3.6604 7.7155-7.7789 7.7791l-.2424.0037-.0037.2425c-.0622 4.0768-3.6004 7.6631-7.6796 7.7768l-.235.0065-.0079.2349c-.1137 3.3738-1.7179 4.9445-3.9306 7.111-.2281.2233-.4626.453-.7026.6916l-.0012.0012c-4.3535 4.3844-11.9454 2.3475-13.5238-3.609l-.0646-.2438-.2432.0668c-4.8093 1.3207-9.8305-2.2613-10.1107-7.2578l-.0135-.24-.2403.004c-4.5672.0771-8.4365-4.0915-8.0396-8.6281l.021-.2405-.2396-.0294c-6.63077-.8151-9.42535-9.1826-4.55184-13.8372l.19153-.1829-.19366-.1807C-1.9798 32.4713-2.30021 16.9995 7.13279 7.60542l.00086-.00087c9.48545-9.53929 25.14305-9.06637 34.17755.8517l.1849.2029.1848-.20291c9.0338-9.9184 24.6921-10.39082 34.1775-.85186zM33.4491 59.733l-.0003-.0003c-1.4162-1.4108-3.6332-1.2084-4.8906.2753l-1.9951 1.9953c-.0007.0007-.0013.0013-.002.0019-1.2691 1.2199-1.2691 3.3992 0 4.6192 1.273 1.2714 3.342 1.271 4.6141-.0016l2.2739-2.2739.0001-.0001c1.2726-1.273 1.2726-3.3429-.0001-4.6158zm3.154-36.0089l-5.0947-5.0947 6.4019-6.4018.1668-.1669-.157-.1762c-7.1594-8.03616-19.7522-8.54796-27.3772-.8703-7.66832 7.6164-7.1712 20.1921.8473 27.3547l.1339.1197.1562-.0888c5.5097-3.1315 12.4947 1.2503 12.0063 7.6051l-.0185.2417.241.026c3.6948.3992 6.831 3.7502 6.9994 7.4485l.0111.2439.2441-.0053c3.4729-.0757 6.9376 2.534 7.7783 5.9693l.0604.2467.2457-.0643c2.6485-.6927 5.5795-.0244 7.6763 2.0027l.1767.1708.006-.006c1.2811 1.1 3.2192 1.0433 4.4325-.1701 1.2729-1.2728 1.2729-3.3432 0-4.616l-11.641-11.6411-.024-.024 3.4093-3.4093.0241.024 11.641 11.641c1.2728 1.2728 3.343 1.2733 4.6158 0 1.2727-1.2728 1.2727-3.3429 0-4.6158l-.1767.1768.1767-.1768-11.665-11.6651 3.4093-3.4093 11.6615 11.6613c.0006.0007.0012.0013.0018.002 1.2201 1.2694 3.3996 1.2691 4.6196-.0002 1.2707-1.273 1.27-3.3418-.0014-4.6138l-.1768.1767.1768-.1768-16.0462-16.0463-.1412-.1412-.1689.1066c-4.5559 2.8738-10.6665 2.3276-14.6312-1.6374l-.1768.1767.1768-.1767zm35.8464 13.7981l.0002.0001.007-.0076C89.3001 19.2226 64.254-5.84041 45.9495 11.0071l-.0002-.0002-.0073.0073-7.4384 7.4384-.1768.1768.1768.1768 1.5085 1.5085.1768-.1768-.1768.1768c2.7189 2.7187 7.1416 2.7183 9.8599 0l1.7048-1.7046 19.4228 19.423c.095.095.1875.1921.2772.291l.1764.1943.1855-.1855.8108-.8107zM41.3408 72.5081l2.27-2.2701c.0007-.0006.0013-.0012.0019-.0018 1.2694-1.2202 1.2692-3.3995-.0002-4.6196-1.2728-1.2708-3.342-1.2703-4.614.002l-2.2698 2.2701c-.0007.0006-.0014.0013-.002.0019-1.2698 1.2201-1.2691 3.3995 0 4.6195.6159.6149 1.4356.9541 2.3061.9541.8713 0 1.6918-.3399 2.308-.9561z" fill="#8482FF" stroke="#fff" stroke-width=".5"/></svg>