<svg width="83" height="79" viewBox="0 0 83 79" fill="none" xmlns="http://www.w3.org/2000/svg">
<path d="M11.0437 45.4213L11.0438 45.4214L13.3176 43.1477C13.9539 42.5113 14.7896 42.1933 15.6245 42.193M11.0437 45.4213L15.6257 42.443M11.0437 45.4213L11.0366 45.4289C8.10998 48.6088 12.4738 52.9705 15.6522 50.0444L15.6523 50.0445L15.6596 50.0372L17.933 47.7639M11.0437 45.4213L17.7566 47.5867M15.6245 42.193C15.6249 42.193 15.6253 42.193 15.6257 42.193V42.443M15.6245 42.193C15.6244 42.193 15.6242 42.193 15.624 42.193L15.6257 42.443M15.6245 42.193C18.4945 42.1744 19.9895 45.7172 17.933 47.7639M15.6257 42.443C18.2726 42.4254 19.6543 45.6981 17.7566 47.5867M17.933 47.7639L17.9334 47.7635L17.7566 47.5867M17.933 47.7639L17.7566 47.5867M20.5417 51.9743L20.5418 51.9742C21.1576 51.3589 21.9774 51.0195 22.8479 51.0194L20.5417 51.9743ZM20.5417 51.9743L18.2667 54.2491L18.4435 54.4259M20.5417 51.9743L18.4435 54.4259M18.4435 54.4259L18.2667 54.2491M18.4435 54.4259L18.2667 54.2491M18.2667 54.2491C17.6512 54.8646 17.3113 55.6841 17.3106 56.5546M18.2667 54.2491L17.3106 56.5546M17.3106 56.5546C17.2757 58.3142 18.816 59.8545 20.5749 59.821C21.6032 59.8359 22.5073 59.324 23.1554 58.5922L25.1559 56.5917C27.2055 54.5494 25.7406 51.0148 22.8484 51.0194L17.3106 56.5546ZM75.8584 7.60438L75.8589 7.60488C85.0468 16.7928 85.0468 31.7435 75.8586 40.9315L73.4378 43.3522L73.3598 43.4302L73.3648 43.5404C73.5637 47.8941 69.8505 51.7599 65.5774 51.8248L65.335 51.8285L65.3312 52.0709C65.2678 56.1882 61.6708 59.7864 57.5523 59.85L57.3099 59.8537L57.3062 60.0962C57.244 64.173 53.7058 67.7593 49.6266 67.873L49.3916 67.8795L49.3837 68.1144C49.27 71.4882 47.6658 73.0589 45.4531 75.2254C45.225 75.4487 44.9905 75.6784 44.7505 75.917L44.7493 75.9182C40.3958 80.3026 32.8039 78.2657 31.2255 72.3092L31.1609 72.0654L30.9177 72.1322C26.1084 73.4529 21.0872 69.8709 20.807 64.8744L20.7935 64.6344L20.5532 64.6384C15.986 64.7155 12.1167 60.5469 12.5136 56.0103L12.5346 55.7698L12.295 55.7404C5.66423 54.9253 2.86965 46.5578 7.74316 41.9032L7.93469 41.7203L7.74103 41.5396C-1.9798 32.4713 -2.30021 16.9995 7.13279 7.60542L7.13365 7.60455C16.6191 -1.93474 32.2767 -1.46182 41.3112 8.45625L41.4961 8.65915L41.6809 8.45624C50.7147 -1.46216 66.373 -1.93458 75.8584 7.60438ZM33.4491 59.733L33.4488 59.7327C32.0326 58.3219 29.8156 58.5243 28.5582 60.008L26.5631 62.0033C26.5624 62.004 26.5618 62.0046 26.5611 62.0052C25.292 63.2251 25.292 65.4044 26.5611 66.6244C27.8341 67.8958 29.9031 67.8954 31.1752 66.6228L33.4491 64.3489L33.4492 64.3488C34.7218 63.0758 34.7218 61.0059 33.4491 59.733ZM36.6031 23.7241L31.5084 18.6294L37.9103 12.2276L38.0771 12.0607L37.9201 11.8845C30.7607 3.84834 18.1679 3.33654 10.5429 11.0142C2.87458 18.6306 3.3717 31.2063 11.3902 38.3689L11.5241 38.4886L11.6803 38.3998C17.19 35.2683 24.175 39.6501 23.6866 46.0049L23.6681 46.2466L23.9091 46.2726C27.6039 46.6718 30.7401 50.0228 30.9085 53.7211L30.9196 53.965L31.1637 53.9597C34.6366 53.884 38.1013 56.4937 38.942 59.929L39.0024 60.1757L39.2481 60.1114C41.8966 59.4187 44.8276 60.087 46.9244 62.1141L47.1011 62.2849L47.1071 62.2789C48.3882 63.3789 50.3263 63.3222 51.5396 62.1088C52.8125 60.836 52.8125 58.7656 51.5396 57.4928L39.8986 45.8517L39.8746 45.8277L43.2839 42.4184L43.308 42.4424L54.949 54.0834C56.2218 55.3562 58.292 55.3567 59.5648 54.0834C60.8375 52.8106 60.8375 50.7405 59.5648 49.4676L59.3881 49.6444L59.5648 49.4676L47.8998 37.8025L51.3091 34.3932L62.9706 46.0545C62.9712 46.0552 62.9718 46.0558 62.9724 46.0565C64.1925 47.3259 66.372 47.3256 67.592 46.0563C68.8627 44.7833 68.862 42.7145 67.5906 41.4425L67.4138 41.6192L67.5906 41.4424L51.5444 25.3961L51.4032 25.2549L51.2343 25.3615C46.6784 28.2353 40.5678 27.6891 36.6031 23.7241L36.4263 23.9008L36.6031 23.7241ZM72.4495 37.5222L72.4497 37.5223L72.4567 37.5147C89.3001 19.2226 64.254 -5.84041 45.9495 11.0071L45.9493 11.0069L45.942 11.0142L38.5036 18.4526L38.3268 18.6294L38.5036 18.8062L40.0121 20.3147L40.1889 20.1379L40.0121 20.3147C42.731 23.0334 47.1537 23.033 49.872 20.3147L51.5768 18.6101L70.9996 38.0331C71.0946 38.1281 71.1871 38.2252 71.2768 38.3241L71.4532 38.5184L71.6387 38.3329L72.4495 37.5222ZM41.3408 72.5081L43.6108 70.238C43.6115 70.2374 43.6121 70.2368 43.6127 70.2362C44.8821 69.016 44.8819 66.8367 43.6125 65.6166C42.3397 64.3458 40.2705 64.3463 38.9985 65.6186L36.7287 67.8887C36.728 67.8893 36.7273 67.89 36.7267 67.8906C35.4569 69.1107 35.4576 71.2901 36.7267 72.5101C37.3426 73.125 38.1623 73.4642 39.0328 73.4642C39.9041 73.4642 40.7246 73.1243 41.3408 72.5081Z" fill="#8482FF" stroke="white" stroke-width="0.5"/>
</svg>
