<svg width="81" height="81" fill="none" xmlns="http://www.w3.org/2000/svg"><path d="M37.6999 54.5019c.2829.2124.6385.3036.9885.2535.3501-.05.666-.2373.8781-.5205l6.0001-8.0099c.1486-.1984.239-.4342.2613-.6811.0222-.2469-.0247-.4952-.1354-.7169-.1108-.2218-.281-.4083-.4916-.5386-.2107-.1304-.4534-.1994-.701-.1994h-5.3334l4.4001-5.8739c.2121-.2833.3032-.6393.2532-.9898-.05-.3505-.237-.6668-.5199-.8792-.2829-.2124-.6385-.3036-.9886-.2536-.35.0501-.6659.2374-.8781.5206l-6 8.0099c-.1486.1983-.2391.4342-.2613.6811-.0222.2469.0246.4952.1354.7169.1107.2218.2809.4082.4916.5386.2106.1303.4533.1994.7009.1994h5.3334l-4.4 5.8739c-.1051.1402-.1815.2998-.225.4697-.0434.1698-.053.3465-.0283.5201.0248.1735.0834.3405.1727.4913.0892.1509.2072.2827.3473.3879z" fill="#03BCFC"/><path d="M79.1664 45.424c-.3536 0-.6927.1407-.9428.391-.25.2504-.3905.5899-.3905.944v2.67c0 1.0621-.4214 2.0808-1.1716 2.8319-.7501.7511-1.7675 1.173-2.8284 1.173h-4V37.4141h4c1.0609 0 2.0783.422 2.8284 1.1731.7502.751 1.1716 1.7697 1.1716 2.8319 0 .354.1405.6936.3905.944.2501.2503.5892.391.9428.391.3537 0 .6928-.1407.9428-.391.2501-.2504.3906-.59.3906-.944-.002-1.5382-.5335-3.0287-1.505-4.2202-.9715-1.1916-2.3236-2.0114-3.8284-2.3212v-.1335c.0082-8.6478-3.2161-16.9855-9.0386-23.3729-.2395-.2559-.5699-.4072-.9199-.4211-.35-.014-.6914.1105-.9505.3466-.259.236-.4149.5646-.4339.9148-.019.3502.1003.6938.3323.9566 5.3744 5.8966 8.3508 13.5931 8.344 21.576h-2.6667c0-7.7893-3.0904-15.2596-8.5915-20.7675-5.501-5.50784-12.9621-8.60213-20.7417-8.60213-7.7797 0-15.2407 3.09429-20.7418 8.60213-5.501 5.5079-8.5915 12.9782-8.5915 20.7675H8.49998c.00988-8.4944 3.38442-16.6381 9.38342-22.6445 5.999-6.00644 14.1326-9.3852 22.6165-9.39509 7.2174-.02538 14.2268 2.41917 19.8666 6.92855.1372.10896.2945.18979.4628.23789.1684.0481.3446.06252.5186.04244.1739-.02009.3422-.07428.4953-.15948.153-.08521.2878-.19976.3966-.33712.1088-.13735.1896-.29483.2376-.46342.048-.1686.0624-.34502.0424-.51919-.0201-.17417-.0742-.34268-.1593-.49591-.0851-.15323-.1995-.28817-.3367-.39713C55.9137 2.6553 48.3195.00675325 40.4999.0346418 31.3089.0448889 22.4972 3.70506 15.9982 10.2121 9.4992 16.7192 5.84355 25.5418 5.83332 34.7442v.1335c-1.50478.3098-2.85687 1.1296-3.82837 2.3212C1.03345 38.3904.501939 39.8809.5 41.4191v8.0099c.002117 1.7696.70517 3.4662 1.95495 4.7175s2.94424 1.9553 4.7117 1.9574h3.99995c0 1.4162.5619 2.7744 1.5621 3.7759 1.0002 1.0014 2.3568 1.564 3.7713 1.564h3.9999c.3537 0 .6928-.1406.9428-.391.2501-.2504.3906-.5899.3906-.944v-5.3399c0-.3541-.1405-.6936-.3906-.944-.25-.2503-.5891-.391-.9428-.391-.3536 0-.6927.1407-.9428.391-.25.2504-.3905.5899-.3905.944v4.0049H16.5c-.7073 0-1.3856-.2813-1.8857-.782s-.781-1.1798-.781-1.8879V49.429c0-.3541-.1405-.6937-.3905-.944-.2501-.2504-.5892-.391-.9428-.391-.3537 0-.6928.1406-.9428.391-.2501.2503-.3906.5899-.3906.944v4.0049H7.16665c-1.06087 0-2.07828-.4219-2.82842-1.173-.75015-.7511-1.17157-1.7698-1.17157-2.8319v-8.0099c0-1.0622.42142-2.0809 1.17157-2.8319.75014-.7511 1.76755-1.1731 2.82842-1.1731h3.99995v6.6749c0 .3541.1405.6937.3906.944.25.2504.5891.391.9428.391.3536 0 .6927-.1406.9428-.391.25-.2503.3905-.5899.3905-.944v-9.3448c0-.7082.2809-1.3873.781-1.888.5001-.5007 1.1784-.782 1.8857-.782h2.6666V49.429c0 .354.1405.6936.3905.9439.2501.2504.5892.391.9428.391.3537 0 .6928-.1406.9428-.391.2501-.2503.3906-.5899.3906-.9439V30.7392c0-.354-.1405-.6936-.3906-.944-.25-.2503-.5891-.391-.9428-.391H16.5c-.7615.0028-1.5134.1703-2.204.4913 1.1275-6.1346 4.3664-11.6797 9.1537-15.6714C28.237 10.2325 34.27 8.04668 40.4999 8.04668c6.2299 0 12.2629 2.18582 17.0502 6.17742 4.7873 3.9917 8.0262 9.5368 9.1537 15.6714-.6907-.321-1.4425-.4885-2.204-.4913h-4c-.3536 0-.6927.1407-.9428.391-.25.2504-.3905.59-.3905.944v29.3696c0 .3541.1405.6936.3905.944.2501.2504.5892.391.9428.391h4c1.4145 0 2.771-.5626 3.7712-1.564 1.0002-1.0015 1.5621-2.3597 1.5621-3.7759h1.3334v5.3399c-.0036 3.1854-1.269 6.2394-3.5186 8.4919-2.2497 2.2524-5.2999 3.5194-8.4814 3.5229h-2.856c-.2947-1.1429-.9594-2.1559-1.8901-2.8805-.9307-.7246-2.0749-1.12-3.2539-1.1244h-5.3333c-1.4145 0-2.771.5626-3.7712 1.564s-1.5621 2.3597-1.5621 3.7759c0 1.4163.5619 2.7745 1.5621 3.7759 1.0002 1.0014 2.3567 1.564 3.7712 1.564h5.3333c1.179-.0044 2.3232-.3998 3.2539-1.1244.9307-.7246 1.5954-1.7376 1.8901-2.8805h2.856c3.8884-.0046 7.6163-1.5532 10.3658-4.3062 2.7495-2.7529 4.2962-6.4854 4.3008-10.3786v-5.3399c1.7675-.0021 3.4619-.7061 4.7117-1.9574 1.2498-1.2513 1.9528-2.9479 1.955-4.7175v-2.67c0-.3541-.1405-.6936-.3906-.944-.25-.2503-.5891-.391-.9428-.391zM67.1665 56.1039c0 .7081-.281 1.3872-.7811 1.8879-.5001.5007-1.1784.782-1.8856.782h-2.6667V32.0742h2.6667c.7072 0 1.3855.2813 1.8856.782s.7811 1.1798.7811 1.888v21.3597zm-16 21.3597h-5.3333c-.7072 0-1.3855-.2813-1.8856-.782s-.7811-1.1799-.7811-1.888.281-1.3872.7811-1.8879c.5001-.5007 1.1784-.782 1.8856-.782h5.3333c.7073 0 1.3855.2813 1.8856.782s.7811 1.1798.7811 1.8879-.281 1.3873-.7811 1.888c-.5001.5007-1.1783.782-1.8856.782z" fill="#03BCFC"/><path d="M56.4999 45.4241c.0046-3.243-.9797-6.4101-2.8214-9.0779-.0977-.148-.2239-.275-.3712-.3737-.1473-.0986-.3128-.1668-.4868-.2006-.174-.0339-.3529-.0327-.5264.0036-.1735.0362-.338.1067-.484.2073-.146.1006-.2704.2294-.3661.3787-.0957.1494-.1607.3163-.1912.4911-.0305.1748-.0259.3539.0136.5269.0394.173.1129.3364.2162.4806 1.8879 2.746 2.6828 6.0993 2.2287 9.4019-.4542 3.3026-2.1247 6.3161-4.6836 8.449-2.559 2.133-5.8217 3.2315-9.1478 3.0799-3.3262-.1516-6.4758-1.5423-8.8306-3.8991-2.3549-2.3569-3.7451-5.5098-3.8977-8.84-.1527-3.3303.9431-6.5975 3.0724-9.1604 2.1293-2.563 5.1384-4.2367 8.4367-4.6927 3.2984-.456 6.6479.3386 9.3912 2.2278.1441.101.3066.1725.4784.2103.1718.0379.3493.0413.5224.0102.1731-.0312.3383-.0963.4861-.1917.1479-.0954.2754-.2191.3753-.364.0999-.1449.1702-.3082.2068-.4804.0366-.1722.0388-.35.0065-.5231-.0323-.1731-.0985-.338-.1947-.4854-.0963-.1474-.2207-.2742-.3661-.3733-2.9468-2.0291-6.4875-3.0112-10.057-2.7896-3.5695.2217-6.9619 1.6343-9.6356 4.0124-2.6738 2.3781-4.4747 5.5845-5.1153 9.1074-.6405 3.5229-.0838 7.1591 1.5814 10.3281 1.6651 3.169 4.3427 5.688 7.6051 7.1549 3.2625 1.467 6.9218 1.7973 10.3936.9381 3.4719-.8591 6.5562-2.8581 8.7605-5.6779 2.2043-2.8197 3.4016-6.2976 3.4006-9.8784z" fill="#03BCFC"/></svg>