<svg width="156" height="64" fill="none" xmlns="http://www.w3.org/2000/svg"><path d="M3.34797 61.4639H.719971v-6.588l.971999-.324c.24-.216.444-.456.612-.72.192-.288.36-.648.504-1.08.144-.432.252-.96.324-1.584.096-.648.168-1.452.216-2.412l.36-9.54H13.284v15.264h1.296v6.984h-2.592v-4.464H3.34797v4.464zM10.44 41.7359H6.44397l-.36 7.128c-.072 1.296-.18 2.412-.324 3.348-.144.912-.384 1.668-.72 2.268H10.44v-12.744zM26.4529 54.6239c.696 0 1.212-.228 1.548-.684.36-.48.564-1.14.612-1.98l2.916.54c-.096 1.536-.576 2.712-1.44 3.528-.84.816-2.124 1.224-3.852 1.224-.768 0-1.428-.096-1.98-.288-.552-.216-1.02-.48-1.404-.792-.384-.336-.696-.708-.936-1.116-.216-.408-.372-.816-.468-1.224-.072-.288-.132-.648-.18-1.08-.048-.432-.084-.9-.108-1.404l-.072-1.584v-1.476-1.8c.024-.624.06-1.212.108-1.764s.108-1.056.18-1.512c.072-.48.168-.876.288-1.188.336-.936.888-1.68 1.656-2.232.792-.552 1.86-.828 3.204-.828 1.776 0 3.06.492 3.852 1.476.792.984 1.188 2.34 1.188 4.068v4.392h-7.632c0 .792.012 1.572.036 2.34.048.768.132 1.356.252 1.764.336 1.08 1.08 1.62 2.232 1.62zm2.232-8.028v-1.512c0-.456-.036-.888-.108-1.296-.048-.432-.156-.804-.324-1.116-.168-.312-.408-.552-.72-.72-.288-.192-.672-.288-1.152-.288-.432 0-.828.108-1.188.324-.36.192-.648.564-.864 1.116-.12.336-.204.792-.252 1.368-.048.576-.084 1.284-.108 2.124h4.716zM38.7801 56.9999v-17.748h2.844v7.704h1.224c.312 0 .636-.024.972-.072.336-.048.648-.156.936-.324.312-.192.588-.456.828-.792.264-.36.468-.828.612-1.404l1.368-5.112h2.736l-1.404 5.148c-.24.864-.564 1.596-.972 2.196-.384.576-.888.96-1.512 1.152.792.192 1.368.6 1.728 1.224.384.624.696 1.38.936 2.268l1.548 5.76h-2.808l-1.224-4.896c-.144-.576-.324-1.044-.54-1.404-.216-.384-.468-.672-.756-.864-.288-.192-.612-.324-.972-.396-.336-.072-.696-.108-1.08-.108h-1.62v7.668h-2.844zM55.8801 55.4879c.504-.336.912-.66 1.224-.972.336-.312.6-.66.792-1.044.192-.408.324-.9.396-1.476.072-.576.108-1.296.108-2.16v-10.62h9.468v17.784h-2.88v-15.264h-3.996v8.208c0 1.128-.072 2.1-.216 2.916-.12.792-.336 1.488-.648 2.088-.288.6-.684 1.116-1.188 1.548-.48.408-1.08.78-1.8 1.116l-1.26-2.124zM82.4138 55.4519c-.48.648-1.032 1.104-1.656 1.368-.6.264-1.284.396-2.052.396-.744 0-1.368-.144-1.872-.432-.504-.312-.912-.708-1.224-1.188-.288-.504-.504-1.056-.648-1.656-.12-.624-.18-1.26-.18-1.908 0-.672.072-1.344.216-2.016.144-.672.396-1.284.756-1.836s.852-.996 1.476-1.332c.624-.36 1.428-.54 2.412-.54h2.808v-2.376c0-.696-.168-1.248-.504-1.656-.312-.408-.924-.612-1.836-.612-.48 0-.948.144-1.404.432-.456.288-.744.756-.864 1.404l-2.7-.756c.264-1.176.84-2.1 1.728-2.772.888-.672 2.016-1.008 3.384-1.008 1.608 0 2.856.372 3.744 1.116.888.72 1.332 1.992 1.332 3.816v13.104h-2.88v-1.548h-.036zm.036-6.66h-2.088c-.744 0-1.404.228-1.98.684-.552.432-.828 1.224-.828 2.376 0 .84.18 1.488.54 1.944.36.432.924.648 1.692.648.888 0 1.548-.252 1.98-.756.456-.504.684-1.2.684-2.088v-2.808zM98.8776 38.9639c.312 0 .696.048 1.1524.144.456.072.888.264 1.296.576.432.288.816.72 1.152 1.296.336.576.564 1.356.684 2.34.072.72.108 1.476.108 2.268.024.792.036 1.536.036 2.232 0 1.296-.036 2.52-.108 3.672-.048 1.128-.228 2.112-.54 2.952-.288.84-.744 1.512-1.368 2.016-.624.48-1.5004.72-2.6284.72-.696 0-1.296-.12-1.8-.36-.504-.264-.924-.636-1.26-1.116h-.072v8.208h-2.844v-24.732h2.844v1.368l.072.036c.384-.528.792-.924 1.224-1.188.432-.288 1.116-.432 2.052-.432zm-.972 2.772c-.792 0-1.392.264-1.8.792-.408.528-.612 1.2-.612 2.016v7.056c0 .84.192 1.512.576 2.016.384.504.996.756 1.836.756.528 0 .948-.096 1.26-.288.336-.216.588-.576.756-1.08.1924-.504.3244-1.164.3964-1.98.072-.84.108-1.872.108-3.096 0-1.104-.024-2.04-.072-2.808-.024-.792-.12-1.44-.288-1.944-.1684-.504-.4204-.864-.7564-1.08-.336-.24-.804-.36-1.404-.36zM117.895 55.4519c-.48.648-1.032 1.104-1.656 1.368-.6.264-1.284.396-2.052.396-.744 0-1.368-.144-1.872-.432-.504-.312-.912-.708-1.224-1.188-.288-.504-.504-1.056-.648-1.656-.12-.624-.18-1.26-.18-1.908 0-.672.072-1.344.216-2.016.144-.672.396-1.284.756-1.836s.852-.996 1.476-1.332c.624-.36 1.428-.54 2.412-.54h2.808v-2.376c0-.696-.168-1.248-.504-1.656-.312-.408-.924-.612-1.836-.612-.48 0-.948.144-1.404.432-.456.288-.744.756-.864 1.404l-2.7-.756c.264-1.176.84-2.1 1.728-2.772.888-.672 2.016-1.008 3.384-1.008 1.608 0 2.856.372 3.744 1.116.888.72 1.332 1.992 1.332 3.816v13.104h-2.88v-1.548h-.036zm.036-6.66h-2.088c-.744 0-1.404.228-1.98.684-.552.432-.828 1.224-.828 2.376 0 .84.18 1.488.54 1.944.36.432.924.648 1.692.648.888 0 1.548-.252 1.98-.756.456-.504.684-1.2.684-2.088v-2.808zM136.231 56.9999v-7.884h-4.68v7.884h-2.916v-17.784h2.916v7.488h4.68v-7.488h2.916v17.784h-2.916zM152.063 41.7359v15.264h-2.808v-15.264h-3.744v-2.52h10.332v2.52h-3.78z" fill="#03BCFC"/><path d="M6.51593 2.34785V25.9998h-1.584V2.34785H.179932V.943848H11.2679V2.34785H6.51593zM19.452 17.0718c-.528 0-1.02.0721-1.476.216-.456.144-.852.384-1.188.72-.336.336-.6.78-.792 1.332-.192.528-.288 1.1761-.288 1.944 0 .9601.24 1.788.72 2.484.504.672 1.368 1.008 2.592 1.008 1.032 0 1.884-.276 2.556-.828.672-.576 1.008-1.416 1.008-2.52v-4.356h-3.132zm-4.788-5.976c.336-.912.9-1.63195 1.692-2.15995.792-.528 1.812-.792 3.06-.792 1.512 0 2.676.348 3.492 1.044.816.672 1.224 1.88395 1.224 3.63595v13.176h-1.548v-1.584h-.036c-.576.792-1.236 1.296-1.98 1.512-.72.192-1.428.288-2.124.288-.792 0-1.464-.132-2.016-.396-.528-.288-.96-.66-1.296-1.116-.336-.4559-.588-.972-.756-1.548-.144-.6-.216-1.2239-.216-1.872 0-.6719.072-1.332.216-1.98.168-.672.444-1.272.828-1.8.384-.552.888-.996 1.512-1.332.648-.336 1.452-.504 2.412-.504h3.456v-2.808c0-.48-.048-.912-.144-1.296-.096-.408-.264-.756-.504-1.044-.24-.288-.576-.516-1.008-.68395-.408-.168-.936-.252-1.584-.252-.696 0-1.356.168-1.98.50395-.624.336-1.032.84-1.224 1.512l-1.476-.504zM40.8999 12.0678c-.432.936-.864 1.848-1.296 2.736-.408.888-.816 1.8-1.224 2.736l-2.088 4.428h-1.08c-.336-.7439-.672-1.476-1.008-2.196l-1.008-2.16-2.556-5.616-.036.036v13.968h-1.548V8.39585h1.512l5.22 11.30395h.036l5.256-11.30395h1.512V25.9998h-1.548v-13.932h-.144zM52.3414 8.14385c1.32 0 2.328.252 3.024.756.696.504 1.176 1.13995 1.44 1.90795.12.312.204.732.252 1.26.072.504.12 1.068.144 1.692.048.6.072 1.224.072 1.872V17.9358c0 .624-.012 1.26-.036 1.908 0 .648-.036 1.3561-.108 2.124-.072.84-.276 1.536-.612 2.088-.312.552-.708.996-1.188 1.332-.456.3121-.96.528-1.512.648-.552.144-1.092.2161-1.62.2161-1.44 0-2.52-.288-3.24-.8641-.696-.6-1.176-1.356-1.44-2.268-.072-.288-.132-.648-.18-1.08-.048-.456-.084-.948-.108-1.476-.024-.528-.036-1.068-.036-1.62v-1.548-1.908c.024-.648.048-1.26.072-1.836.048-.576.108-1.092.18-1.548.072-.48.156-.864.252-1.152.312-.84.84-1.51195 1.584-2.01595.744-.528 1.764-.792 3.06-.792zm-.036 1.404c-.624 0-1.224.132-1.8.396-.576.23995-1.008.71995-1.296 1.43995-.192.48-.312 1.236-.36 2.268-.048 1.008-.072 2.184-.072 3.528v.9c0 1.152.012 2.124.036 2.916.048.792.144 1.404.288 1.836.216.648.576 1.152 1.08 1.512.528.336 1.236.504 2.124.504.792 0 1.476-.216 2.052-.6479.576-.432.96-1.0321 1.152-1.8001.096-.408.156-1.056.18-1.944.048-.888.072-1.836.072-2.844 0-.528-.012-1.092-.036-1.692 0-.6-.012-1.176-.036-1.728 0-.552-.024-1.044-.072-1.476-.048-.456-.108-.804-.18-1.044-.216-.72-.612-1.248-1.188-1.584-.552-.35995-1.2-.53995-1.944-.53995zM69.5002 25.9998v-8.316h-2.232c-.84 0-1.548.18-2.124.54-.576.336-1.02 1.092-1.332 2.268l-1.368 5.508h-1.548l1.476-5.724c.24-.864.54-1.596.9-2.196.36-.624.96-1.032 1.8-1.224-.672-.192-1.2-.576-1.584-1.152-.36-.6-.66-1.332-.9-2.196l-1.332-5.11195h1.44l1.44 5.36395c.144.552.348.996.612 1.332.264.336.54.6.828.792.312.192.636.324.972.396.336.048.672.072 1.008.072h1.944V8.39585h1.548v7.95595h1.944c.312 0 .636-.024.972-.072.36-.072.684-.204.972-.396.312-.192.6-.456.864-.792s.468-.78.612-1.332l1.44-5.36395h1.44l-1.332 5.11195c-.24.864-.552 1.596-.936 2.196-.36.576-.876.96-1.548 1.152.84.192 1.44.6 1.8 1.224.36.6.66 1.332.9 2.196l1.476 5.724h-1.548l-1.368-5.508c-.312-1.176-.756-1.932-1.332-2.268-.576-.36-1.284-.54-2.124-.54h-2.232v8.316h-1.548zM88.2483 8.14385c1.44 0 2.556.372 3.348 1.116.816.72 1.26 1.76395 1.332 3.13195.024.264.036.528.036.792v4.248h-8.208v1.152c0 .768.012 1.572.036 2.412.048.816.144 1.428.288 1.836.216.624.564 1.116 1.044 1.476.48.3601 1.128.54 1.944.54 1.08 0 1.872-.3119 2.376-.936.528-.624.828-1.392.9-2.304l1.548.288c-.12 1.416-.612 2.496-1.476 3.24-.864.744-1.98 1.1161-3.348 1.1161-.72 0-1.356-.0841-1.908-.2521-.528-.192-.972-.4319-1.332-.7199-.36-.2881-.648-.612-.864-.9721-.216-.384-.372-.78-.468-1.188-.072-.288-.132-.66-.18-1.116-.048-.456-.084-.936-.108-1.44 0-.528-.012-1.068-.036-1.62v-1.548-1.944c.024-.648.048-1.26.072-1.836.048-.576.108-1.104.18-1.584s.156-.864.252-1.152c.312-.84.828-1.49995 1.548-1.97995.72-.504 1.728-.756 3.024-.756zm-3.096 3.31195c-.168.408-.276 1.02-.324 1.836-.024.792-.048 1.74-.072 2.844h6.66v-2.196c0-.552-.036-1.092-.108-1.62-.048-.528-.192-.996-.432-1.404-.216-.408-.54-.732-.972-.97195-.432-.24-1.008-.36-1.728-.36-.6 0-1.176.132-1.728.396-.552.26395-.984.75595-1.296 1.47595zM105.881 25.9998v-8.352h-6.588v8.352h-1.584V8.39585h1.584v7.84795h6.588V8.39585h1.62V25.9998h-1.62zM120.654 25.9998v-8.352h-6.588v8.352h-1.584V8.39585h1.584v7.84795h6.588V8.39585h1.62V25.9998h-1.62zM128.766 24.5238h2.628c.816 0 1.488-.096 2.016-.288.552-.216.984-.492 1.296-.828.336-.336.564-.72.684-1.152.12-.4559.18-.936.18-1.44 0-1.104-.336-1.944-1.008-2.52-.648-.6-1.716-.9-3.204-.9h-2.592v7.128zm9.972 1.476V8.39585h1.584V25.9998h-1.584zm-11.484 0V8.39585h1.512v7.52395h2.7c1.104 0 2.016.132 2.736.396.72.24 1.296.576 1.728 1.008.432.432.732.948.9 1.548.192.576.288 1.2.288 1.872 0 .72-.084 1.404-.252 2.052-.168.624-.456 1.176-.864 1.656s-.984.864-1.728 1.152c-.72.264-1.632.396-2.736.396h-4.284zM147.165 1.91585c.12.768.456 1.416 1.008 1.944.576.528 1.236.792 1.98.792.768 0 1.428-.24 1.98-.72.576-.504.924-1.176 1.044-2.016h1.296c-.048.456-.168.924-.36 1.404-.192.456-.468.888-.828 1.296-.36.384-.804.708-1.332.972-.504.24-1.104.36-1.8.36-.72 0-1.344-.12-1.872-.36-.504-.264-.936-.588-1.296-.972-.336-.408-.6-.852-.792-1.332-.168-.48-.276-.936-.324-1.368h1.296zm6.876 24.08395v-14.76h-.036c-1.2 2.448-2.388 4.908-3.564 7.38-1.176 2.472-2.376 4.932-3.6 7.38h-1.512V8.39585h1.548V23.1198l7.164-14.72395h1.548V25.9998h-1.548z" fill="#4F4F4F"/></svg>