<svg width="25" height="26" fill="none" xmlns="http://www.w3.org/2000/svg"><path fill-rule="evenodd" clip-rule="evenodd" d="M21.3574 3.9208c-1.1531-1.16216-2.5251-2.08367-4.0365-2.71113-1.5114-.627466-3.1321-.948413-4.7682-.944249C5.69189.265421.106766 5.85608.103993 12.7281c0 2.1963.572655 4.3399 1.661117 6.2307L0 25.4158l6.59871-1.734c1.82528.9948 3.87019 1.5165 5.94839 1.5174h.0056c6.8594 0 12.4445-5.5907 12.4473-12.4627.0047-1.6375-.3148-3.25975-.94-4.7729-.6253-1.51315-1.5438-2.88722-2.7026-4.0428zm-8.8047 19.1751h-.0042c-1.8531.0002-3.67216-.499-5.26621-1.4452l-.37715-.2249-3.91568 1.0287 1.04409-3.8219-.24543-.3915c-1.03606-1.6515-1.58453-3.5627-1.58208-5.513C2.20881 7.0167 6.84968 2.37008 12.5568 2.37008c1.3592-.00303 2.7055.26389 3.961.78529 1.2555.5214 2.3952 1.28693 3.3532 2.2523.9632.96075 1.7266 2.10312 2.2461 3.36105.5195 1.25798.7849 2.60648.7808 3.96778-.0028 5.7114-4.6436 10.3594-10.3452 10.3594zm5.6752-7.7591c-.312-.1569-1.84-.9094-2.1256-1.0135-.2843-.1041-.4909-.1555-.6988.1555-.208.311-.8043 1.0121-.9859 1.2203-.1816.2082-.3633.2332-.6739.0777-.3106-.1554-1.3131-.4845-2.5013-1.5451-.9249-.8261-1.54885-1.8451-1.7305-2.1574-.18164-.3124-.01941-.4804.13728-.6359.14004-.1388.31059-.3637.46592-.5456.1553-.1818.2066-.311.3106-.5192.104-.2082.0526-.39012-.0264-.5456-.0776-.15688-.70021-1.68956-.9595-2.3129-.25097-.60391-.50748-.52339-.69883-.53172-.19817-.00812-.3965-.01182-.59484-.01111-.15772.00403-.3129.04063-.45582.10752-.14293.0669-.2705.16263-.37474.28121-.28563.31236-1.08846 1.06482-1.08846 2.5975 0 1.5327 1.1148 3.014 1.2701 3.2222.1553.2083 2.19356 3.3528 5.31339 4.7022.7432.3207 1.3228.5123 1.7734.6566.7446.2374 1.4226.2027 1.9592.1236.5976-.0888 1.84-.7525 2.0993-1.4799.2593-.7275.2593-1.3508.1816-1.4813-.0776-.1305-.287-.2097-.5962-.3651z" fill="#BDBDBD"/></svg>