<svg width="101" height="104" fill="none" xmlns="http://www.w3.org/2000/svg"><path d="M35.9735 51.0948c1.319.7625 1.7927 2.4115 1.0592 3.6835-.3667.636-.1296 1.4607.5296 1.8418.6593.381 1.4911.1743 1.8579-.4617 1.1994-2.0989.7808-4.7747-1.0191-6.5133l.7584-1.3153c.3668-.6361.1297-1.4607-.5296-1.8418-.6592-.3811-1.4911-.1744-1.8578.4616l-.7585 1.3154c-2.6587-.7669-5.419.513-6.4412 2.9866-1.0222 2.4735.0133 5.368 2.4164 6.7534 1.319.7625 1.7927 2.4114 1.0592 3.6835-.7335 1.272-2.3966 1.6858-3.7157.9233-1.3184-.7622-1.7927-2.4115-1.0592-3.6835.3668-.6361.1296-1.4607-.5296-1.8418-.6593-.3811-1.4911-.1744-1.8579.4617-1.1994 2.0989-.7802 4.775 1.0191 6.5133l-.7584 1.3153c-.3668.636-.1296 1.4607.5296 1.8418.6592.381 1.4911.1743 1.8578-.4617l.7566-1.3119c2.663.7768 5.4331-.5026 6.4576-2.9816 1.0249-2.4795-.0178-5.3804-2.4309-6.7618-1.3185-.7622-1.7927-2.4115-1.0592-3.6835.7335-1.2721 2.3972-1.6855 3.7157-.9233zM46.3587 41.388l-7.1707-4.1451c-.66-.3816-1.5039-.1554-1.8847.5051-.3809.6605-.1546 1.5053.5054 1.8869l7.1707 4.1451c.66.3816 1.5039.1554 1.8848-.5051s.1545-1.5054-.5055-1.8869zM27.508 74.0785l-7.1707-4.1451c-.66-.3815-1.5039-.1553-1.8847.5051-.3809.6605-.1546 1.5054.5054 1.8869l7.1707 4.1451c.66.3815 1.5039.1554 1.8848-.5051s.1545-1.5053-.5055-1.8869z" fill="#03BCFC"/><path d="M73.7013 78.2706l.0797-39.1463c1.6353-.4358 3.2176-1.0559 4.7155-1.8488 3.7157-2.0144 5.7666-4.7796 5.7726-7.7846.013-5.9815-8.1472-10.6504-18.5771-10.6296-1.39.0116-2.7779.1118-4.1559.2997l-.3168-1.5952c-.3794-1.8992-1.5529-3.541-3.2233-4.5081-1.671-.9645-3.6778-1.1611-5.5103-.5405l-20.8212 7.0601c-1.5564.5273-2.8701 1.6067-3.6931 3.0352L6.99987 58.9812c-3.30536 5.7477-1.36324 13.0769 4.34243 16.3835l16.088 9.2999c5.7128 3.2941 13.0238 1.3138 16.3421-4.4264l20.9715-36.3688c.64-1.115.9493-2.3896.8924-3.6727l.009.0052c1.835-.005 3.6667-.1663 5.4751-.4818l-.076 38.5562c-.0089 5.1559-4.1811 9.345-9.3188 9.3556l-18.5988.039c-.8158-.0019-1.6281-.1125-2.4144-.3291-.708-.1903-1.4385.2319-1.631.9433-.1931.7111.2245 1.4425.9331 1.6331 1.0102.2746 2.0532.4146 3.1013.4161l18.5987-.039c6.6054-.0105 11.9733-5.3947 11.9868-12.0247zm-32.2272.639c-2.5811 4.4646-8.267 6.0046-12.7105 3.4428l-16.088-9.2999c-4.4371-2.5717-5.94851-8.2723-3.37745-12.7427L30.2697 23.9411c.4986-.8649 1.2937-1.5184 2.2367-1.8382l20.8202-7.0583c1.1092-.3771 2.3241-.2589 3.3361.3253 1.0114.5854 1.7216 1.58 1.9501 2.7304l3.8391 19.2568c-3.2631-.265-6.4234-1.2587-9.249-2.9079.2192-.2594.4182-.5357.5951-.8256 1.8367-3.1931.7572-7.2644-2.4125-9.102-.1285-.069-.2677-.1156-.4119-.138-.5377-.4064-1.2964-.3362-1.7556.1616-1.3201 1.3436-2.0864 3.1369-2.1453 5.0191.03 1.7139.6654 3.3585 1.7938 4.64-1.5403.3424-3.1328-.2627-4.0568-1.5405-.9243-1.2787-1.0043-2.9876-.2049-4.3545.3682-.6384.1522-1.4535-.4825-1.8204-.6346-.3668-1.4476-.1466-1.8157.4919-1.4807 2.5612-1.1062 5.7884.9207 7.925 2.0263 2.1362 5.2191 2.67 7.8397 1.3104.4246.3094.8645.5976 1.3185.8623 3.2642 1.7567 6.8731 2.7793 10.5765 2.9971.0912.855-.0897 1.7176-.5164 2.4653L41.4741 78.9096zM51.4997 32.295c-.1022.1668-.2163.3258-.3418.476-.861-.8514-1.3709-1.9975-1.4277-3.212.0207-.8558.297-1.6866.7927-2.3853 1.5442 1.2246 1.9596 3.4013.9768 5.1213zm14.1558 5.2295c-.1532.001-.3015-.0079-.4539-.0095l-3.1369-15.7378c1.2006-.1542 2.4092-.2353 3.6186-.2437 8.6427-.0198 15.9364 3.6297 15.9226 7.9714-.0027 1.9795-1.556 3.9102-4.3708 5.4352-1.1029.5855-2.2596 1.0617-3.454 1.4205l.0002-.0277c.0046-1.6465-.5916-3.2361-1.6748-4.4688l-3.6175-4.1317c-.4897-.5262-1.3094-.5642-1.8492-.086-.5408.4785-.6053 1.3-.1458 1.8538l3.6221 4.1238c.655.7467 1.0154 1.7085 1.0136 2.7055l-.0011.679c-1.8057.3434-3.6384.5168-5.4751.5194l.002-.0034z" fill="#03BCFC"/><path d="M53.4143 69.121c-.0096.7562.5866 1.3624 1.3313 1.3524l10.7892-.138c.4839-.0028.9357-.2693 1.1842-.6976.2479-.4286.2545-.9532.0171-1.3752-.238-.4224-.6828-.6772-1.1669-.6676l-10.7892.138c-.7447.01-1.3563.6308-1.3657 1.388zM50.859 77.2484c.0151.7354.6386 1.3457 1.3923 1.3617l13.6394.2919c.7534.0166 1.3514-.5668 1.3352-1.3028-.0157-.7357-.6395-1.3455-1.3929-1.3621l-13.6394-.2918c-.7531-.0157-1.3508.5671-1.3346 1.3031zM59.8108 64.0475c.2042.1181.4371.1787.6751.1763l5.4146-.0565c.4857-.0016.9386-.2673 1.187-.6955.2475-.4279.2533-.9536.014-1.3767-.2393-.423-.687-.6795-1.1729-.671l-5.4146.0566c-.613.0066-1.1531.4288-1.318 1.0305-.1645.6011.0873 1.2314.6148 1.5363z" fill="#03BCFC"/></svg>