<svg width="90" height="76" fill="none" xmlns="http://www.w3.org/2000/svg"><path d="M74.7953.0368652c-6.8767 0-12.3102 5.5420548-12.3102 12.4483348 0 6.9062 5.5184 12.363 12.3102 12.363 6.7919 0 12.3951-5.542 12.3951-12.4483 0-6.90625-5.5183-12.3630348-12.3951-12.3630348zm0 22.0829348c-5.3486 0-9.6784-4.3484-9.6784-9.7199 0-5.37152 4.4147-9.63464 9.6784-9.63464 5.3486 0 9.6784 4.34838 9.6784 9.71994 0 5.3715-4.3298 9.6346-9.6784 9.6346z" fill="#03BCFC"/><path d="M78.7005 14.3609c-.0849-.2557-.0849-.4263-.2547-.6821-.0849-.1705-.1698-.4263-.3396-.5968-.1698-.1705-.2547-.341-.4245-.5116-.1698-.1705-.3396-.341-.5943-.4263-.1698-.1705-.4245-.2558-.5943-.341-.2547-.0853-.4245-.2558-.6792-.3411-.2547-.0852-.5094-.1705-.6792-.2558-.0849 0-.2547-.0852-.3396-.1705-.0849-.0853-.2546-.0853-.3395-.1705-.0849-.0853-.2547-.0853-.3396-.1705-.0849-.0853-.1698-.1706-.2547-.2558-.0849-.0853-.1698-.1706-.1698-.3411-.0849-.0852-.0849-.25576-.0849-.34102v-.42632c0-.08526.0849-.25578.0849-.34105.0849-.08526.0849-.25578.1698-.34104.0849-.08527.1698-.17053.2547-.25579.0849-.08526.2547-.17053.4245-.17053.1698-.08526.2547-.08526.4244-.08526h.5094c.1698 0 .2547 0 .4245.08526.1698 0 .3396.08527.4245.08527.0849 0 .2547.08526.3396.08526.1698 0 .2547.08526.3396.08526l.4245.17053.0849-.51158.1698-1.36419v-.34105l-.3396-.08526c-.0849 0-.2547-.08527-.3396-.08527-.0849 0-.1698-.08526-.3396-.08526-.0849 0-.2547-.08526-.4245-.08526s-.2547-.08526-.4245-.08526h-.0849V4.38525h-2.0375V6.0905h-.0849c-.2547.08526-.5094.17052-.7641.34105-.2547.08526-.4245.25578-.5943.42631-.1698.17052-.3396.34105-.5094.59683-.1698.17053-.2547.42632-.3396.6821-.0849.25579-.1698.51158-.2547.76736-.0849.25579-.0849.59684-.0849.85263 0 .25582 0 .42632.0849.68212.0849.2558.0849.4263.2547.6821.0849.1705.2547.4263.3396.5968.1698.1705.2547.3411.4245.5116.1698.1705.3396.341.5943.4263.1698.1705.4245.2558.5943.341.2547.0853.5094.2558.6792.3411.2547.0853.5094.1705.6792.2558.0848 0 .2546.0852.3395.1705.0849.0853.2547.0853.3396.1705.0849.0853.1698.1705.2547.1705.0849.0853.1698.1706.2547.2558.0849.0853.0849.1706.1698.3411 0 .0852.0849.2558.0849.4263v.4263c0 .0853-.0849.2558-.1698.3411-.0849.0852-.1698.1705-.2547.2557-.0849.0853-.1698.1706-.3396.2558-.0849.0853-.2547.0853-.3396.1706-.0849 0-.2546.0852-.4244.0852h-1.1037c-.1698 0-.3396-.0852-.4245-.0852-.1698 0-.3396-.0853-.5094-.1706-.1698-.0852-.3396-.0852-.5094-.1705-.0849 0-.1698-.0853-.2547-.0853-.0849 0-.1698-.0852-.2547-.0852l-.5094-.2558-.0849.5968-.1698 1.5347v.2558l.2547.0853c.3396-.0853.5094 0 .7641.0853.1698.0852.4245.1705.5943.1705.1698.0852.4245.0852.6792.1705.2547.0853.4245.0853.6792.0853h.1698v1.7052h2.0375V18.7093h.0849c.2547-.0853.5094-.1705.7641-.341.2547-.0853.4245-.2558.6792-.4264.1698-.1705.3396-.341.5094-.5968.1698-.1705.2547-.4263.4245-.6821.0849-.2558.1698-.5116.2547-.7673.0849-.2558.0849-.5116.0849-.8527 0-.2558 0-.4263-.0849-.6821zM68.8525 26.4683c-.4245-.5969-1.3584-.6821-1.9527-.2558L53.1463 37.2114l-17.7437-7.4179c-.4244-.1705-.9338-.0852-1.2734.1705L15.112 43.6061c-.5943.4263-.7641 1.2789-.3396 1.8757.2547.4263.6792.5969 1.1037.5969.2547 0 .5094-.0853.7641-.2558L35.063 32.6072l17.8286 7.4178c.4245.1706 1.0188.0853 1.3584-.1705l14.3478-11.4252c.5943-.4263.6792-1.3642.2547-1.961z" fill="#03BCFC"/><path d="M88.7184 73.1918H82.436V33.7154c0-.7674-.5943-1.3642-1.3584-1.3642h-12.48c-.7641 0-1.3584.5968-1.3584 1.3642v39.4764h-4.5844V47.3574c0-.7674-.5943-1.3642-1.3584-1.3642H48.7315c-.7641 0-1.3584.5968-1.3584 1.3642v25.8344h-4.5845V45.3111c0-.7674-.5943-1.3642-1.3584-1.3642h-12.48c-.7641 0-1.3583.5968-1.3583 1.3642v27.8807h-4.5845V53.3257c0-.7673-.5943-1.3642-1.3584-1.3642H9.08409c-.76408 0-1.35837.5969-1.35837 1.3642v19.8661H1.35837C.594286 73.1918 0 73.7887 0 74.556c0 .7674.594286 1.3642 1.35837 1.3642H88.6335c.7641 0 1.3584-.5968 1.3584-1.3642.0849-.7673-.5094-1.3642-1.2735-1.3642zm-68.5127 0h-9.7632V54.6899h9.7632v18.5019zm19.8662 0h-9.7633V46.6753h9.7633v26.5165zm19.7812 0h-9.7633V48.7216h9.7633v24.4702zm19.8662 0H69.956V35.0796h9.7633v38.1122z" fill="#03BCFC"/></svg>