<svg width="25" height="27" fill="none" xmlns="http://www.w3.org/2000/svg"><path d="M11.842.220879C9.72818.246428 5.18359.594227 2.64172 2.92909.750948 4.8049.0907851 7.57823.0134094 11.0076c-.0642055 3.417-.1415814 9.834 6.0361306 11.5812V25.25s-.03869 1.0649.66428 1.2833c.86595.2744 1.35901-.5448 2.18216-1.425l1.53512-1.7382c4.2269.3519 7.4643-.4591 7.8372-.5794.8577-.2744 5.6888-.8926 6.4782-7.3104.81-6.62791-.3943-10.80397-2.5682-12.69296h-.0132c-.656-.60494-3.2926-2.52855-9.183-2.549978 0 0-.4371-.02967-1.1401-.017308v.000825zm.0725 1.863441c.6-.00412.9647.02143.9647.02143 4.9858.01319 7.3655 1.51564 7.9269 2.02168 1.8307 1.57087 2.774 5.33567 2.0834 10.86917-.6561 5.3653-4.5743 5.7048-5.2995 5.9364-.3086.0989-3.16.8028-6.7522.5712 0 0-2.67524 3.2324-3.51156 4.0648-.13253.1459-.28728.1887-.38605.1673-.14159-.0346-.18439-.2102-.17616-.4508l.02552-4.4167c-5.23933-1.4506-4.93065-6.9239-4.87467-9.7829.0642-2.85906.60007-5.19804 2.19533-6.78209 2.14759-1.94422 6.00649-2.2063 7.80259-2.21949h.0017zm.3951 2.85822c-.0432-.00044-.0859.00768-.1259.02387-.04.0162-.0764.04016-.107.0705-.0307.03033-.0551.06645-.0718.10627-.0167.03982-.0253.08255-.0254.12573 0 .18461.1498.33049.3301.33049.8161-.01554 1.6273.13085 2.3866.43073.7594.29988 1.452.74732 2.0378 1.3165 1.196 1.1629 1.7788 2.72557 1.801 4.76867 0 .1805.1457.3305.3301.3305v-.0132c.0869.0002.1704-.034.2322-.0951.0618-.0612.097-.1443.0979-.2313.04-.9617-.1158-1.9215-.4578-2.82099-.342-.89953-.8632-1.72004-1.5318-2.41165-1.303-1.27499-2.9542-1.93185-4.896-1.93185v.00083zm-4.33884.75576c-.23299-.03409-.47062.01274-.67333.13269h-.01729c-.47062.27621-.89458.62531-1.25612 1.03433-.30045.3478-.46343.69972-.50623 1.03845-.02552.20192-.00823.40384.05186.5967l.0214.01319c.33831.99559.78034 1.95324 1.32033 2.85494.69557 1.2667 1.55159 2.4382 2.54681 3.4854l.02963.0428.04692.0346.02963.0347.03458.0296c1.04965.9994 2.22255 1.8605 3.49015 2.5624 1.4487.7895 2.3278 1.1629 2.8555 1.3178v.0083c.1547.0469.2955.0684.4371.0684.4496-.033.8753-.2158 1.2092-.5193.4066-.362.7514-.7883 1.0207-1.2618v-.0082c.2527-.4764.1671-.9272-.1976-1.2321-.7303-.6392-1.52-1.2069-2.3583-1.6953-.5614-.305-1.1318-.1204-1.3631.1887l-.4931.6222c-.2527.3091-.712.2662-.712.2662l-.0132.0083c-3.4251-.8761-4.33878-4.3483-4.33878-4.3483s-.04281-.4723.2741-.7129l.61738-.49783c.2955-.24066.5013-.81098.1844-1.37389-.48454-.84052-1.05028-1.6314-1.68913-2.36124-.13966-.17206-.3356-.28913-.55315-.33049l.00164.00165zm4.90844.97911c-.4371 0-.4371.66098.0041.66098.5435.00883 1.08.12481 1.5787.34132.4987.2165.9499.52929 1.3278.92048.3448.38078.6097.82696.7791 1.31211.1694.4852.2398.9994.2071 1.5123.0015.0868.0369.1696.0985.2306.0617.061.1448.0954.2315.0958l.0132.0173c.0874-.0007.1709-.0357.2327-.0975.0618-.0619.0967-.1455.0974-.233.0296-1.3096-.377-2.40822-1.1746-3.28843-.8018-.88021-1.9204-1.37388-3.3486-1.47196h-.0469zm.5408 1.77691c-.4503-.01319-.4676.66098-.0214.67416 1.0849.05605 1.6117.60494 1.6809 1.73402.0015.0857.0364.1675.0973.2277.061.0602.143.0942.2286.0946h.0132c.044-.0019.0872-.0126.1271-.0313.0398-.0188.0755-.0454.1051-.0781.0295-.0328.0521-.0711.0667-.1128.0145-.0416.0207-.0857.018-.1297-.0774-1.472-.8791-2.30111-2.3023-2.37776H13.42v-.00082z" fill="#BDBDBD"/></svg>