<svg width="23" height="24" fill="none" xmlns="http://www.w3.org/2000/svg"><path d="M16.7732 20.8933l2.3069-2.3086-2.9739-2.9776-1.487 1.4888c-.1346.1359-.3013.2357-.4846.2903-.1832.0545-.3773.062-.5642.0217-.1323-.0276-3.2683-.7035-5.17736-2.6149-1.90901-1.9114-2.58407-5.0513-2.61167-5.18372-.03935-.18718-.03146-.38123.02296-.56458.05441-.18336.15364-.35023.28869-.48552l1.48697-1.4888-2.97393-2.97761-2.30577 2.30862c.023 1.4082.39791 6.34211 4.26884 10.21781 3.85827 3.8642 8.76877 4.2499 10.20407 4.2741z" fill="#fff"/><path d="M21.465 19.3458h0l-3.1188 3.1227c-.4209.4214-.9757.6528-1.5627.6528h-.0317c-1.6315-.0265-7.29426-.4587-11.75575-4.9257C.533888 13.7279.101577 8.05705.0752393 6.4244l-.07499027.00121.07499157-.00112C.0663487 5.83133.304327 5.24972.72722 4.8263l.00001-.00001 3.11689-3.12192c.20585-.19416.47797-.30228.76076-.30228.2828 0 .55492.10812.76077.30229l4.59926 4.60497.00004.00004c.09995.09987.17915.21849.23325.34908.0541.13058.082.27057.082.41194 0 .14138-.0279.28136-.082.41195-.0541.13059-.1333.24921-.23325.34908l-.00004.00004-1.83312 1.83539-.03154.03159.01272.04279c.25341.85225.83261 2.45615 1.85194 3.47675 1.01929 1.0206 2.62119 1.6005 3.47249 1.8542l.0428.0128.0317-.0316 1.8331-1.8354v-.0001c.0998-.1.2182-.1794.3486-.2335.1304-.0542.2702-.082.4114-.082.1411 0 .2809.0278.4113.082.1304.0541.2489.1335.3486.2335l.0001.0001 4.6 4.6057v.0001c.1.0998.1792.2185.2333.349.0541.1306.0819.2706.0819.412 0 .1414-.0278.2813-.0819.4119s-.1333.2492-.2333.3491zM4.6591 4.0398l-.05307-.05313-.05306.05313L2.2472 6.34843l-.02244.02247.00052.03175c.02311 1.41514.39923 6.37325 4.29074 10.26965 3.87888 3.8848 8.81358 4.2718 10.25588 4.2961l.0318.0005.0225-.0225 2.3069-2.3086.053-.053-.053-.053-2.9739-2.9776-.0531-.0532-.0531.0532-1.4869 1.4888-.0001.0001c-.126.1268-.2817.2199-.4529.2708-.1712.0509-.3524.0581-.5271.0208l-.0003-.0001c-.0636-.0133-.8762-.1881-1.9101-.5974-1.0349-.4096-2.28539-1.0518-3.22952-1.9971-.94414-.9453-1.58554-2.1974-1.99468-3.2335-.40876-1.0353-.58337-1.84893-.59664-1.91257l-.00005-.00025c-.03708-.17494-.02985-.3564.02103-.52783.05088-.17143.14378-.32738.27025-.45366l.00007-.00007 1.48696-1.48881.05293-.053-.05293-.053L4.6591 4.0398zm1.43389 4.51942c-.13531.13511-.23472.30198-.28915.48539-.05443.18341-.06217.37755-.0225.56472.0276.13242.70266 3.27237 2.61167 5.18377 1.90899 1.9114 5.04509 2.5873 5.17729 2.6149L6.09299 8.55922zM12.7127.243942C18.5165.281291 22.8867 4.65235 22.924 10.4555h-2.15c-.036-4.64801-3.4123-8.02272-8.0613-8.05864V.243942z" fill="#BDBDBD" stroke="#fff" stroke-width=".15"/><path d="M12.7242 7.00282V4.84994c1.8044.01362 3.1949.51979 4.1377 1.46376.9428.94401 1.4484 2.33625 1.462 4.143h-2.1501c-.0105-1.18071-.271-2.04379-.8396-2.61312-.5687-.56934-1.4307-.83023-2.61-.84076z" fill="#BDBDBD" stroke="#fff" stroke-width=".15"/></svg>