<svg width="32" height="33" fill="none" xmlns="http://www.w3.org/2000/svg"><path d="M15.998.246094c-4.349 0-4.891.021-6.593.093-1.709.084-2.865.349-3.885.744996-1.06754.40302-2.03434 1.03402-2.833 1.849-.81726.7968-1.4486 1.76414-1.849 2.833-.396 1.02-.661 2.176-.745 3.885C.016 11.3541 0 11.8951 0 16.2441s.021 4.891.093 6.593c.084 1.704.349 2.865.745 3.885.40302 1.0675 1.03402 2.0343 1.849 2.833.7968.8173 1.76413 1.4486 2.833 1.849 1.02.391 2.181.661 3.885.745 1.703.077 2.244.093 6.593.093s4.891-.021 6.593-.093c1.704-.084 2.865-.355 3.885-.745 1.0675-.403 2.0343-1.034 2.833-1.849.8183-.7959 1.4498-1.7635 1.849-2.833.391-1.02.661-2.181.745-3.885.077-1.703.093-2.244.093-6.593s-.021-4.891-.093-6.59301c-.084-1.704-.355-2.871-.745-3.885-.403-1.06753-1.034-2.03433-1.849-2.833-.7959-.81831-1.7635-1.44982-2.833-1.849-1.02-.395996-2.181-.660996-3.885-.744996-1.703-.077-2.244-.093-6.593-.093zm0 2.879996c4.271 0 4.781.021 6.469.093 1.557.073 2.405.333 2.968.553.696.25693 1.326.66585 1.844 1.197.5302.51583.9376 1.14435 1.192 1.839.22.563.48 1.411.553 2.968.072 1.68801.093 2.19901.093 6.46901s-.021 4.781-.099 6.469c-.084 1.557-.344 2.405-.563 2.968-.303.751-.641 1.276-1.199 1.844-.5198.5278-1.1493.9348-1.844 1.192-.556.22-1.416.48-2.979.553-1.697.072-2.197.093-6.479.093s-4.781-.021-6.48-.099c-1.557-.084-2.416-.344-2.979-.563-.76-.303-1.281-.641-1.839-1.199-.563-.563-.921-1.099-1.197-1.844-.224-.556-.48-1.416-.563-2.979-.057-1.677-.084-2.197-.084-6.459 0-4.26.027-4.781.084-6.47901.083-1.563.339-2.421.563-2.979.276-.761.635-1.281 1.197-1.844.557-.557 1.079-.917 1.839-1.199.563-.219 1.401-.479 2.964-.557 1.697-.061 2.197-.083 6.473-.083l.066.046zm0 4.907c-1.0787-.00039-2.1468.21178-3.1434.62438-.9967.4126-1.9022 1.01755-2.6649 1.78023-.76277.7628-1.36772 1.6683-1.78033 2.6649-.4126.9967-.62476 2.0648-.62437 3.1435-.00039 1.0787.21177 2.1468.62437 3.1434.41261.9967 1.01756 1.9022 1.78033 2.6649.7627.7628 1.6682 1.3677 2.6649 1.7803.9966.4126 2.0647.6248 3.1434.6244 1.0787.0004 2.1468-.2118 3.1434-.6244.9967-.4126 1.9022-1.0175 2.6649-1.7803.7628-.7627 1.3677-1.6682 1.7803-2.6649.4126-.9966.6248-2.0647.6244-3.1434.0004-1.0787-.2118-2.1468-.6244-3.1435-.4126-.9966-1.0175-1.9021-1.7803-2.6649-.7627-.76268-1.6682-1.36763-2.6649-1.78023-.9966-.4126-2.0647-.62477-3.1434-.62438zm0 13.54601c-2.948 0-5.333-2.385-5.333-5.333 0-2.948 2.385-5.333 5.333-5.333 2.948 0 5.333 2.385 5.333 5.333 0 2.948-2.385 5.333-5.333 5.333zM26.462 7.70509c-.0005.50967-.2034.99828-.5639 1.35848-.3606.3602-.8494.56252-1.3591.56252-.252 0-.5015-.04963-.7344-.14607-.2328-.09644-.4443-.23779-.6225-.41599-.1782-.17819-.3196-.38974-.416-.62257-.0965-.23282-.1461-.48236-.1461-.73437 0-.252.0496-.50154.1461-.73437.0964-.23282.2378-.44437.416-.62256.1782-.1782.3897-.31955.6225-.41599.2329-.09644.4824-.14608.7344-.14608 1.057 0 1.923.86 1.923 1.917z" fill="#8482FF"/></svg>