<svg width="32" height="33" viewBox="0 0 32 33" fill="none" xmlns="http://www.w3.org/2000/svg">
<path d="M15.998 0.246094C11.649 0.246094 11.107 0.267094 9.405 0.339094C7.696 0.423094 6.54 0.688094 5.52 1.08409C4.45246 1.48711 3.48566 2.11811 2.687 2.93309C1.86974 3.72989 1.2384 4.69723 0.838 5.76609C0.442 6.78609 0.177 7.94209 0.093 9.65109C0.016 11.3541 0 11.8951 0 16.2441C0 20.5931 0.021 21.1351 0.093 22.8371C0.177 24.5411 0.442 25.7021 0.838 26.7221C1.24102 27.7896 1.87202 28.7564 2.687 29.5551C3.4838 30.3724 4.45113 31.0037 5.52 31.4041C6.54 31.7951 7.701 32.0651 9.405 32.1491C11.108 32.2261 11.649 32.2421 15.998 32.2421C20.347 32.2421 20.889 32.2211 22.591 32.1491C24.295 32.0651 25.456 31.7941 26.476 31.4041C27.5435 31.0011 28.5103 30.3701 29.309 29.5551C30.1273 28.7592 30.7588 27.7916 31.158 26.7221C31.549 25.7021 31.819 24.5411 31.903 22.8371C31.98 21.1341 31.996 20.5931 31.996 16.2441C31.996 11.8951 31.975 11.3531 31.903 9.65109C31.819 7.94709 31.548 6.78009 31.158 5.76609C30.755 4.69856 30.124 3.73176 29.309 2.93309C28.5131 2.11478 27.5455 1.48327 26.476 1.08409C25.456 0.688094 24.295 0.423094 22.591 0.339094C20.888 0.262094 20.347 0.246094 15.998 0.246094ZM15.998 3.12609C20.269 3.12609 20.779 3.14709 22.467 3.21909C24.024 3.29209 24.872 3.55209 25.435 3.77209C26.131 4.02902 26.761 4.43794 27.279 4.96909C27.8092 5.48492 28.2166 6.11344 28.471 6.80809C28.691 7.37109 28.951 8.21909 29.024 9.77609C29.096 11.4641 29.117 11.9751 29.117 16.2451C29.117 20.5151 29.096 21.0261 29.018 22.7141C28.934 24.2711 28.674 25.1191 28.455 25.6821C28.152 26.4331 27.814 26.9581 27.256 27.5261C26.7362 28.0539 26.1067 28.4609 25.412 28.7181C24.856 28.9381 23.996 29.1981 22.433 29.2711C20.736 29.3431 20.236 29.3641 15.954 29.3641C11.672 29.3641 11.173 29.3431 9.474 29.2651C7.917 29.1811 7.058 28.9211 6.495 28.7021C5.735 28.3991 5.214 28.0611 4.656 27.5031C4.093 26.9401 3.735 26.4041 3.459 25.6591C3.235 25.1031 2.979 24.2431 2.896 22.6801C2.839 21.0031 2.812 20.4831 2.812 16.2211C2.812 11.9611 2.839 11.4401 2.896 9.74209C2.979 8.17909 3.235 7.32109 3.459 6.76309C3.735 6.00209 4.094 5.48209 4.656 4.91909C5.213 4.36209 5.735 4.00209 6.495 3.72009C7.058 3.50109 7.896 3.24109 9.459 3.16309C11.156 3.10209 11.656 3.08009 15.932 3.08009L15.998 3.12609ZM15.998 8.03309C14.9193 8.0327 13.8512 8.24487 12.8546 8.65747C11.8579 9.07007 10.9524 9.67502 10.1897 10.4377C9.42693 11.2005 8.82198 12.106 8.40937 13.1026C7.99677 14.0993 7.78461 15.1674 7.785 16.2461C7.78461 17.3248 7.99677 18.3929 8.40937 19.3895C8.82198 20.3862 9.42693 21.2917 10.1897 22.0544C10.9524 22.8172 11.8579 23.4221 12.8546 23.8347C13.8512 24.2473 14.9193 24.4595 15.998 24.4591C17.0767 24.4595 18.1448 24.2473 19.1414 23.8347C20.1381 23.4221 21.0436 22.8172 21.8063 22.0544C22.5691 21.2917 23.174 20.3862 23.5866 19.3895C23.9992 18.3929 24.2114 17.3248 24.211 16.2461C24.2114 15.1674 23.9992 14.0993 23.5866 13.1026C23.174 12.106 22.5691 11.2005 21.8063 10.4377C21.0436 9.67502 20.1381 9.07007 19.1414 8.65747C18.1448 8.24487 17.0767 8.0327 15.998 8.03309ZM15.998 21.5791C13.05 21.5791 10.665 19.1941 10.665 16.2461C10.665 13.2981 13.05 10.9131 15.998 10.9131C18.946 10.9131 21.331 13.2981 21.331 16.2461C21.331 19.1941 18.946 21.5791 15.998 21.5791ZM26.462 7.70509C26.4615 8.21476 26.2586 8.70337 25.8981 9.06357C25.5375 9.42377 25.0487 9.62609 24.539 9.62609C24.287 9.62609 24.0375 9.57646 23.8046 9.48002C23.5718 9.38358 23.3603 9.24223 23.1821 9.06403C23.0039 8.88584 22.8625 8.67429 22.7661 8.44146C22.6696 8.20864 22.62 7.9591 22.62 7.70709C22.62 7.45509 22.6696 7.20555 22.7661 6.97272C22.8625 6.7399 23.0039 6.52835 23.1821 6.35016C23.3603 6.17196 23.5718 6.03061 23.8046 5.93417C24.0375 5.83773 24.287 5.78809 24.539 5.78809C25.596 5.78809 26.462 6.64809 26.462 7.70509Z" fill="#8482FF"/>
</svg>
