<svg width="18" height="20" viewBox="0 0 18 20" fill="none" xmlns="http://www.w3.org/2000/svg">
<path d="M2.40225 5.40507C2.40225 3.3079 4.10865 1.6015 6.20582 1.6015H13.5191C13.2556 0.679837 12.4156 0 11.4107 0H2.20206C0.987325 0 0 0.987325 0 2.20206V14.6137C0 15.8284 0.987325 16.8158 2.20206 16.8158H2.40225V5.40507Z" fill="white"/>
<path d="M15.4144 3.20312H6.20573C4.99099 3.20312 4.00366 4.19045 4.00366 5.40519V17.0161C4.00366 18.2308 4.99099 19.2181 6.20573 19.2181H15.4144C16.6291 19.2181 17.6164 18.2308 17.6164 17.0161V5.40519C17.6164 4.19045 16.6291 3.20312 15.4144 3.20312ZM13.8129 16.8159H7.80723C7.47572 16.8159 7.20666 16.5468 7.20666 16.2153C7.20666 15.8838 7.47572 15.6148 7.80723 15.6148H13.8129C14.1444 15.6148 14.4134 15.8838 14.4134 16.2153C14.4134 16.5468 14.1444 16.8159 13.8129 16.8159ZM13.8129 13.6129H7.80723C7.47572 13.6129 7.20666 13.3438 7.20666 13.0123C7.20666 12.6808 7.47572 12.4118 7.80723 12.4118H13.8129C14.1444 12.4118 14.4134 12.6808 14.4134 13.0123C14.4134 13.3438 14.1444 13.6129 13.8129 13.6129ZM13.8129 10.8103H7.80723C7.47572 10.8103 7.20666 10.5412 7.20666 10.2097C7.20666 9.87818 7.47572 9.60913 7.80723 9.60913H13.8129C14.1444 9.60913 14.4134 9.87818 14.4134 10.2097C14.4134 10.5412 14.1444 10.8103 13.8129 10.8103ZM13.8129 7.60725H7.80723C7.47572 7.60725 7.20666 7.3382 7.20666 7.00669C7.20666 6.67518 7.47572 6.40613 7.80723 6.40613H13.8129C14.1444 6.40613 14.4134 6.67518 14.4134 7.00669C14.4134 7.3382 14.1444 7.60725 13.8129 7.60725Z" fill="white"/>
</svg>
