<svg width="18" height="20" fill="none" xmlns="http://www.w3.org/2000/svg"><path d="M2.40225 5.40507c0-2.09717 1.7064-3.80357 3.80357-3.80357h7.31328C13.2556.679837 12.4156 0 11.4107 0H2.20206C.987325 0 0 .987325 0 2.20206V14.6137c0 1.2147.987325 2.2021 2.20206 2.2021h.20019V5.40507z" fill="#fff"/><path d="M15.4144 3.20312H6.20573c-1.21474 0-2.20207.98733-2.20207 2.20207V17.0161c0 1.2147.98733 2.202 2.20207 2.202h9.20867c1.2147 0 2.202-.9873 2.202-2.202V5.40519c0-1.21474-.9873-2.20207-2.202-2.20207zM13.8129 16.8159H7.80723c-.33151 0-.60057-.2691-.60057-.6006s.26906-.6005.60057-.6005h6.00567c.3315 0 .6005.269.6005.6005s-.269.6006-.6005.6006zm0-3.203H7.80723c-.33151 0-.60057-.2691-.60057-.6006s.26906-.6005.60057-.6005h6.00567c.3315 0 .6005.269.6005.6005s-.269.6006-.6005.6006zm0-2.8026H7.80723c-.33151 0-.60057-.2691-.60057-.6006 0-.33152.26906-.60057.60057-.60057h6.00567c.3315 0 .6005.26905.6005.60057 0 .3315-.269.6006-.6005.6006zm0-3.20305H7.80723c-.33151 0-.60057-.26905-.60057-.60056 0-.33151.26906-.60056.60057-.60056h6.00567c.3315 0 .6005.26905.6005.60056 0 .33151-.269.60056-.6005.60056z" fill="#fff"/></svg>