<svg width="167" height="21" viewBox="0 0 167 21" fill="none" xmlns="http://www.w3.org/2000/svg">
<path d="M7.56758 11.0434C7.56758 12.3816 6.71531 13.1292 5.63128 13.1292C4.50987 13.1292 3.82207 12.3666 3.81459 11.1181V4.51675H0.158792V11.8358C0.166268 14.43 1.74372 16.1495 4.10616 16.1495C5.82566 16.1495 7.10407 15.2673 7.61244 13.8618H7.73206V16H11.2159V4.51675H7.56758V11.0434ZM17.1986 9.45096C17.2061 8.14264 17.9687 7.36513 19.1275 7.36513C20.2863 7.36513 20.9741 8.12769 20.9666 9.39862V16H24.6224V8.68092C24.6299 6.0942 23.0524 4.36723 20.6376 4.36723C18.9406 4.36723 17.6547 5.22697 17.1463 6.625H17.0192V4.51675H13.5428V16H17.1986V9.45096ZM26.8858 16H30.5416V9.76495C30.5416 8.39683 31.5135 7.47727 32.8218 7.47727C33.2554 7.47727 33.9058 7.55203 34.2572 7.67165V4.49432C33.9507 4.41208 33.5694 4.35975 33.233 4.35975C31.977 4.35975 30.9752 5.0924 30.5565 6.61005H30.4369V4.51675H26.8858V16ZM40.5184 16.2168C43.5312 16.2168 45.5124 14.759 45.9311 12.5012L42.5743 12.404C42.2902 13.1666 41.5426 13.5778 40.5857 13.5778C39.1802 13.5778 38.3129 12.6432 38.3129 11.2377V11.1406H45.9685V10.2285C45.9685 6.44557 43.6658 4.36723 40.4062 4.36723C36.9373 4.36723 34.7095 6.74462 34.7095 10.3032C34.7095 13.9815 36.9074 16.2168 40.5184 16.2168ZM38.3129 9.01734C38.3653 7.8735 39.2699 7.00628 40.481 7.00628C41.6847 7.00628 42.5519 7.8436 42.5668 9.01734H38.3129ZM51.0727 16.1944C52.6726 16.1944 53.7791 15.5739 54.4071 14.4001H54.4968V16H57.9358V8.19498C57.9358 5.76525 55.7752 4.36723 52.8521 4.36723C49.7644 4.36723 48.015 5.92225 47.7235 8.01555L51.0952 8.13517C51.2522 7.40251 51.8577 6.95395 52.8221 6.95395C53.7193 6.95395 54.2875 7.38756 54.2875 8.1576V8.19498C54.2875 8.89773 53.5249 9.04725 51.5662 9.2192C49.2411 9.41358 47.2973 10.2733 47.2973 12.8152C47.2973 15.0879 48.8748 16.1944 51.0727 16.1944ZM52.2016 13.802C51.3568 13.802 50.7587 13.3983 50.7587 12.6358C50.7587 11.8956 51.3419 11.4471 52.3811 11.2901C53.0614 11.1929 53.8987 11.0434 54.3099 10.8266V11.9181C54.3099 13.0395 53.3679 13.802 52.2016 13.802ZM63.8269 0.688995H60.1711V16H63.8269V0.688995ZM68.2098 16.2168C69.234 16.2168 70.1386 15.3496 70.1536 14.273C70.1386 13.2114 69.234 12.3517 68.2098 12.3517C67.1332 12.3517 66.251 13.2114 66.266 14.273C66.251 15.3496 67.1332 16.2168 68.2098 16.2168Z" fill="#8482FF"/>
<path d="M75.8055 16.1944C77.4054 16.1944 78.5118 15.5739 79.1398 14.4001H79.2295V16H82.6685V8.19498C82.6685 5.76525 80.5079 4.36723 77.5848 4.36723C74.4972 4.36723 72.7478 5.92225 72.4562 8.01555L75.8279 8.13517C75.9849 7.40251 76.5905 6.95395 77.5549 6.95395C78.452 6.95395 79.0202 7.38756 79.0202 8.1576V8.19498C79.0202 8.89773 78.2576 9.04725 76.2989 9.2192C73.9738 9.41358 72.0301 10.2733 72.0301 12.8152C72.0301 15.0879 73.6075 16.1944 75.8055 16.1944ZM76.9344 13.802C76.0896 13.802 75.4915 13.3983 75.4915 12.6358C75.4915 11.8956 76.0746 11.4471 77.1138 11.2901C77.7941 11.1929 78.6314 11.0434 79.0426 10.8266V11.9181C79.0426 13.0395 78.1006 13.802 76.9344 13.802ZM90.2642 16.2168C93.4939 16.2168 95.4975 14.3403 95.5946 11.4994H92.1781C92.0435 12.718 91.3109 13.3834 90.3091 13.3834C89.0232 13.3834 88.1859 12.2993 88.1859 10.2584C88.1859 8.23236 89.0306 7.14833 90.3091 7.14833C91.3557 7.14833 92.036 7.85855 92.1781 9.0323H95.5946C95.5124 6.20634 93.449 4.36723 90.2567 4.36723C86.6458 4.36723 84.4628 6.77452 84.4628 10.2958C84.4628 13.802 86.6308 16.2168 90.2642 16.2168ZM100.703 16.1944C102.303 16.1944 103.409 15.5739 104.037 14.4001H104.127V16H107.566V8.19498C107.566 5.76525 105.405 4.36723 102.482 4.36723C99.3944 4.36723 97.645 5.92225 97.3534 8.01555L100.725 8.13517C100.882 7.40251 101.488 6.95395 102.452 6.95395C103.349 6.95395 103.917 7.38756 103.917 8.1576V8.19498C103.917 8.89773 103.155 9.04725 101.196 9.2192C98.871 9.41358 96.9273 10.2733 96.9273 12.8152C96.9273 15.0879 98.5047 16.1944 100.703 16.1944ZM101.832 13.802C100.987 13.802 100.389 13.3983 100.389 12.6358C100.389 11.8956 100.972 11.4471 102.011 11.2901C102.691 11.1929 103.529 11.0434 103.94 10.8266V11.9181C103.94 13.0395 102.998 13.802 101.832 13.802ZM113.995 16.1645C115.73 16.1645 116.761 15.2001 117.225 14.1385H117.337V16H120.955V0.688995H117.3V6.48295H117.225C116.791 5.42883 115.789 4.36723 113.98 4.36723C111.58 4.36723 109.405 6.21382 109.405 10.2658C109.405 14.1758 111.461 16.1645 113.995 16.1645ZM115.266 13.3161C113.913 13.3161 113.158 12.1124 113.158 10.2584C113.158 8.41178 113.905 7.22309 115.266 7.22309C116.604 7.22309 117.382 8.38188 117.382 10.2584C117.382 12.1199 116.597 13.3161 115.266 13.3161ZM128.635 16.2168C131.648 16.2168 133.629 14.759 134.048 12.5012L130.691 12.404C130.407 13.1666 129.659 13.5778 128.702 13.5778C127.297 13.5778 126.43 12.6432 126.43 11.2377V11.1406H134.085V10.2285C134.085 6.44557 131.783 4.36723 128.523 4.36723C125.054 4.36723 122.826 6.74462 122.826 10.3032C122.826 13.9815 125.024 16.2168 128.635 16.2168ZM126.43 9.01734C126.482 7.8735 127.387 7.00628 128.598 7.00628C129.801 7.00628 130.669 7.8436 130.684 9.01734H126.43ZM135.952 16H139.608V9.20425C139.608 8.06788 140.274 7.3427 141.23 7.3427C142.18 7.3427 142.808 8.00807 142.808 9.06968V16H146.322V9.14444C146.322 8.04545 146.927 7.3427 147.937 7.3427C148.864 7.3427 149.521 7.96322 149.521 9.10706V16H153.177V8.26974C153.177 5.84001 151.682 4.36723 149.514 4.36723C147.817 4.36723 146.479 5.25688 146.053 6.625H145.933C145.626 5.2494 144.393 4.36723 142.8 4.36723C141.23 4.36723 140.034 5.22697 139.556 6.625H139.429V4.51675H135.952V16ZM157.267 20.3062C159.898 20.3062 161.207 18.9755 161.842 17.099L166.171 4.52422L162.32 4.51675L160.175 12.7105H160.055L157.94 4.51675H154.112L158.194 16.4187L158.052 16.7626C157.7 17.6223 156.908 17.6373 155.831 17.2859L155.024 19.9399C155.577 20.1642 156.392 20.3062 157.267 20.3062Z" fill="#3E416D"/>
</svg>
