<svg width="167" height="21" fill="none" xmlns="http://www.w3.org/2000/svg"><path d="M7.56758 11.0434c0 1.3382-.85227 2.0858-1.9363 2.0858-1.12141 0-1.80921-.7626-1.81669-2.0111V4.51675H.158792v7.31905C.166268 14.43 1.74372 16.1495 4.10616 16.1495c1.7195 0 2.99791-.8822 3.50628-2.2877h.11962V16h3.48384V4.51675H7.56758v6.52665zm9.63102-1.59244c.0075-1.30832.7701-2.08583 1.9289-2.08583s1.8466.76256 1.8391 2.03349V16h3.6558V8.68092c.0075-2.58672-1.57-4.31369-3.9848-4.31369-1.697 0-2.9829.85974-3.4913 2.25777h-.1271V4.51675h-3.4764V16h3.6558V9.45096zM26.8858 16h3.6558V9.76495c0-1.36812.9719-2.28768 2.2802-2.28768.4336 0 1.084.07476 1.4354.19438V4.49432c-.3065-.08224-.6878-.13457-1.0242-.13457-1.256 0-2.2578.73265-2.6765 2.2503h-.1196v-2.0933h-3.5511V16zm13.6326.2168c3.0128 0 4.994-1.4578 5.4127-3.7156l-3.3568-.0972c-.2841.7626-1.0317 1.1738-1.9886 1.1738-1.4055 0-2.2728-.9346-2.2728-2.3401v-.0971h7.6556v-.9121c0-3.78293-2.3027-5.86127-5.5623-5.86127-3.4689 0-5.6967 2.37739-5.6967 5.93597 0 3.6783 2.1979 5.9136 5.8089 5.9136zm-2.2055-7.19946c.0524-1.14384.957-2.01106 2.1681-2.01106 1.2037 0 2.0709.83732 2.0858 2.01106h-4.2539zm12.7598 7.17706c1.5999 0 2.7064-.6205 3.3344-1.7943h.0897V16h3.439V8.19498c0-2.42973-2.1606-3.82775-5.0837-3.82775-3.0877 0-4.8371 1.55502-5.1286 3.64832l3.3717.11962c.157-.73266.7625-1.18122 1.7269-1.18122.8972 0 1.4654.43361 1.4654 1.20365v.03738c0 .70275-.7626.85227-2.7213 1.02422-2.3251.19438-4.2689 1.0541-4.2689 3.596 0 2.2727 1.5775 3.3792 3.7754 3.3792zm1.1289-2.3924c-.8448 0-1.4429-.4037-1.4429-1.1662 0-.7402.5832-1.1887 1.6224-1.3457.6803-.0972 1.5176-.2467 1.9288-.4635v1.0915c0 1.1214-.942 1.8839-2.1083 1.8839zM63.8269.688995h-3.6558V16h3.6558V.688995zM68.2098 16.2168c1.0242 0 1.9288-.8672 1.9438-1.9438-.015-1.0616-.9196-1.9213-1.9438-1.9213-1.0766 0-1.9588.8597-1.9438 1.9213-.015 1.0766.8672 1.9438 1.9438 1.9438z" fill="#8482FF"/><path d="M75.8055 16.1944c1.5999 0 2.7063-.6205 3.3343-1.7943h.0897V16h3.439V8.19498c0-2.42973-2.1606-3.82775-5.0837-3.82775-3.0876 0-4.837 1.55502-5.1286 3.64832l3.3717.11962c.157-.73266.7626-1.18122 1.727-1.18122.8971 0 1.4653.43361 1.4653 1.20365v.03738c0 .70275-.7626.85227-2.7213 1.02422-2.3251.19438-4.2688 1.0541-4.2688 3.596 0 2.2727 1.5774 3.3792 3.7754 3.3792zm1.1289-2.3924c-.8448 0-1.4429-.4037-1.4429-1.1662 0-.7402.5831-1.1887 1.6223-1.3457.6803-.0972 1.5176-.2467 1.9288-.4635v1.0915c0 1.1214-.942 1.8839-2.1082 1.8839zm13.3298 2.4148c3.2297 0 5.2333-1.8765 5.3304-4.7174h-3.4165c-.1346 1.2186-.8672 1.884-1.869 1.884-1.2859 0-2.1232-1.0841-2.1232-3.125 0-2.02604.8447-3.11007 2.1232-3.11007 1.0466 0 1.7269.71022 1.869 1.88397h3.4165c-.0822-2.82596-2.1456-4.66507-5.3379-4.66507-3.6109 0-5.7939 2.40729-5.7939 5.92857 0 3.5062 2.168 5.921 5.8014 5.921zm10.4388-.0224c1.6 0 2.706-.6205 3.334-1.7943h.09V16h3.439V8.19498c0-2.42973-2.161-3.82775-5.084-3.82775-3.0876 0-4.837 1.55502-5.1286 3.64832l3.3716.11962c.157-.73266.763-1.18122 1.727-1.18122.897 0 1.465.43361 1.465 1.20365v.03738c0 .70275-.762.85227-2.721 1.02422-2.325.19438-4.2687 1.0541-4.2687 3.596 0 2.2727 1.5774 3.3792 3.7757 3.3792zm1.129-2.3924c-.845 0-1.443-.4037-1.443-1.1662 0-.7402.583-1.1887 1.622-1.3457.68-.0972 1.518-.2467 1.929-.4635v1.0915c0 1.1214-.942 1.8839-2.108 1.8839zm12.163 2.3625c1.735 0 2.766-.9644 3.23-2.026h.112V16h3.618V.688995H117.3V6.48295h-.075c-.434-1.05412-1.436-2.11572-3.245-2.11572-2.4 0-4.575 1.84659-4.575 5.89857 0 3.91 2.056 5.8987 4.59 5.8987zm1.271-2.8484c-1.353 0-2.108-1.2037-2.108-3.0577 0-1.84662.747-3.03531 2.108-3.03531 1.338 0 2.116 1.15879 2.116 3.03531 0 1.8615-.785 3.0577-2.116 3.0577zm13.369 2.9007c3.013 0 4.994-1.4578 5.413-3.7156l-3.357-.0972c-.284.7626-1.032 1.1738-1.989 1.1738-1.405 0-2.272-.9346-2.272-2.3401v-.0971h7.655v-.9121c0-3.78293-2.302-5.86127-5.562-5.86127-3.469 0-5.697 2.37739-5.697 5.93597 0 3.6783 2.198 5.9136 5.809 5.9136zm-2.205-7.19946c.052-1.14384.957-2.01106 2.168-2.01106 1.203 0 2.071.83732 2.086 2.01106h-4.254zM135.952 16h3.656V9.20425c0-1.13637.666-1.86155 1.622-1.86155.95 0 1.578.66537 1.578 1.72698V16h3.514V9.14444c0-1.09899.605-1.80174 1.615-1.80174.927 0 1.584.62052 1.584 1.76436V16h3.656V8.26974c0-2.42973-1.495-3.90251-3.663-3.90251-1.697 0-3.035.88965-3.461 2.25777h-.12c-.307-1.3756-1.54-2.25777-3.133-2.25777-1.57 0-2.766.85974-3.244 2.25777h-.127V4.51675h-3.477V16zm21.315 4.3062c2.631 0 3.94-1.3307 4.575-3.2072l4.329-12.57478-3.851-.00747-2.145 8.19375h-.12l-2.115-8.19375h-3.828l4.082 11.90195-.142.3439c-.352.8597-1.144.8747-2.221.5233l-.807 2.654c.553.2243 1.368.3663 2.243.3663z" fill="#fff"/></svg>