<svg width="237" height="274" fill="none" xmlns="http://www.w3.org/2000/svg"><rect x="28.3027" y="15.8916" width="193.369" height="193.369" rx="44" fill="#8482FF" fill-opacity=".23" stroke="#8482FF" stroke-width="4"/><path d="M71.4538 269.134h5.299c2.9979 0 4.468-1.528 4.468-3.567 0-1.982-1.4062-3.145-2.7997-3.215v-.128c1.2784-.3 2.2884-1.195 2.2884-2.787 0-1.95-1.4063-3.394-4.2443-3.394h-5.0114v13.091zm2.3714-1.982v-3.835h2.6144c1.4638 0 2.3714.895 2.3714 2.065 0 1.042-.7159 1.77-2.4353 1.77h-2.5505zm0-5.542v-3.611h2.3971c1.3934 0 2.1157.735 2.1157 1.745 0 1.15-.9332 1.866-2.1669 1.866h-2.3459zm11.5872 4.392v-6.686h-2.2308v9.818h2.3842l3.9184-6.693v6.693h2.2372v-9.818h-2.3779l-3.9311 6.686zm7.8159 5.983h2.2756v-2.851h6.4241v2.851h2.237v-4.756h-1.521v-7.913h-7.0954l-.2812 3.439c-.1854 2.198-.4283 3.828-1.2593 4.474h-.7798v4.756zm3.1577-4.756c.62-.914.8501-2.397 1.0163-4.474l.1534-1.573h2.8763v6.047h-4.046zm13.853 2.097c2.288 0 3.861-1.119 4.27-2.826l-2.16-.243c-.314.831-1.081 1.266-2.078 1.266-1.496 0-2.486-.984-2.506-2.665h6.84v-.71c0-3.445-2.071-4.96-4.487-4.96-2.813 0-4.647 2.064-4.647 5.094 0 3.081 1.809 5.044 4.768 5.044zm-2.467-6.028c.07-1.253.997-2.308 2.378-2.308 1.329 0 2.224.972 2.237 2.308h-4.615zm13.073 6.028c2.877 0 4.705-2.027 4.705-5.063 0-3.043-1.828-5.075-4.705-5.075-2.876 0-4.704 2.032-4.704 5.075 0 3.036 1.828 5.063 4.704 5.063zm.013-1.854c-1.592 0-2.372-1.419-2.372-3.215 0-1.797.78-3.235 2.372-3.235 1.566 0 2.346 1.438 2.346 3.235 0 1.796-.78 3.215-2.346 3.215zm7.76 5.344c1.802 0 2.844-.927 3.4-2.493l3.944-10.995-2.473-.012-2.27 7.414h-.102l-2.263-7.414H126.4l3.56 10.022-.198.531c-.428 1.118-1.106 1.195-2.116.901l-.537 1.803c.314.128.876.243 1.509.243zm8.95 0h2.314v-5.229h.096c.364.716 1.125 1.719 2.813 1.719 2.314 0 4.046-1.834 4.046-5.069 0-3.272-1.784-5.049-4.053-5.049-1.732 0-2.454 1.042-2.806 1.751h-.134v-1.623h-2.276v13.5zm2.269-8.591c0-1.905.819-3.139 2.308-3.139 1.541 0 2.333 1.311 2.333 3.139 0 1.841-.805 3.183-2.333 3.183-1.477 0-2.308-1.278-2.308-3.183zm13.264 5.101c2.876 0 4.705-2.027 4.705-5.063 0-3.043-1.829-5.075-4.705-5.075-2.876 0-4.705 2.032-4.705 5.075 0 3.036 1.829 5.063 4.705 5.063zm.013-1.854c-1.592 0-2.372-1.419-2.372-3.215 0-1.797.78-3.235 2.372-3.235 1.566 0 2.346 1.438 2.346 3.235 0 1.796-.78 3.215-2.346 3.215zm6.655 1.662h2.314v-3.701h1.132l2.691 3.701h2.8l-3.676-4.999 3.637-4.819h-2.787l-2.953 3.963h-.844v-3.963h-2.314v9.818zm12.479-3.132v-6.686h-2.23v9.818h2.384l3.918-6.693v6.693h2.237v-9.818h-2.378l-3.931 6.686z" fill="#fff"/><g clip-path="url(#clip0)" filter="url(#filter0_d)"><path d="M183.79 178.232L40.64 139.875 68.1678 37.1402c1.4232-5.3112 6.8824-8.4631 12.1936-7.0399L204.278 63.3037c5.311 1.4231 8.463 6.8823 7.04 12.1936L183.79 178.232z" fill="url(#paint0_linear)"/><path d="M204.278 63.3035l-13.821-3.7034c5.311 1.4231 8.463 6.8824 7.04 12.1936L169.969 174.529l13.821 3.703 27.528-102.7349c1.423-5.3113-1.729-10.7705-7.04-12.1936z" fill="url(#paint1_linear)"/><path d="M170.711 162.911L59.627 133.146c-4.0487-1.084-6.4514-5.246-5.3666-9.295l20.4308-76.2486c1.0848-4.0486 5.2466-6.4514 9.2952-5.3666l111.0846 29.765c4.048 1.0848 6.451 5.2465 5.366 9.2951l-20.43 76.2491c-1.085 4.048-5.247 6.451-9.296 5.366z" fill="url(#paint2_linear)"/><path d="M200.281 182.651l-2.254 8.413c-1.632 6.088-7.89 9.702-13.978 8.07L29.9647 157.847c-6.0883-1.631-9.7013-7.889-8.07-13.977l2.2543-8.413c1.6313-6.088 7.8893-9.701 13.9776-8.07L90.0492 141.3c2.2611.605 3.603 2.93 2.9972 5.191-.6058 2.261.7361 4.585 2.9972 5.191l33.8624 9.073c2.261.606 4.585-.736 5.191-2.997.606-2.261 2.93-3.603 5.191-2.997l51.923 13.913c6.088 1.631 9.701 7.889 8.07 13.977z" fill="url(#paint3_linear)"/><path d="M192.211 168.672l-14.169-3.797c6.089 1.632 9.703 7.89 8.071 13.979l-2.254 8.413c-1.631 6.089-7.89 9.702-13.979 8.071l14.168 3.796c6.089 1.632 12.348-1.982 13.979-8.071l2.254-8.412c1.632-6.089-1.981-12.348-8.07-13.979z" fill="url(#paint4_linear)"/><path d="M114.344 96.7516L83.7576 88.556c-2.7584-.7391-4.3954-3.5745-3.6563-6.3329l7.6617-28.5938c.7391-2.7583 3.5745-4.3954 6.3329-3.6562l30.5861 8.1956c2.759.7391 4.396 3.5745 3.657 6.3328l-7.662 28.5938c-.739 2.7583-3.575 4.3953-6.333 3.6563z" fill="url(#paint5_linear)"/><path d="M180.007 157.545l20.431-76.2491c.878-3.2777-.531-6.6278-3.247-8.3613l-24.176 90.2274c3.218-.142 6.113-2.34 6.992-5.617z" fill="url(#paint6_linear)"/><path d="M164.154 155.734l-95.2602-25.525c-1.195-.32-1.9207-1.487-1.6209-2.605l2.2029-8.222c.2997-1.119 1.5115-1.766 2.7064-1.446l95.2608 25.525c1.195.32 1.921 1.487 1.621 2.606l-2.203 8.221c-.3 1.119-1.512 1.766-2.707 1.446z" fill="url(#paint7_linear)"/><path d="M171.204 129.424l-95.2604-25.525c-1.1949-.32-1.9207-1.487-1.6209-2.606l2.2029-8.2211c.2998-1.1186 1.5115-1.7659 2.7064-1.4458l95.261 25.5249c1.195.32 1.92 1.487 1.621 2.605l-2.203 8.222c-.3 1.119-1.512 1.766-2.707 1.446z" fill="url(#paint8_linear)"/><path d="M178.254 103.114l-42.127-11.288c-1.195-.3202-1.92-1.4867-1.621-2.6053l2.203-8.2215c.3-1.1187 1.512-1.766 2.707-1.4458l42.126 11.2878c1.195.3202 1.921 1.4866 1.621 2.6053l-2.203 8.2215c-.299 1.119-1.511 1.766-2.706 1.446z" fill="url(#paint9_linear)"/></g><defs><linearGradient id="paint0_linear" x1="51.6344" y1="82.6119" x2="167.892" y2="113.763" gradientUnits="userSpaceOnUse"><stop stop-color="#537983"/><stop offset="1" stop-color="#3E5959"/></linearGradient><linearGradient id="paint1_linear" x1="98.9483" y1="95.2894" x2="193.533" y2="120.633" gradientUnits="userSpaceOnUse"><stop stop-color="#537983"/><stop offset="1" stop-color="#384949"/></linearGradient><linearGradient id="paint2_linear" x1="38.6638" y1="78.8107" x2="216.801" y2="126.542" gradientUnits="userSpaceOnUse"><stop stop-color="#F9F3F1"/><stop offset=".5725" stop-color="#EFE2DD"/><stop offset="1" stop-color="#CDBFBA"/></linearGradient><linearGradient id="paint3_linear" x1="23.5751" y1="139.812" x2="209.386" y2="189.599" gradientUnits="userSpaceOnUse"><stop stop-color="#537983"/><stop offset="1" stop-color="#3E5959"/></linearGradient><linearGradient id="paint4_linear" x1="110.398" y1="163.075" x2="203.324" y2="187.974" gradientUnits="userSpaceOnUse"><stop stop-color="#537983"/><stop offset="1" stop-color="#384949"/></linearGradient><linearGradient id="paint5_linear" x1="80.9534" y1="67.1283" x2="136.559" y2="82.0277" gradientUnits="userSpaceOnUse"><stop stop-color="#6BD9E7"/><stop offset=".5725" stop-color="#26A6FE"/><stop offset="1" stop-color="#0172FB"/></linearGradient><linearGradient id="paint6_linear" x1="109.045" y1="97.6692" x2="160.176" y2="111.37" gradientUnits="userSpaceOnUse"><stop stop-color="#F9F3F1"/><stop offset=".5725" stop-color="#EFE2DD"/><stop offset="1" stop-color="#CDBFBA"/></linearGradient><linearGradient id="paint7_linear" x1="71.5483" y1="124.343" x2="167.273" y2="149.992" gradientUnits="userSpaceOnUse"><stop stop-color="#537983"/><stop offset="1" stop-color="#3E5959"/></linearGradient><linearGradient id="paint8_linear" x1="78.598" y1="98.0331" x2="174.322" y2="123.682" gradientUnits="userSpaceOnUse"><stop stop-color="#537983"/><stop offset="1" stop-color="#3E5959"/></linearGradient><linearGradient id="paint9_linear" x1="138.782" y1="85.9604" x2="234.506" y2="111.61" gradientUnits="userSpaceOnUse"><stop stop-color="#537983"/><stop offset="1" stop-color="#3E5959"/></linearGradient><clipPath id="clip0"><path fill="#fff" transform="rotate(15 26.55333193 229.0771034)" d="M0 0h182.345v182.345H0z"/></clipPath><filter id="filter0_d" x="-8" y=".933105" width="265.326" height="268.326" filterUnits="userSpaceOnUse" color-interpolation-filters="sRGB"><feFlood flood-opacity="0" result="BackgroundImageFix"/><feColorMatrix in="SourceAlpha" values="0 0 0 0 0 0 0 0 0 0 0 0 0 0 0 0 0 0 127 0"/><feOffset dy="24"/><feGaussianBlur stdDeviation="10.5"/><feColorMatrix values="0 0 0 0 0 0 0 0 0 0 0 0 0 0 0 0 0 0 0.09 0"/><feBlend in2="BackgroundImageFix" result="effect1_dropShadow"/><feBlend in="SourceGraphic" in2="effect1_dropShadow" result="shape"/></filter></defs></svg>