<svg width="237" height="274" viewBox="0 0 237 274" fill="none" xmlns="http://www.w3.org/2000/svg">
<rect x="28.3027" y="15.8916" width="193.369" height="193.369" rx="44" fill="#8482FF" fill-opacity="0.23" stroke="#8482FF" stroke-width="4"/>
<path d="M71.4538 269.134H76.7528C79.7507 269.134 81.2208 267.606 81.2208 265.567C81.2208 263.585 79.8146 262.422 78.4211 262.352V262.224C79.6995 261.924 80.7095 261.029 80.7095 259.437C80.7095 257.487 79.3032 256.043 76.4652 256.043H71.4538V269.134ZM73.8252 267.152V263.317H76.4396C77.9034 263.317 78.811 264.212 78.811 265.382C78.811 266.424 78.0951 267.152 76.3757 267.152H73.8252ZM73.8252 261.61V257.999H76.2223C77.6157 257.999 78.338 258.734 78.338 259.744C78.338 260.894 77.4048 261.61 76.1711 261.61H73.8252ZM85.4124 266.002V259.316H83.1816V269.134H85.5658L89.4842 262.441V269.134H91.7214V259.316H89.3435L85.4124 266.002ZM93.2283 271.985H95.5039V269.134H101.928V271.985H104.165V267.229H102.644V259.316H95.5486L95.2674 262.755C95.082 264.953 94.8391 266.583 94.0081 267.229H93.2283V271.985ZM96.386 267.229C97.006 266.315 97.2361 264.832 97.4023 262.755L97.5557 261.182H100.432V267.229H96.386ZM110.239 269.326C112.527 269.326 114.1 268.207 114.509 266.5L112.349 266.257C112.035 267.088 111.268 267.523 110.271 267.523C108.775 267.523 107.785 266.539 107.765 264.858H114.605V264.148C114.605 260.703 112.534 259.188 110.118 259.188C107.305 259.188 105.471 261.252 105.471 264.282C105.471 267.363 107.28 269.326 110.239 269.326ZM107.772 263.298C107.842 262.045 108.769 260.99 110.15 260.99C111.479 260.99 112.374 261.962 112.387 263.298H107.772ZM120.845 269.326C123.722 269.326 125.55 267.299 125.55 264.263C125.55 261.22 123.722 259.188 120.845 259.188C117.969 259.188 116.141 261.22 116.141 264.263C116.141 267.299 117.969 269.326 120.845 269.326ZM120.858 267.472C119.266 267.472 118.486 266.053 118.486 264.257C118.486 262.46 119.266 261.022 120.858 261.022C122.424 261.022 123.204 262.46 123.204 264.257C123.204 266.053 122.424 267.472 120.858 267.472ZM128.618 272.816C130.42 272.816 131.462 271.889 132.018 270.323L135.962 259.328L133.489 259.316L131.219 266.73H131.117L128.854 259.316H126.4L129.96 269.338L129.762 269.869C129.334 270.987 128.656 271.064 127.646 270.77L127.109 272.573C127.423 272.701 127.985 272.816 128.618 272.816ZM137.568 272.816H139.882V267.587H139.978C140.342 268.303 141.103 269.306 142.791 269.306C145.105 269.306 146.837 267.472 146.837 264.237C146.837 260.965 145.053 259.188 142.784 259.188C141.052 259.188 140.33 260.23 139.978 260.939H139.844V259.316H137.568V272.816ZM139.837 264.225C139.837 262.32 140.656 261.086 142.145 261.086C143.686 261.086 144.478 262.397 144.478 264.225C144.478 266.066 143.673 267.408 142.145 267.408C140.668 267.408 139.837 266.13 139.837 264.225ZM153.101 269.326C155.977 269.326 157.806 267.299 157.806 264.263C157.806 261.22 155.977 259.188 153.101 259.188C150.225 259.188 148.396 261.22 148.396 264.263C148.396 267.299 150.225 269.326 153.101 269.326ZM153.114 267.472C151.522 267.472 150.742 266.053 150.742 264.257C150.742 262.46 151.522 261.022 153.114 261.022C154.68 261.022 155.46 262.46 155.46 264.257C155.46 266.053 154.68 267.472 153.114 267.472ZM159.769 269.134H162.083V265.433H163.215L165.906 269.134H168.706L165.03 264.135L168.667 259.316H165.88L162.927 263.279H162.083V259.316H159.769V269.134ZM172.248 266.002V259.316H170.018V269.134H172.402L176.32 262.441V269.134H178.557V259.316H176.179L172.248 266.002Z" fill="white"/>
<g clip-path="url(#clip0)" filter="url(#filter0_d)">
<path d="M183.79 178.232L40.64 139.875L68.1678 37.1402C69.591 31.829 75.0502 28.6771 80.3614 30.1003L204.278 63.3037C209.589 64.7268 212.741 70.186 211.318 75.4973L183.79 178.232Z" fill="url(#paint0_linear)"/>
<path d="M204.278 63.3035L190.457 59.6001C195.768 61.0232 198.92 66.4825 197.497 71.7937L169.969 174.529L183.79 178.232L211.318 75.4971C212.741 70.1858 209.589 64.7266 204.278 63.3035Z" fill="url(#paint1_linear)"/>
<path d="M170.711 162.911L59.627 133.146C55.5783 132.062 53.1756 127.9 54.2604 123.851L74.6912 47.6024C75.776 43.5538 79.9378 41.151 83.9864 42.2358L195.071 72.0008C199.119 73.0856 201.522 77.2473 200.437 81.2959L180.007 157.545C178.922 161.593 174.76 163.996 170.711 162.911Z" fill="url(#paint2_linear)"/>
<path d="M200.281 182.651L198.027 191.064C196.395 197.152 190.137 200.766 184.049 199.134L29.9647 157.847C23.8764 156.216 20.2634 149.958 21.8947 143.87L24.149 135.457C25.7803 129.369 32.0383 125.756 38.1266 127.387L90.0492 141.3C92.3103 141.905 93.6522 144.23 93.0464 146.491C92.4406 148.752 93.7825 151.076 96.0436 151.682L129.906 160.755C132.167 161.361 134.491 160.019 135.097 157.758C135.703 155.497 138.027 154.155 140.288 154.761L192.211 168.674C198.299 170.305 201.912 176.563 200.281 182.651Z" fill="url(#paint3_linear)"/>
<path d="M192.211 168.672L178.042 164.875C184.131 166.507 187.745 172.765 186.113 178.854L183.859 187.267C182.228 193.356 175.969 196.969 169.88 195.338L184.048 199.134C190.137 200.766 196.396 197.152 198.027 191.063L200.281 182.651C201.913 176.562 198.3 170.303 192.211 168.672Z" fill="url(#paint4_linear)"/>
<path d="M114.344 96.7516L83.7576 88.556C80.9992 87.8169 79.3622 84.9815 80.1013 82.2231L87.763 53.6293C88.5021 50.871 91.3375 49.2339 94.0959 49.9731L124.682 58.1687C127.441 58.9078 129.078 61.7432 128.339 64.5015L120.677 93.0953C119.938 95.8536 117.102 97.4906 114.344 96.7516Z" fill="url(#paint5_linear)"/>
<path d="M180.007 157.545L200.438 81.2959C201.316 78.0182 199.907 74.6681 197.191 72.9346L173.015 163.162C176.233 163.02 179.128 160.822 180.007 157.545Z" fill="url(#paint6_linear)"/>
<path d="M164.154 155.734L68.8938 130.209C67.6988 129.889 66.9731 128.722 67.2729 127.604L69.4758 119.382C69.7755 118.263 70.9873 117.616 72.1822 117.936L167.443 143.461C168.638 143.781 169.364 144.948 169.064 146.067L166.861 154.288C166.561 155.407 165.349 156.054 164.154 155.734Z" fill="url(#paint7_linear)"/>
<path d="M171.204 129.424L75.9436 103.899C74.7487 103.579 74.0229 102.412 74.3227 101.293L76.5256 93.0719C76.8254 91.9533 78.0371 91.306 79.232 91.6261L174.493 117.151C175.688 117.471 176.413 118.638 176.114 119.756L173.911 127.978C173.611 129.097 172.399 129.744 171.204 129.424Z" fill="url(#paint8_linear)"/>
<path d="M178.254 103.114L136.127 91.826C134.932 91.5058 134.207 90.3393 134.506 89.2207L136.709 80.9992C137.009 79.8805 138.221 79.2332 139.416 79.5534L181.542 90.8412C182.737 91.1614 183.463 92.3278 183.163 93.4465L180.96 101.668C180.661 102.787 179.449 103.434 178.254 103.114Z" fill="url(#paint9_linear)"/>
</g>
<defs>
<filter id="filter0_d" x="-8" y="0.933105" width="265.326" height="268.326" filterUnits="userSpaceOnUse" color-interpolation-filters="sRGB">
<feFlood flood-opacity="0" result="BackgroundImageFix"/>
<feColorMatrix in="SourceAlpha" type="matrix" values="0 0 0 0 0 0 0 0 0 0 0 0 0 0 0 0 0 0 127 0"/>
<feOffset dy="24"/>
<feGaussianBlur stdDeviation="10.5"/>
<feColorMatrix type="matrix" values="0 0 0 0 0 0 0 0 0 0 0 0 0 0 0 0 0 0 0.09 0"/>
<feBlend mode="normal" in2="BackgroundImageFix" result="effect1_dropShadow"/>
<feBlend mode="normal" in="SourceGraphic" in2="effect1_dropShadow" result="shape"/>
</filter>
<linearGradient id="paint0_linear" x1="51.6344" y1="82.6119" x2="167.892" y2="113.763" gradientUnits="userSpaceOnUse">
<stop stop-color="#537983"/>
<stop offset="1" stop-color="#3E5959"/>
</linearGradient>
<linearGradient id="paint1_linear" x1="98.9483" y1="95.2894" x2="193.533" y2="120.633" gradientUnits="userSpaceOnUse">
<stop stop-color="#537983"/>
<stop offset="1" stop-color="#384949"/>
</linearGradient>
<linearGradient id="paint2_linear" x1="38.6638" y1="78.8107" x2="216.801" y2="126.542" gradientUnits="userSpaceOnUse">
<stop stop-color="#F9F3F1"/>
<stop offset="0.5725" stop-color="#EFE2DD"/>
<stop offset="1" stop-color="#CDBFBA"/>
</linearGradient>
<linearGradient id="paint3_linear" x1="23.5751" y1="139.812" x2="209.386" y2="189.599" gradientUnits="userSpaceOnUse">
<stop stop-color="#537983"/>
<stop offset="1" stop-color="#3E5959"/>
</linearGradient>
<linearGradient id="paint4_linear" x1="110.398" y1="163.075" x2="203.324" y2="187.974" gradientUnits="userSpaceOnUse">
<stop stop-color="#537983"/>
<stop offset="1" stop-color="#384949"/>
</linearGradient>
<linearGradient id="paint5_linear" x1="80.9534" y1="67.1283" x2="136.559" y2="82.0277" gradientUnits="userSpaceOnUse">
<stop stop-color="#6BD9E7"/>
<stop offset="0.5725" stop-color="#26A6FE"/>
<stop offset="1" stop-color="#0172FB"/>
</linearGradient>
<linearGradient id="paint6_linear" x1="109.045" y1="97.6692" x2="160.176" y2="111.37" gradientUnits="userSpaceOnUse">
<stop stop-color="#F9F3F1"/>
<stop offset="0.5725" stop-color="#EFE2DD"/>
<stop offset="1" stop-color="#CDBFBA"/>
</linearGradient>
<linearGradient id="paint7_linear" x1="71.5483" y1="124.343" x2="167.273" y2="149.992" gradientUnits="userSpaceOnUse">
<stop stop-color="#537983"/>
<stop offset="1" stop-color="#3E5959"/>
</linearGradient>
<linearGradient id="paint8_linear" x1="78.598" y1="98.0331" x2="174.322" y2="123.682" gradientUnits="userSpaceOnUse">
<stop stop-color="#537983"/>
<stop offset="1" stop-color="#3E5959"/>
</linearGradient>
<linearGradient id="paint9_linear" x1="138.782" y1="85.9604" x2="234.506" y2="111.61" gradientUnits="userSpaceOnUse">
<stop stop-color="#537983"/>
<stop offset="1" stop-color="#3E5959"/>
</linearGradient>
<clipPath id="clip0">
<rect width="182.345" height="182.345" fill="white" transform="translate(60.1943 0.933105) rotate(15)"/>
</clipPath>
</defs>
</svg>
