<svg width="89" height="79" fill="none" xmlns="http://www.w3.org/2000/svg"><path d="M73.9473 23.7495l-.0367-.1463C69.8308 7.35096 53.3486-2.51691 37.0961 1.56284 24.3952 4.75099 15.173 15.7282 14.2227 28.7887l-.0142.1965-.1944.032C5.05783 30.4942-1.00538 38.9519.4716 47.9081l-.2466.0407.246601-.0407C1.78457 55.8704 8.68378 61.7014 16.7534 61.6694H27.6281v-5.0619H16.7544c-6.2816 0-11.37383-5.0922-11.37383-11.3738 0-6.2815 5.09223-11.3737 11.37383-11.3737 1.3977 0 2.5308-1.133 2.5309-2.5307v-.0003h.25l54.412-7.5795zm0 0l.1464.0357m-.1464-.0357l.1464.0357m0 0c8.5823 2.0967 14.6294 9.7748 14.6561 18.6094.0323 10.6131-8.5452 19.2427-19.1582 19.2748h-8.0921m12.5942-37.8842L61.4995 61.6694m0 0v-5.0619 5.0619z" fill="#8482FF" stroke="#fff" stroke-width=".5"/><path d="M47.0946 69.1221v.6017l.4263-.4245 6.2194-6.1924 3.568 3.568-10.9465 10.9465c-.9872.9814-2.5814.9814-3.5686 0L31.8467 66.6749l3.5676-3.5676 6.1916 6.1916.4268.4268V42.7029h5.0619v26.4192z" fill="#8482FF" stroke="#fff" stroke-width=".5"/></svg>