<svg width="89" height="79" viewBox="0 0 89 79" fill="none" xmlns="http://www.w3.org/2000/svg">
<path d="M73.9473 23.7495L73.9106 23.6032C69.8308 7.35096 53.3486 -2.51691 37.0961 1.56284C24.3952 4.75099 15.173 15.7282 14.2227 28.7887L14.2085 28.9852L14.0141 29.0172C5.05783 30.4942 -1.00538 38.9519 0.4716 47.9081L0.225 47.9488L0.471601 47.9081C1.78457 55.8704 8.68378 61.7014 16.7534 61.6694L16.7544 61.6694L27.6281 61.6694V56.6075H16.7544C10.4728 56.6075 5.38057 51.5153 5.38057 45.2337C5.38057 38.9522 10.4728 33.86 16.7544 33.86C18.1521 33.86 19.2852 32.727 19.2853 31.3293C19.2853 31.3292 19.2853 31.3291 19.2853 31.329H19.5353L73.9473 23.7495ZM73.9473 23.7495L74.0937 23.7852M73.9473 23.7495L74.0937 23.7852M74.0937 23.7852C82.676 25.8819 88.7231 33.56 88.7498 42.3946C88.7821 53.0077 80.2046 61.6373 69.5916 61.6694H61.4995M74.0937 23.7852L61.4995 61.6694M61.4995 61.6694V56.6075V61.6694Z" fill="#8482FF" stroke="white" stroke-width="0.5"/>
<path d="M47.0946 69.1221V69.7238L47.5209 69.2993L53.7403 63.1069L57.3083 66.6749L46.3618 77.6214C45.3746 78.6028 43.7804 78.6028 42.7932 77.6214L31.8467 66.6749L35.4143 63.1073L41.6059 69.2989L42.0327 69.7257V69.1221V42.7029H47.0946V69.1221Z" fill="#8482FF" stroke="white" stroke-width="0.5"/>
</svg>
