<svg width="77" height="77" viewBox="0 0 77 77" fill="none" xmlns="http://www.w3.org/2000/svg">
<path d="M0 0V77H77C77 74.6059 77 1.78474 77 0C75.0351 0 2.32314 0 0 0ZM4.52941 4.52941H36.2353V18.1176H38.6436C41.0531 18.1176 43.374 17.5321 45.3551 16.4244C46.0718 16.0239 46.9555 15.8042 47.8638 15.8628H47.864C50.2273 16.0155 52.0828 17.996 52.0882 20.3715C52.1421 23.7627 48.3539 26.0168 45.4007 24.3654C43.3347 23.2413 41.068 22.6471 38.8457 22.6471H36.2353V36.2353H27.3993C27.5929 35.3948 27.9104 34.5609 28.344 33.7639C31.6203 27.8835 27.227 20.3082 20.3608 20.3824C15.4127 20.394 11.2896 24.4362 11.3238 29.501C11.3341 31.0293 11.7259 32.5225 12.471 33.8552C12.877 34.5813 13.1767 35.3844 13.3628 36.2353H4.52941V4.52941ZM36.2353 72.4706H4.52941V40.7647H18.1176V38.3564C18.1176 35.9469 17.5321 33.6261 16.4244 31.6449C16 30.8858 15.8058 30.0184 15.8628 29.1362C16.0157 26.7696 18.0015 24.9118 20.3822 24.9118C23.7815 24.8698 26.0095 28.6589 24.3654 31.5993C23.2413 33.6653 22.6471 35.932 22.6471 38.1543V40.7647H36.2353V49.6007C35.3948 49.4071 34.5609 49.0896 33.7639 48.656C27.8251 45.3663 20.3067 49.8164 20.3824 56.6394C20.3934 61.3903 24.1104 65.3514 28.844 65.6573C30.5987 65.7704 32.3323 65.3807 33.8549 64.5292C34.5812 64.1232 35.3841 63.8235 36.2351 63.6373V72.4706H36.2353ZM72.4706 72.4706H40.7647V58.8824C38.8232 58.9109 37.7859 58.7964 36.1311 59.0521C34.5295 59.2994 33.0069 59.8141 31.6447 60.5756C30.8858 60.9999 30.0182 61.194 29.1362 61.1372C26.7729 60.9846 24.9174 59.0042 24.9118 56.6287C24.8579 53.2374 28.6461 50.9834 31.5993 52.6346C33.6653 53.7588 35.932 54.3529 38.1543 54.3529H40.7647V40.7647H49.6007C49.4071 41.6052 49.0896 42.4391 48.656 43.2361C47.501 45.3593 47.2457 47.8858 47.9484 50.2017C49.059 53.8621 52.4722 56.6176 56.6394 56.6176C63.4649 56.6607 67.9113 49.0567 64.529 43.1449C64.1232 42.4188 63.8235 41.6158 63.6373 40.7647H72.4706V72.4706ZM72.4706 36.2353H58.8824V38.6437C58.8824 40.9623 59.4268 43.3006 60.5756 45.3554C61.0101 46.1325 61.1928 47.0032 61.1372 47.8638C60.9846 50.2271 59.0042 52.0828 56.6288 52.0884C53.2532 52.1414 50.9769 48.366 52.6348 45.4009C53.7588 43.3347 54.3529 41.068 54.3529 38.8457V36.2353H40.7647V27.3993C41.6052 27.5929 42.4391 27.9104 43.2361 28.344C49.1822 31.6381 56.6959 27.1733 56.6176 20.3611C56.6066 15.5753 52.8209 11.5414 47.9536 11.3332C46.2445 11.26 44.5934 11.661 43.1448 12.4708C42.4172 12.8777 41.6138 13.177 40.7647 13.3627V4.52941H72.4706V36.2353Z" fill="#8482FF"/>
</svg>
