<svg width="77" height="77" fill="none" xmlns="http://www.w3.org/2000/svg"><path d="M0 0v77h77V0H0zm4.52941 4.52941H36.2353V18.1176h2.4083c2.4095 0 4.7304-.5855 6.7115-1.6932.7167-.4005 1.6004-.6202 2.5087-.5616h.0002c2.3633.1527 4.2188 2.1332 4.2242 4.5087.0539 3.3912-3.7343 5.6453-6.6875 3.9939-2.066-1.1241-4.3327-1.7183-6.555-1.7183h-2.6104v13.5882h-8.836c.1936-.8405.5111-1.6744.9447-2.4714 3.2763-5.8804-1.117-13.4557-7.9832-13.3815-4.9481.0116-9.0712 4.0538-9.037 9.1186.0103 1.5283.4021 3.0215 1.1472 4.3542.406.7261.7057 1.5292.8918 2.3801H4.52941V4.52941zM36.2353 72.4706H4.52941V40.7647H18.1176v-2.4083c0-2.4095-.5855-4.7303-1.6932-6.7115-.4244-.7591-.6186-1.6265-.5616-2.5087.1529-2.3666 2.1387-4.2244 4.5194-4.2244 3.3993-.042 5.6273 3.7471 3.9832 6.6875-1.1241 2.066-1.7183 4.3327-1.7183 6.555v2.6104h13.5882v8.836c-.8405-.1936-1.6744-.5111-2.4714-.9447-5.9388-3.2897-13.4572 1.1604-13.3815 7.9834.011 4.7509 3.728 8.712 8.4616 9.0179 1.7547.1131 3.4883-.2766 5.0109-1.1281.7263-.406 1.5292-.7057 2.3802-.8919v8.8333h.0002zm36.2353 0H40.7647V58.8824c-1.9415.0285-2.9788-.086-4.6336.1697-1.6016.2473-3.1242.762-4.4864 1.5235-.7589.4243-1.6265.6184-2.5085.5616-2.3633-.1526-4.2188-2.133-4.2244-4.5085-.0539-3.3913 3.7343-5.6453 6.6875-3.9941 2.066 1.1242 4.3327 1.7183 6.555 1.7183h2.6104V40.7647h8.836c-.1936.8405-.5111 1.6744-.9447 2.4714-1.155 2.1232-1.4103 4.6497-.7076 6.9656 1.1106 3.6604 4.5238 6.4159 8.691 6.4159 6.8255.0431 11.2719-7.5609 7.8896-13.4727-.4058-.7261-.7055-1.5291-.8917-2.3802h8.8333v31.7059zm0-36.2353H58.8824v2.4084c0 2.3186.5444 4.6569 1.6932 6.7117.4345.7771.6172 1.6478.5616 2.5084-.1526 2.3633-2.133 4.219-4.5084 4.2246-3.3756.053-5.6519-3.7224-3.994-6.6875 1.124-2.0662 1.7181-4.3329 1.7181-6.5552v-2.6104H40.7647v-8.836c.8405.1936 1.6744.5111 2.4714.9447 5.9461 3.2941 13.4598-1.1707 13.3815-7.9829-.011-4.7858-3.7967-8.8197-8.664-9.0279-1.7091-.0732-3.3602.3278-4.8088 1.1376-.7276.4069-1.531.7062-2.3801.8919V4.52941h31.7059V36.2353z" fill="#8482FF"/></svg>