<svg width="89" height="89" fill="none" xmlns="http://www.w3.org/2000/svg"><path d="M35.5998 30.0001v.0002c.0048 4.9132 3.9866 8.895 8.8998 8.8998h.0002c4.9154 0 8.9-3.9846 8.9-8.9s-3.9846-8.9001-8.9-8.9001-8.9 3.9847-8.9 8.9001zm8.9 5.6c-3.0928 0-5.6-2.5073-5.6-5.6 0-3.0928 2.5072-5.6 5.6-5.6 3.0928 0 5.6 2.5072 5.6 5.6 0 3.0928-2.507 5.6-5.6 5.6z" fill="#8482FF" stroke="#8482FF" stroke-width=".4"/><path d="M58.7662 41.1181c4.7567-14.8084-.6237-30.9975-13.3078-40.01139-.5735-.409224-1.3433-.409271-1.9168-.00015-.0001.00008-.0003.00017-.0004.00025l.1162.16278L58.7662 41.1181zm0 0c.4949.4034.9688.8318 1.42 1.2836 7.3026 7.3137 7.2938 19.1625-.0198 26.465m-1.4002-27.7486L50.8228 59l.04.2m9.3036 9.6667l-.1413-.1415.1414.1414c-.0001 0-.0001 0-.0001.0001zm0 0c-.3093.3092-.7288.4833-1.1665.4833h-.0002c-.177-.0002-.3527-.0286-.5206-.084l-.0006-.0002c-.593-.1974-1.0234-.7128-1.1121-1.3315v-.0001l-1.0947-7.6604-.0001-.0001c-.0876-.6156-.6145-1.0731-1.2362-1.0737m0 0h.0002V59l-.0002.2zm0 0h-4.1726m0 0l1.054 5.2698M50.8628 59.2h-.2039l1.2579 5.2698m0 0v.0002m0-.0002v.0002m0 0c.0223.1088.0335.2195.0335.3304-.0003.9112-.7393 1.6498-1.6504 1.6496h-11.6c-.1109 0-.2216-.0111-.3304-.0334-.8927-.1821-1.4688-1.0535-1.2867-1.9462.0001-.0002.0001-.0003.0001-.0004l1.054-5.27h-4.1726c-.6213.0005-1.1479.4572-1.2362 1.0724L51.9168 64.47zM30.2335 41.1181c-7.9631 6.488-9.2117 18.1971-2.7711 26.2206.4287.534.8863 1.0441 1.3709 1.5279.3093.3093.7288.4834 1.1665.4834h.0003c.1769-.0002.3526-.0286.5206-.084l.0005-.0002c.593-.1974 1.0234-.7128 1.1121-1.3315v-.0001l1.0948-7.6617-2.4946-19.1544zm3.7306 14.7821h-.0008c-2.2602.0096-4.1736 1.6701-4.5021 3.9061l-.0001.0008-.5515 3.8633c-1.7121-2.7916-2.491-6.0616-2.2151-9.334l.0183-.2168h-.0004c.3514-3.6477 1.9892-7.0506 4.6183-9.6003l3.6555 11.3809h-1.0221zm-.5592-15.7054l-.0001-.0003c-2.4436-7.5691-2.0177-15.7711 1.194-23.0444H54.401c3.2117 7.2733 3.6377 15.4753 1.1939 23.0444l-.0001.0003-.319.9932v.0001L50.547 55.9002H38.4527l-4.7288-14.7121v-.0001l-.319-.9932zm26.6853 23.4756l-.5516-3.8633-.0001-.0008c-.3285-2.236-2.2419-3.8965-4.5021-3.9061h-1.0227l3.6582-11.3808c2.6794 2.6007 4.3281 6.0877 4.6333 9.8165l.0001.0005c.276 3.2724-.5029 6.5424-2.2151 9.334zM36.2739 13.8501c2.1142-3.6154 4.9072-6.78907 8.226-9.34567 3.3187 2.5566 6.1118 5.73027 8.2259 9.34567H36.2739zm11.223 45.3501l.79 3.95h-7.5741l.79-3.95h5.9941z" fill="#8482FF" stroke="#8482FF" stroke-width=".4"/><path d="M38.6998 68.8343h-.2v4.6605c-3.4504-.9553-7.1526-.0409-9.7618 2.4144-2.2375-2.5671-5.4755-4.0488-8.8876-4.0589h-.0006c-1.0004 0-1.9962.1292-2.9629.3841-1.2752-6.9509-7.34947-12.0092-14.4375-11.9841H.799756V63.5503H2.45038c5.78196-.0179 10.64282 4.3179 11.29532 10.0492-1.3245.791-2.4813 1.8335-3.405 3.0684-2.62393-2.1759-5.92773-3.3687-9.341007-3.3676l-.199937.0001v3.2997l.199773.0002c6.293291.0071 11.393171 5.107 11.400271 11.4003l.0002.1997h3.2997l.0001-.1999c.0016-3.2101-1.0543-6.3301-3.0023-8.8783.8316-1.3296 2.014-2.4047 3.418-3.1063.0273-.0051.0611-.016.0946-.0389 1.1356-.5448 2.3793-.8272 3.6391-.8266 2.7049.0127 5.2403 1.3089 6.8348 3.488-.8016 1.5488-1.2248 3.266-1.2342 5.011l-.0011.201H28.75l-.0002-.2001c-.0012-1.4447.407-2.86 1.1771-4.0823l.0098-.0156c.0122-.0128.0288-.0312.0443-.0532l.0015-.0022c1.8808-2.7641 5.444-3.815 8.5173-2.5298v3.8672H41.7998V68.8343h-3.1zM86.5494 63.5503H88.2V60.2503h-1.6497c-7.088-.0251-13.1623 5.0332-14.4375 11.9841-.9667-.2549-1.9624-.3841-2.9629-.3841h-.0005c-3.4114.009-6.6495 1.4892-8.8876 4.0546-2.6092-2.4553-6.3115-3.3698-9.7619-2.4144V68.83H47.1999V80.83H50.4999V76.9671c3.0731-1.2856 6.6362-.2352 8.5174 2.5284h0l.0015.0022c.0154.022.032.0404.0442.0531l.0099.0156c.7704 1.2227 1.1784 2.6385 1.177 4.0837l-.0002.2002h3.3013l-.0011-.201c-.0093-1.745-.4326-3.4622-1.2342-5.011 1.5945-2.1791 4.1299-3.4753 6.8347-3.488 1.2666.0003 2.5167.2867 3.657.8381.0261.0128.0499.019.059.0214 1.4139.6996 2.6054 1.7772 3.4429 3.1123-1.9506 2.5473-3.009 5.6672-3.0094 8.8782v.2H76.5997l.0003-.1997c.0071-6.2933 5.1069-11.3932 11.4002-11.4003l.1998-.0002v-3.2997l-.2-.0001c-3.4133-.0007-6.7169 1.1919-9.341 3.3676-.9237-1.2349-2.0805-2.2774-3.405-3.0684.6527-5.7315 5.5134-10.0671 11.2954-10.0492z" fill="#8482FF" stroke="#8482FF" stroke-width=".4"/></svg>