<svg width="89" height="89" viewBox="0 0 89 89" fill="none" xmlns="http://www.w3.org/2000/svg">
<path d="M35.5998 30.0001L35.5998 30.0003C35.6046 34.9135 39.5864 38.8953 44.4996 38.9001H44.4998C49.4152 38.9001 53.3998 34.9155 53.3998 30.0001C53.3998 25.0847 49.4152 21.1 44.4998 21.1C39.5844 21.1 35.5998 25.0847 35.5998 30.0001ZM44.4998 35.6001C41.407 35.6001 38.8998 33.0928 38.8998 30.0001C38.8998 26.9073 41.407 24.4001 44.4998 24.4001C47.5926 24.4001 50.0998 26.9073 50.0998 30.0001C50.0998 33.0929 47.5928 35.6001 44.4998 35.6001Z" fill="#8482FF" stroke="#8482FF" stroke-width="0.4"/>
<path d="M58.7662 41.1181C63.5229 26.3097 58.1425 10.1206 45.4584 1.10671C44.8849 0.697486 44.1151 0.697439 43.5416 1.10656C43.5415 1.10664 43.5413 1.10673 43.5412 1.10681L43.6574 1.26959L58.7662 41.1181ZM58.7662 41.1181C59.2611 41.5215 59.735 41.9499 60.1862 42.4017C67.4888 49.7154 67.48 61.5642 60.1664 68.8667M58.7662 41.1181L50.8228 59L50.8628 59.2M60.1664 68.8667L60.0251 68.7252L60.1665 68.8666C60.1664 68.8666 60.1664 68.8666 60.1664 68.8667ZM60.1664 68.8667C59.8571 69.1759 59.4376 69.35 58.9999 69.35H58.9997C58.8227 69.3498 58.647 69.3214 58.4791 69.266L58.4785 69.2658C57.8855 69.0684 57.4551 68.553 57.3664 67.9343L57.3664 67.9342L56.2717 60.2738L56.2716 60.2737C56.184 59.6581 55.6571 59.2006 55.0354 59.2M55.0354 59.2H55.0356V59L55.0354 59.2ZM55.0354 59.2H50.8628M50.8628 59.2L51.9168 64.4698M50.8628 59.2H50.6589L51.9168 64.4698M51.9168 64.4698C51.9168 64.4699 51.9168 64.4699 51.9168 64.47M51.9168 64.4698L51.9168 64.47M51.9168 64.47C51.9391 64.5788 51.9503 64.6895 51.9503 64.8004C51.95 65.7116 51.211 66.4502 50.2999 66.45H38.6999C38.589 66.45 38.4783 66.4389 38.3695 66.4166C37.4768 66.2345 36.9007 65.3631 37.0828 64.4704C37.0829 64.4702 37.0829 64.4701 37.0829 64.47L38.1369 59.2H33.9643C33.343 59.2005 32.8164 59.6572 32.7281 60.2724L51.9168 64.47ZM30.2335 41.1181C22.2704 47.6061 21.0218 59.3152 27.4624 67.3387C27.8911 67.8727 28.3487 68.3828 28.8333 68.8666C29.1426 69.1759 29.5621 69.35 29.9998 69.35H30.0001C30.177 69.3498 30.3527 69.3214 30.5207 69.266L30.5212 69.2658C31.1142 69.0684 31.5446 68.553 31.6333 67.9343L31.6333 67.9342L32.7281 60.2725L30.2335 41.1181ZM33.9641 55.9002L33.9633 55.9002C31.7031 55.9098 29.7897 57.5703 29.4612 59.8063L29.4611 59.8071L28.9096 63.6704C27.1975 60.8788 26.4186 57.6088 26.6945 54.3364L26.7128 54.1196H26.7124C27.0638 50.4719 28.7016 47.069 31.3307 44.5193L34.9862 55.9002H33.9641ZM33.4049 40.1948L33.4048 40.1945C30.9612 32.6254 31.3871 24.4234 34.5988 17.1501H54.401C57.6127 24.4234 58.0387 32.6254 55.5949 40.1945L55.5948 40.1948L55.2758 41.188L55.2758 41.1881L50.547 55.9002H38.4527L33.7239 41.1881L33.7239 41.188L33.4049 40.1948ZM60.0902 63.6704L59.5386 59.8071L59.5385 59.8063C59.21 57.5703 57.2966 55.9098 55.0364 55.9002H55.0356H54.0137L57.6719 44.5194C60.3513 47.1201 62 50.6071 62.3052 54.3359L62.3053 54.3364C62.5813 57.6088 61.8024 60.8788 60.0902 63.6704ZM36.2739 13.8501C38.3881 10.2347 41.1811 7.06103 44.4999 4.50443C47.8186 7.06103 50.6117 10.2347 52.7258 13.8501H36.2739ZM47.4969 59.2002L48.2869 63.1502H40.7128L41.5028 59.2002H47.4969Z" fill="#8482FF" stroke="#8482FF" stroke-width="0.4"/>
<path d="M38.6998 68.8343H38.4998V69.0343V73.4948C35.0494 72.5395 31.3472 73.4539 28.738 75.9092C26.5005 73.3421 23.2625 71.8604 19.8504 71.8503H19.8498C18.8494 71.8503 17.8536 71.9795 16.8869 72.2344C15.6117 65.2835 9.53743 60.2252 2.4494 60.2503H0.999756H0.799756V60.4503V63.3503V63.5503H0.999756L2.44976 63.5503L2.45038 63.5503C8.23234 63.5324 13.0932 67.8682 13.7457 73.5995C12.4212 74.3905 11.2644 75.433 10.3407 76.6679C7.71677 74.492 4.41297 73.2992 0.999693 73.3003L0.799756 73.3004V73.5003V76.4003V76.6001L0.999529 76.6003C7.29282 76.6074 12.3927 81.7073 12.3998 88.0006L12.4 88.2003H12.5998H15.4998H15.6997L15.6998 88.0004C15.7014 84.7903 14.6455 81.6703 12.6975 79.1221C13.5291 77.7925 14.7115 76.7174 16.1155 76.0158C16.1428 76.0107 16.1766 75.9998 16.2101 75.9769C17.3457 75.4321 18.5894 75.1497 19.8492 75.1503C22.5541 75.163 25.0895 76.4592 26.684 78.6383C25.8824 80.1871 25.4592 81.9043 25.4498 83.6493L25.4487 83.8503H25.6498H28.5498H28.75L28.7498 83.6502C28.7486 82.2055 29.1568 80.7902 29.9269 79.5679L29.9367 79.5523C29.9489 79.5395 29.9655 79.5211 29.981 79.4991L29.9825 79.4969C31.8633 76.7328 35.4265 75.6819 38.4998 76.9671V80.6343V80.8343H38.6998H41.5998H41.7998V80.6343V69.0343V68.8343H41.5998H38.6998Z" fill="#8482FF" stroke="#8482FF" stroke-width="0.4"/>
<path d="M86.5494 63.5503H86.55H88H88.2V63.3503V60.4503V60.2503H88H86.5503C79.4623 60.2252 73.388 65.2835 72.1128 72.2344C71.1461 71.9795 70.1504 71.8503 69.1499 71.8503L69.1494 71.8503C65.738 71.8593 62.4999 73.3395 60.2618 75.9049C57.6526 73.4496 53.9503 72.5351 50.4999 73.4905V69.03V68.83H50.2999H47.3999H47.1999V69.03V80.63V80.83H47.3999H50.2999H50.4999V80.63V76.9671C53.573 75.6815 57.1361 76.7319 59.0173 79.4955L59.0173 79.4955L59.0188 79.4977C59.0342 79.5197 59.0508 79.5381 59.063 79.5508L59.0729 79.5664C59.8433 80.7891 60.2513 82.2049 60.2499 83.6501L60.2497 83.8503H60.4499H63.3499H63.551L63.5499 83.6493C63.5406 81.9043 63.1173 80.1871 62.3157 78.6383C63.9102 76.4592 66.4456 75.163 69.1504 75.1503C70.417 75.1506 71.6671 75.437 72.8074 75.9884C72.8335 76.0012 72.8573 76.0074 72.8664 76.0098C74.2803 76.7094 75.4718 77.787 76.3093 79.1221C74.3587 81.6694 73.3003 84.7893 73.2999 88.0003L73.2999 88.2003H73.4999H76.4H76.5997L76.6 88.0006C76.6071 81.7073 81.7069 76.6074 88.0002 76.6003L88.2 76.6001V76.4003V73.5003V73.3004L88 73.3003C84.5867 73.2996 81.2831 74.4922 78.659 76.6679C77.7353 75.433 76.5785 74.3905 75.254 73.5995C75.9067 67.868 80.7674 63.5324 86.5494 63.5503Z" fill="#8482FF" stroke="#8482FF" stroke-width="0.4"/>
</svg>
