<svg width="33" height="32" fill="none" xmlns="http://www.w3.org/2000/svg"><path d="M6.86397.246094C5.30958.252151 3.82058.872317 2.72145 1.97145 1.62232 3.07058 1.00215 4.55958.996094 6.11397V26.0032c.006056 1.5544.626226 3.0434 1.725356 4.1425 1.09913 1.0992 2.58813 1.7193 4.14252 1.7254H26.7532c1.5544-.0061 3.0434-.6262 4.1425-1.7254 1.0992-1.0991 1.7193-2.5881 1.7254-4.1425V6.11397c-.0061-1.55439-.6262-3.04339-1.7254-4.14252C29.7966.872317 28.3076.252151 26.7532.246094H6.86397zm0 2.874996H26.7532c1.6675 0 2.9929 1.32538 2.9929 2.99288V26.0032c0 1.6675-1.3254 2.9929-2.9929 2.9929H6.86397c-.39372.0025-.78402-.0732-1.14826-.2228-.36423-.1495-.69515-.3699-.97356-.6483-.27841-.2784-.49876-.6093-.64829-.9735-.14953-.3643-.22525-.7546-.22277-1.1483V6.11397c0-1.6675 1.32538-2.99288 2.99288-2.99288zm9.54073 7.51811c-1.0566-.01-1.955 0-2.4596.2473-.3378.1638-.5951.5333-.4384.5505.1969.0288.6396.1237.8768.4442.3019.4097.2918 1.3369.2918 1.3369s.1682 2.5487-.4111 2.8692c-.3982.2185-.943-.2256-2.1217-2.2525-.6009-1.0436-1.0552-2.1951-1.0552-2.1951s-.0862-.2142-.2415-.3263c-.1911-.1394-.4556-.1854-.4556-.1854l-2.81323.0172s-.42119.0173-.57213.197c-.14087.1681-.0115.4988-.0115.4988s2.20082 5.1491 4.69346 7.7438c2.2856 2.3819 4.8803 2.2238 4.8803 2.2238h1.1787s.3537-.0388.5334-.23c.1696-.1797.1638-.5175.1638-.5175s-.023-1.5769.7073-1.8127c.7245-.2257 1.6445 1.5266 2.6277 2.2008.7475.5103 1.3139.3982 1.3139.3982l2.6292-.0388s1.3699-.0848.7187-1.1687c-.0503-.0834-.3766-.7964-1.9478-2.2569-1.6517-1.5266-1.4317-1.2793.5549-3.9243 1.2075-1.6115 1.6905-2.5947 1.5381-3.0217-.1437-.3982-1.0321-.2918-1.0321-.2918l-2.9598.0173s-.2185-.0288-.3809.0675c-.1117.083-.2007.1927-.2588.3192 0 0-.4715 1.2463-1.0954 2.3086-1.3138 2.2339-1.8472 2.3575-2.0599 2.218-.5003-.3263-.3766-1.3038-.3766-1.9938 0-2.1735.3306-3.0719-.6397-3.3062-.3206-.0791-.5563-.1294-1.3757-.1366h-.0014z" fill="#8482FF"/></svg>