<svg width="33" height="32" viewBox="0 0 33 32" fill="none" xmlns="http://www.w3.org/2000/svg">
<path d="M6.86397 0.246094C5.30958 0.252151 3.82058 0.872317 2.72145 1.97145C1.62232 3.07058 1.00215 4.55958 0.996094 6.11397V26.0032C1.00215 27.5576 1.62232 29.0466 2.72145 30.1457C3.82058 31.2449 5.30958 31.865 6.86397 31.8711H26.7532C28.3076 31.865 29.7966 31.2449 30.8957 30.1457C31.9949 29.0466 32.615 27.5576 32.6211 26.0032V6.11397C32.615 4.55958 31.9949 3.07058 30.8957 1.97145C29.7966 0.872317 28.3076 0.252151 26.7532 0.246094H6.86397ZM6.86397 3.12109H26.7532C28.4207 3.12109 29.7461 4.44647 29.7461 6.11397V26.0032C29.7461 27.6707 28.4207 28.9961 26.7532 28.9961H6.86397C6.47025 28.9986 6.07995 28.9229 5.71571 28.7733C5.35148 28.6238 5.02056 28.4034 4.74215 28.125C4.46374 27.8466 4.24339 27.5157 4.09386 27.1515C3.94433 26.7872 3.86861 26.3969 3.87109 26.0032V6.11397C3.87109 4.44647 5.19647 3.12109 6.86397 3.12109ZM16.4047 10.6392C15.3481 10.6292 14.4497 10.6392 13.9451 10.8865C13.6073 11.0503 13.35 11.4198 13.5067 11.437C13.7036 11.4658 14.1463 11.5607 14.3835 11.8812C14.6854 12.2909 14.6753 13.2181 14.6753 13.2181C14.6753 13.2181 14.8435 15.7668 14.2642 16.0873C13.866 16.3058 13.3212 15.8617 12.1425 13.8348C11.5416 12.7912 11.0873 11.6397 11.0873 11.6397C11.0873 11.6397 11.0011 11.4255 10.8458 11.3134C10.6547 11.174 10.3902 11.128 10.3902 11.128L7.57697 11.1452C7.57697 11.1452 7.15578 11.1625 7.00484 11.3422C6.86397 11.5103 6.99334 11.841 6.99334 11.841C6.99334 11.841 9.19416 16.9901 11.6868 19.5848C13.9724 21.9667 16.5671 21.8086 16.5671 21.8086H17.7458C17.7458 21.8086 18.0995 21.7698 18.2792 21.5786C18.4488 21.3989 18.443 21.0611 18.443 21.0611C18.443 21.0611 18.42 19.4842 19.1503 19.2484C19.8748 19.0227 20.7948 20.775 21.778 21.4492C22.5255 21.9595 23.0919 21.8474 23.0919 21.8474L25.7211 21.8086C25.7211 21.8086 27.091 21.7238 26.4398 20.6399C26.3895 20.5565 26.0632 19.8435 24.492 18.383C22.8403 16.8564 23.0603 17.1037 25.0469 14.4587C26.2544 12.8472 26.7374 11.864 26.585 11.437C26.4413 11.0388 25.5529 11.1452 25.5529 11.1452L22.5931 11.1625C22.5931 11.1625 22.3746 11.1337 22.2122 11.23C22.1005 11.313 22.0115 11.4227 21.9534 11.5492C21.9534 11.5492 21.4819 12.7955 20.858 13.8578C19.5442 16.0917 19.0108 16.2153 18.7981 16.0758C18.2978 15.7495 18.4215 14.772 18.4215 14.082C18.4215 11.9085 18.7521 11.0101 17.7818 10.7758C17.4612 10.6967 17.2255 10.6464 16.4061 10.6392H16.4047Z" fill="#8482FF"/>
</svg>
